<svg width="340" height="192" viewBox="0 0 340 192" fill="none" xmlns="http://www.w3.org/2000/svg">
<circle cx="169.335" cy="69.4122" r="11.675" stroke="#2644BA" stroke-width="2" stroke-linecap="round"/>
<circle cx="186.996" cy="90.6034" r="11.675" stroke="#2644BA" stroke-width="2" stroke-linecap="round"/>
<line x1="186.631" y1="90.7053" x2="186.631" y2="111.907" stroke="#2644BA" stroke-width="2" stroke-linecap="round"/>
<line x1="183.033" y1="93.7141" x2="185.631" y2="96.312" stroke="#2644BA" stroke-width="2" stroke-linecap="round"/>
<line x1="186.631" y1="90.7053" x2="186.631" y2="111.907" stroke="#2644BA" stroke-width="2" stroke-linecap="round"/>
<line x1="165.381" y1="72.6587" x2="167.979" y2="75.2565" stroke="#2644BA" stroke-width="2" stroke-linecap="round"/>
<line x1="168.979" y1="69.4978" x2="168.979" y2="90.2821" stroke="#2644BA" stroke-width="2" stroke-linecap="round"/>
<circle cx="152.078" cy="90.6034" r="11.675" stroke="#2644BA" stroke-width="2" stroke-linecap="round"/>
<path d="M151.662 91.2819L151.662 111.724" stroke="#2644BA" stroke-width="2" stroke-linecap="round"/>
<circle cx="123.506" cy="64.247" r="8.00345" stroke="#2644BA" stroke-width="2" stroke-linecap="round"/>
<circle cx="9.00345" cy="9.00345" r="8.00345" transform="matrix(-1 0 0 1 224.898 55.2435)" stroke="#2644BA" stroke-width="2" stroke-linecap="round"/>
<circle cx="9.00345" cy="9.00345" r="8.00345" transform="matrix(-1 0 0 1 232.407 80.702)" stroke="#2644BA" stroke-width="2" stroke-linecap="round"/>
<circle cx="123.506" cy="64.247" r="8.00345" stroke="#2644BA" stroke-width="2" stroke-linecap="round"/>
<circle cx="116.589" cy="89.7055" r="8.00345" stroke="#2644BA" stroke-width="2" stroke-linecap="round"/>
<line x1="116.618" y1="88.4452" x2="116.618" y2="104.548" stroke="#2644BA" stroke-width="2" stroke-linecap="round"/>
<line x1="114.842" y1="91.5015" x2="115.578" y2="92.2367" stroke="#2644BA" stroke-width="2" stroke-linecap="round"/>
<line x1="116.618" y1="88.4452" x2="116.618" y2="104.548" stroke="#2644BA" stroke-width="2" stroke-linecap="round"/>
<line x1="114.842" y1="91.5015" x2="115.578" y2="92.2367" stroke="#2644BA" stroke-width="2" stroke-linecap="round"/>
<line x1="116.618" y1="88.4452" x2="116.618" y2="104.548" stroke="#2644BA" stroke-width="2" stroke-linecap="round"/>
<line x1="114.842" y1="91.5015" x2="115.578" y2="92.2367" stroke="#2644BA" stroke-width="2" stroke-linecap="round"/>
<line x1="114.842" y1="91.5015" x2="115.578" y2="92.2367" stroke="#2644BA" stroke-width="2" stroke-linecap="round"/>
<line x1="123.532" y1="63.6327" x2="123.532" y2="79.7353" stroke="#2644BA" stroke-width="2" stroke-linecap="round"/>
<line x1="121.756" y1="66.6888" x2="122.491" y2="67.4241" stroke="#2644BA" stroke-width="2" stroke-linecap="round"/>
<line x1="123.532" y1="63.6327" x2="123.532" y2="79.7353" stroke="#2644BA" stroke-width="2" stroke-linecap="round"/>
<line x1="121.756" y1="66.6888" x2="122.491" y2="67.4241" stroke="#2644BA" stroke-width="2" stroke-linecap="round"/>
<line x1="121.756" y1="66.6888" x2="122.491" y2="67.4241" stroke="#2644BA" stroke-width="2" stroke-linecap="round"/>
<line x1="121.756" y1="66.6888" x2="122.491" y2="67.4241" stroke="#2644BA" stroke-width="2" stroke-linecap="round"/>
<line x1="223.591" y1="89.4738" x2="223.591" y2="105.576" stroke="#2644BA" stroke-width="2" stroke-linecap="round"/>
<line x1="222.201" y1="92.1697" x2="222.937" y2="92.905" stroke="#2644BA" stroke-width="2" stroke-linecap="round"/>
<line x1="216.284" y1="64.1729" x2="216.284" y2="80.2754" stroke="#2644BA" stroke-width="2" stroke-linecap="round"/>
<line x1="214.508" y1="67.2291" x2="215.244" y2="67.9644" stroke="#2644BA" stroke-width="2" stroke-linecap="round"/>
<circle cx="169.336" cy="86.2168" r="38.4215" transform="rotate(-45 169.336 86.2168)" stroke="#2644BA" stroke-width="2" stroke-linecap="round"/>
<path d="M196.843 114.458L222.17 139.785" stroke="#2644BA" stroke-width="2" stroke-linecap="round"/>
<path d="M148.809 94.313L151.104 96.3842" stroke="#2644BA" stroke-width="2" stroke-linecap="round"/>
</svg>
