<svg width="340" height="192" viewBox="0 0 340 192" fill="none" xmlns="http://www.w3.org/2000/svg">
<rect x="85.1802" y="53.3689" width="167.482" height="61.1204" stroke="#2644BA" stroke-width="2"/>
<path d="M79.8803 48.407L74.7494 39.8519L80.3219 38.1126L94.1429 45.6062L94.4559 45.7759L94.8056 45.7097L126.048 39.7927L135.172 43.5054L135.201 43.5172L135.231 43.5272L141.803 45.7322L141.713 48.1038L103.11 56.3051L102.799 56.3712L102.584 56.6044L88.4432 71.8985L82.5394 71.6761L82.9424 60.9815L82.9853 59.8448L81.8524 59.948L52.473 62.6242L38.162 49.8469L44.4094 48.6859L52.8481 54.6483L53.1957 54.8938L53.6136 54.8137L79.2111 49.9034L80.6161 49.6339L79.8803 48.407Z" fill="#F9FCFF" stroke="#2644BA" stroke-width="2"/>
<path d="M255.074 110.121L256.878 100.31L251.05 100.636L240.735 112.501L240.502 112.77L240.151 112.831L208.819 118.249L201.576 124.926L201.553 124.948L201.529 124.967L196.148 129.338L197.064 131.527L236.091 125.666L236.405 125.619L236.689 125.761L255.296 135.123L260.746 132.844L256.618 122.971L256.179 121.921L257.276 121.62L285.727 113.821L294.647 96.8352L288.389 97.9395L282.578 106.483L282.339 106.835L281.919 106.907L256.226 111.287L254.815 111.528L255.074 110.121Z" fill="#F9FCFF" stroke="#2644BA" stroke-width="2"/>
<path d="M85.9625 88.2218C85.572 87.8313 84.9388 87.8313 84.5483 88.2218L78.1843 94.5858C77.7938 94.9763 77.7938 95.6095 78.1843 96C78.5748 96.3905 79.208 96.3905 79.5985 96L85.2554 90.3432L90.9122 96C91.3027 96.3905 91.9359 96.3905 92.3264 96C92.717 95.6095 92.717 94.9763 92.3264 94.5858L85.9625 88.2218ZM86.2554 106.81V88.929H84.2554V106.81H86.2554Z" fill="#2644BA"/>
<path d="M141.704 113.789C141.314 114.179 141.314 114.812 141.704 115.203L148.068 121.567C148.459 121.957 149.092 121.957 149.482 121.567C149.873 121.176 149.873 120.543 149.482 120.153L143.825 114.496L149.482 108.839C149.873 108.448 149.873 107.815 149.482 107.425C149.092 107.034 148.459 107.034 148.068 107.425L141.704 113.789ZM160.292 113.496L142.411 113.496L142.411 115.496L160.292 115.496L160.292 113.496Z" fill="#2644BA"/>
<path d="M189.531 54.0684C189.922 53.6779 189.922 53.0447 189.531 52.6542L183.167 46.2903C182.777 45.8997 182.144 45.8997 181.753 46.2903C181.363 46.6808 181.363 47.3139 181.753 47.7045L187.41 53.3613L181.753 59.0182C181.363 59.4087 181.363 60.0419 181.753 60.4324C182.144 60.8229 182.777 60.8229 183.167 60.4324L189.531 54.0684ZM170.943 54.3613H188.824V52.3613H170.943V54.3613Z" fill="#2644BA"/>
<path d="M253.338 84.5765C252.948 84.967 252.315 84.967 251.924 84.5765L245.56 78.2125C245.17 77.822 245.17 77.1888 245.56 76.7983C245.951 76.4078 246.584 76.4078 246.974 76.7983L252.631 82.4552L258.288 76.7983C258.679 76.4078 259.312 76.4078 259.702 76.7983C260.093 77.1888 260.093 77.822 259.702 78.2125L253.338 84.5765ZM253.631 65.9885V83.8694H251.631V65.9885H253.631Z" fill="#2644BA"/>
</svg>
