<svg width="340" height="192" viewBox="0 0 340 192" fill="none" xmlns="http://www.w3.org/2000/svg">
<rect x="11.3564" y="50.7957" width="90.4087" height="90.4087" stroke="#2644BA" stroke-width="2"/>
<rect x="17.6328" y="57.072" width="77.8559" height="77.8559" stroke="#2644BA" stroke-width="2"/>
<path d="M67.2711 80.0881L63.987 93.7301L63.7634 94.6586L62.8256 94.478L43.2006 90.6987L30.6423 102.409L39.0913 113.058L57.0583 117.501L74.2837 113.078L84.559 96.3926L82.7407 81.9765L75.4668 86.6841L74.8126 87.1074L74.2421 86.5765L67.2711 80.0881Z" stroke="#2644BA" stroke-width="2"/>
<path d="M279.841 73.1767L287.056 84.8797L287.147 85.0278L287.283 85.1364L301.895 96.8037L304.049 107.958L299.275 119.434H278.743L275.52 105.022L275.478 104.832L275.368 104.672L262.879 86.5748L266.539 73.1483L274.001 77.9774L274.686 78.4205L275.258 77.8389L279.841 73.1767Z" stroke="#2644BA" stroke-width="2"/>
<path d="M167.637 82.4706L168.321 82.9137L168.893 82.3321L177.893 73.1765L191.335 94.9792L193.793 135.06H146.144V99.1465L153.232 73.1481L167.637 82.4706Z" stroke="#2644BA" stroke-width="2"/>
<rect x="124.796" y="50.7957" width="90.4087" height="90.4087" stroke="#2644BA" stroke-width="2"/>
<rect x="131.072" y="57.072" width="77.8559" height="77.8559" stroke="#2644BA" stroke-width="2"/>
<rect x="238.235" y="50.7957" width="90.4087" height="90.4087" stroke="#2644BA" stroke-width="2"/>
<rect x="244.512" y="57.072" width="77.8559" height="77.8559" stroke="#2644BA" stroke-width="2"/>
</svg>
