<svg width="340" height="192" viewBox="0 0 340 192" fill="none" xmlns="http://www.w3.org/2000/svg">
<line x1="166.284" y1="61.5828" x2="206" y2="71.0743" stroke="#2644BA" stroke-width="2"/>
<line x1="146.256" y1="62.0923" x2="166.547" y2="61.61" stroke="#2644BA" stroke-width="2"/>
<line x1="175.74" y1="72.744" x2="204.895" y2="71.3973" stroke="#2644BA" stroke-width="2"/>
<line x1="175.841" y1="72.8561" x2="145.313" y2="62.5922" stroke="#2644BA" stroke-width="2"/>
<line x1="178.58" y1="124.877" x2="167.252" y2="61.5846" stroke="#2644BA" stroke-width="2"/>
<line x1="179.627" y1="102.789" x2="204.99" y2="71.418" stroke="#2644BA" stroke-width="2"/>
<line x1="159.87" y1="98.3061" x2="176.537" y2="72.2827" stroke="#2644BA" stroke-width="2"/>
<line x1="157.041" y1="119.696" x2="145.299" y2="61.2845" stroke="#2644BA" stroke-width="2"/>
<line x1="179.845" y1="101.989" x2="186.828" y2="143.153" stroke="#2644BA" stroke-width="2"/>
<line x1="160.004" y1="97.524" x2="169.81" y2="136.116" stroke="#2644BA" stroke-width="2"/>
<circle cx="144.61" cy="53.2269" r="9.3219" fill="#F9FCFF" stroke="#2644BA" stroke-width="2"/>
<rect x="96.9727" y="22.9727" width="146.055" height="146.055" stroke="#2644BA" stroke-width="2"/>
<circle cx="230.721" cy="36.9224" r="4.98267" fill="#F9FCFF" stroke="#2644BA" stroke-width="2"/>
<circle cx="125.349" cy="118.815" r="18.9699" fill="#F9FCFF" stroke="#2644BA" stroke-width="2"/>
<rect x="127.338" y="118.147" width="96.3733" height="3.38342" rx="1" transform="rotate(13.4013 127.338 118.147)" fill="#F9FCFF" stroke="#2644BA" stroke-width="2"/>
<circle cx="212.777" cy="138.786" r="20.8434" fill="#F9FCFF" stroke="#2644BA" stroke-width="2"/>
</svg>
