<svg width="341" height="192" viewBox="0 0 341 192" fill="none" xmlns="http://www.w3.org/2000/svg">
<path d="M175.598 84.3596L249.36 84.3596L228.566 90.9747L228.409 91.0248L228.276 91.1229L212.207 102.975L208.417 105.668L207.662 106.204L208.139 106.998L216.888 121.58L212.298 134.051L202.423 139.796L197.842 136.881L207.028 132.373L207.449 132.166L207.559 131.71L209.968 121.71L210.136 121.016L209.533 120.632L196.658 112.439L194.851 106.205L194.724 105.767L194.31 105.575L180.423 99.1626L179.863 98.9042L179.381 99.288L171.322 105.701L170.537 106.325L171.164 107.108L175.702 112.778L173.792 113.831L166.662 106.427L174.38 96.9184L174.934 96.236L174.329 95.5991L165.745 86.5719L175.598 84.3596ZM157.322 78.04L141.161 75.9802L140.618 71.7457L156.611 75.9451L160.714 81.2808L157.92 78.3429L157.675 78.085L157.322 78.04Z" fill="#F9FCFF" stroke="#2644BA" stroke-width="2"/>
<path d="M162.846 81.6902L299.439 78.2053L219.274 96.9731L219.189 96.9931L219.108 97.0276L201.616 104.524L201.518 104.566L201.43 104.628L197.633 107.327L196.879 107.863L197.355 108.656L206.104 123.238L201.515 135.71L191.639 141.454L187.115 138.576L196.424 134.363L196.884 134.155L196.99 133.661L199.19 123.343L199.335 122.664L198.749 122.291L185.874 114.098L184.067 107.863L183.94 107.425L183.526 107.234L169.639 100.821L169.079 100.563L168.597 100.947L160.538 107.359L159.753 107.984L160.38 108.767L164.918 114.436L163.009 115.49L155.878 108.085L163.597 98.577L164.151 97.8946L163.545 97.2577L147.137 80.0015L146.892 79.7436L146.539 79.6986L130.378 77.6388L129.752 72.7588L154.095 64.9566L158.62 72.4996L161.886 81.0474L162.139 81.7083L162.846 81.6902Z" fill="#F9FCFF" stroke="#2644BA" stroke-width="2"/>
<path d="M162.846 81.6902L299.439 78.2053L219.274 96.9731L219.189 96.9931L219.108 97.0276L201.616 104.524L201.518 104.566L201.43 104.628L197.633 107.327L196.879 107.863L197.355 108.656L206.104 123.238L201.515 135.71L191.639 141.454L187.115 138.576L196.424 134.363L196.884 134.155L196.99 133.661L199.19 123.343L199.335 122.664L198.749 122.291L185.874 114.098L184.067 107.863L183.94 107.425L183.526 107.234L169.639 100.821L169.079 100.563L168.597 100.947L160.538 107.359L159.753 107.984L160.38 108.767L164.918 114.436L163.009 115.49L155.878 108.085L163.597 98.577L164.151 97.8946L163.545 97.2577L147.137 80.0015L146.892 79.7436L146.539 79.6986L130.378 77.6388L129.752 72.7588L154.095 64.9566L158.62 72.4996L161.886 81.0474L162.139 81.7083L162.846 81.6902Z" fill="#F9FCFF" stroke="#2644BA" stroke-width="2"/>
<rect x="60.4429" y="50.375" width="49.4287" height="12.4" stroke="#2644BA" stroke-width="2"/>
<rect x="60.4429" y="68.2036" width="49.4287" height="12.4" fill="#2644BA" stroke="#2644BA" stroke-width="2"/>
<rect x="60.4429" y="86.0327" width="49.4287" height="12.4" stroke="#2644BA" stroke-width="2"/>
<rect x="60.4429" y="103.862" width="49.4287" height="12.4" stroke="#2644BA" stroke-width="2"/>
</svg>
