<svg width="340" height="192" viewBox="0 0 340 192" fill="none" xmlns="http://www.w3.org/2000/svg">
<path d="M57.7532 104.324L69.5635 65.2207L126.247 62.637L142.349 76.3483L154.741 117.533L74.7021 122.367L57.7532 104.324Z" stroke="#2644BA" stroke-width="2"/>
<path d="M57.7532 104.324L69.2327 66.3158L80.7207 80.0415L81.0437 80.4274L81.5461 80.3979L142.492 76.8223L154.741 117.532L74.7021 122.367L57.7532 104.324Z" stroke="#2644BA" stroke-width="2"/>
<path d="M142.492 76.8221L154.742 117.532L75.4569 122.321L81.4218 80.3806L142.492 76.8221Z" stroke="#2644BA" stroke-width="2"/>
<path d="M240.185 129.35L170.892 116.861L182.082 76.1286L212.996 69.8033L265.633 76.1945L282.032 115.401L240.185 129.35Z" stroke="#2644BA" stroke-width="2"/>
<path d="M240.185 129.35L170.892 116.861L182.004 76.4097L231.058 84.7633L231.261 84.7979L231.461 84.7494L265.738 76.4447L282.032 115.401L240.185 129.35Z" stroke="#2644BA" stroke-width="2"/>
<path d="M282.032 115.401L241.024 129.07L232.389 84.5246L265.737 76.4447L282.032 115.401Z" stroke="#2644BA" stroke-width="2"/>
</svg>
