<svg width="340" height="192" viewBox="0 0 340 192" fill="none" xmlns="http://www.w3.org/2000/svg">
<rect x="125.419" y="113.845" width="89.16" height="30.9448" stroke="#2644BA" stroke-width="2"/>
<rect x="162.041" y="107.483" width="15.9187" height="14.7242" stroke="#2644BA" stroke-width="2"/>
<mask id="path-3-outside-1_71_660" maskUnits="userSpaceOnUse" x="124.419" y="70.9406" width="92" height="75" fill="black">
<rect fill="white" x="124.419" y="70.9406" width="92" height="75"/>
<path fill-rule="evenodd" clip-rule="evenodd" d="M145.988 86.2092C151.006 78.2376 159.885 72.9406 170 72.9406C180.116 72.9406 188.994 78.2376 194.013 86.2092H213.581V143.481H126.419V86.2092H145.988ZM188.605 86.2092C184.213 80.8 177.51 77.3433 170 77.3433C162.49 77.3433 155.787 80.8 151.395 86.2092H188.605Z"/>
</mask>
<path d="M145.988 86.2092V88.2092H147.092L147.68 87.2748L145.988 86.2092ZM194.013 86.2092L192.32 87.2748L192.908 88.2092H194.013V86.2092ZM213.581 86.2092H215.581V84.2092H213.581V86.2092ZM213.581 143.481V145.481H215.581V143.481H213.581ZM126.419 143.481H124.419V145.481H126.419V143.481ZM126.419 86.2092V84.2092H124.419V86.2092H126.419ZM188.605 86.2092V88.2092H192.805L190.157 84.9487L188.605 86.2092ZM151.395 86.2092L149.843 84.9487L147.195 88.2092H151.395V86.2092ZM170 70.9406C159.169 70.9406 149.665 76.615 144.295 85.1437L147.68 87.2748C152.348 79.8603 160.6 74.9406 170 74.9406V70.9406ZM195.705 85.1437C190.336 76.615 180.831 70.9406 170 70.9406V74.9406C179.4 74.9406 187.652 79.8603 192.32 87.2748L195.705 85.1437ZM194.013 88.2092H213.581V84.2092H194.013V88.2092ZM211.581 86.2092V143.481H215.581V86.2092H211.581ZM213.581 141.481H126.419V145.481H213.581V141.481ZM128.419 143.481V86.2092H124.419V143.481H128.419ZM126.419 88.2092H145.988V84.2092H126.419V88.2092ZM190.157 84.9487C185.403 79.0917 178.138 75.3433 170 75.3433V79.3433C176.882 79.3433 183.024 82.5082 187.052 87.4698L190.157 84.9487ZM170 75.3433C161.862 75.3433 154.597 79.0917 149.843 84.9487L152.948 87.4698C156.976 82.5082 163.118 79.3433 170 79.3433V75.3433ZM151.395 88.2092H188.605V84.2092H151.395V88.2092Z" fill="#2644BA" mask="url(#path-3-outside-1_71_660)"/>
<rect x="155.403" y="29.3022" width="29.1933" height="14.1479" stroke="#2644BA" stroke-width="2"/>
<mask id="path-6-inside-2_71_660" fill="white">
<path fill-rule="evenodd" clip-rule="evenodd" d="M195.558 18.7477H144.441V65.1267H95.9727V160.141H244.027V65.1267H195.558V18.7477Z"/>
</mask>
<path d="M144.441 18.7477V16.7477H142.441V18.7477H144.441ZM195.558 18.7477H197.558V16.7477H195.558V18.7477ZM144.441 65.1267V67.1267H146.441V65.1267H144.441ZM95.9727 65.1267V63.1267H93.9727V65.1267H95.9727ZM95.9727 160.141H93.9727V162.141H95.9727V160.141ZM244.027 160.141V162.141H246.027V160.141H244.027ZM244.027 65.1267H246.027V63.1267H244.027V65.1267ZM195.558 65.1267H193.558V67.1267H195.558V65.1267ZM144.441 20.7477H195.558V16.7477H144.441V20.7477ZM146.441 65.1267V18.7477H142.441V65.1267H146.441ZM95.9727 67.1267H144.441V63.1267H95.9727V67.1267ZM97.9727 160.141V65.1267H93.9727V160.141H97.9727ZM244.027 158.141H95.9727V162.141H244.027V158.141ZM242.027 65.1267V160.141H246.027V65.1267H242.027ZM195.558 67.1267H244.027V63.1267H195.558V67.1267ZM193.558 18.7477V65.1267H197.558V18.7477H193.558Z" fill="#2644BA" mask="url(#path-6-inside-2_71_660)"/>
<mask id="path-8-inside-3_71_660" fill="white">
<path fill-rule="evenodd" clip-rule="evenodd" d="M95.9727 65.1267H114.184V143.79H225.816V65.1267H244.027V143.79V160.141V173.252H225.816V160.141H114.184V173.252H95.9727V160.141V143.79V65.1267Z"/>
</mask>
<path d="M114.184 65.1267H116.184V63.1267H114.184V65.1267ZM95.9727 65.1267V63.1267H93.9727V65.1267H95.9727ZM114.184 143.79H112.184V145.79H114.184V143.79ZM225.816 143.79V145.79H227.816V143.79H225.816ZM225.816 65.1267V63.1267H223.816V65.1267H225.816ZM244.027 65.1267H246.027V63.1267H244.027V65.1267ZM244.027 173.252V175.252H246.027V173.252H244.027ZM225.816 173.252H223.816V175.252H225.816V173.252ZM225.816 160.141H227.816V158.141H225.816V160.141ZM114.184 160.141V158.141H112.184V160.141H114.184ZM114.184 173.252V175.252H116.184V173.252H114.184ZM95.9727 173.252H93.9727V175.252H95.9727V173.252ZM114.184 63.1267H95.9727V67.1267H114.184V63.1267ZM116.184 143.79V65.1267H112.184V143.79H116.184ZM225.816 141.79H114.184V145.79H225.816V141.79ZM227.816 143.79V65.1267H223.816V143.79H227.816ZM225.816 67.1267H244.027V63.1267H225.816V67.1267ZM242.027 65.1267V143.79H246.027V65.1267H242.027ZM242.027 143.79V160.141H246.027V143.79H242.027ZM242.027 160.141V173.252H246.027V160.141H242.027ZM244.027 171.252H225.816V175.252H244.027V171.252ZM227.816 173.252V160.141H223.816V173.252H227.816ZM114.184 162.141H225.816V158.141H114.184V162.141ZM116.184 173.252V160.141H112.184V173.252H116.184ZM95.9727 175.252H114.184V171.252H95.9727V175.252ZM93.9727 160.141V173.252H97.9727V160.141H93.9727ZM93.9727 143.79V160.141H97.9727V143.79H93.9727ZM93.9727 65.1267V143.79H97.9727V65.1267H93.9727Z" fill="#2644BA" mask="url(#path-8-inside-3_71_660)"/>
<rect x="151.916" y="25.885" width="36.1675" height="20.9824" stroke="#2644BA" stroke-width="2"/>
</svg>
