<svg width="340" height="192" viewBox="0 0 340 192" fill="none" xmlns="http://www.w3.org/2000/svg">
<rect x="96.9727" y="22.9727" width="146.055" height="146.055" stroke="#2644BA" stroke-width="2"/>
<mask id="path-2-inside-1_62_616" fill="white">
<path fill-rule="evenodd" clip-rule="evenodd" d="M148.873 95.7122L123.899 107.024L144.821 112.63C138.808 124.189 126.721 132.083 112.791 132.083C92.8632 132.083 76.7085 115.928 76.7085 96C76.7085 76.0721 92.8632 59.9174 112.791 59.9174C132.623 59.9174 148.718 75.9168 148.873 95.7122Z"/>
</mask>
<path d="M123.899 107.024L123.073 105.202L117.981 107.509L123.381 108.956L123.899 107.024ZM148.873 95.7122L149.698 97.534L150.883 96.9973L150.873 95.6965L148.873 95.7122ZM144.821 112.63L146.596 113.553L147.745 111.343L145.339 110.698L144.821 112.63ZM124.724 108.846L149.698 97.534L148.047 93.8903L123.073 105.202L124.724 108.846ZM145.339 110.698L124.416 105.092L123.381 108.956L144.304 114.562L145.339 110.698ZM143.047 111.707C137.364 122.63 125.946 130.083 112.791 130.083V134.083C127.496 134.083 140.251 125.747 146.596 113.553L143.047 111.707ZM112.791 130.083C93.9678 130.083 78.7085 114.823 78.7085 96H74.7085C74.7085 117.032 91.7587 134.083 112.791 134.083V130.083ZM78.7085 96C78.7085 77.1767 93.9678 61.9174 112.791 61.9174V57.9174C91.7587 57.9174 74.7085 74.9675 74.7085 96H78.7085ZM112.791 61.9174C131.524 61.9174 146.727 77.03 146.873 95.7278L150.873 95.6965C150.709 74.8036 133.722 57.9174 112.791 57.9174V61.9174Z" fill="#2644BA" mask="url(#path-2-inside-1_62_616)"/>
<mask id="path-4-inside-2_62_616" fill="white">
<path fill-rule="evenodd" clip-rule="evenodd" d="M191.127 95.7122L216.101 107.024L195.179 112.63C201.192 124.189 213.279 132.083 227.209 132.083C247.137 132.083 263.292 115.928 263.292 96C263.292 76.0721 247.137 59.9174 227.209 59.9174C207.377 59.9174 191.282 75.9168 191.127 95.7122Z"/>
</mask>
<path d="M216.101 107.024L216.927 105.202L222.019 107.509L216.619 108.956L216.101 107.024ZM191.127 95.7122L190.302 97.534L189.117 96.9973L189.127 95.6965L191.127 95.7122ZM195.179 112.63L193.404 113.553L192.255 111.343L194.661 110.698L195.179 112.63ZM215.276 108.846L190.302 97.534L191.953 93.8903L216.927 105.202L215.276 108.846ZM194.661 110.698L215.584 105.092L216.619 108.956L195.696 114.562L194.661 110.698ZM196.953 111.707C202.636 122.63 214.054 130.083 227.209 130.083V134.083C212.504 134.083 199.749 125.747 193.404 113.553L196.953 111.707ZM227.209 130.083C246.032 130.083 261.292 114.823 261.292 96H265.292C265.292 117.032 248.241 134.083 227.209 134.083V130.083ZM261.292 96C261.292 77.1767 246.032 61.9174 227.209 61.9174V57.9174C248.241 57.9174 265.292 74.9675 265.292 96H261.292ZM227.209 61.9174C208.476 61.9174 193.273 77.03 193.127 95.7278L189.127 95.6965C189.291 74.8036 206.278 57.9174 227.209 57.9174V61.9174Z" fill="#2644BA" mask="url(#path-4-inside-2_62_616)"/>
<circle cx="149.018" cy="50.8923" r="4.4552" stroke="#2644BA" stroke-width="2"/>
<circle cx="149.018" cy="50.8923" r="4.4552" stroke="#2644BA" stroke-width="2"/>
<circle cx="168.59" cy="50.8923" r="4.4552" stroke="#2644BA" stroke-width="2"/>
<circle cx="188.163" cy="50.8923" r="4.4552" stroke="#2644BA" stroke-width="2"/>
</svg>
