<svg width="340" height="192" viewBox="0 0 340 192" fill="none" xmlns="http://www.w3.org/2000/svg">
<line x1="116.571" y1="47.853" x2="136.159" y2="47.853" stroke="#2644BA" stroke-width="2"/>
<line x1="112.213" y1="50.7222" x2="116.572" y2="50.7222" stroke="#2644BA" stroke-width="2"/>
<line x1="111.213" y1="67.3218" x2="111.213" y2="51.7224" stroke="#2644BA" stroke-width="2"/>
<line x1="114.133" y1="78.3677" x2="114.133" y2="67.3215" stroke="#2644BA" stroke-width="2"/>
<line x1="111.213" y1="87.8188" x2="111.213" y2="78.4731" stroke="#2644BA" stroke-width="2"/>
<line x1="108.35" y1="127.786" x2="108.005" y2="87.8276" stroke="#2644BA" stroke-width="2"/>
<line x1="111.213" y1="134.203" x2="111.213" y2="127.777" stroke="#2644BA" stroke-width="2"/>
<line x1="117.139" y1="135.203" x2="112.214" y2="135.203" stroke="#2644BA" stroke-width="2"/>
<line x1="131.279" y1="138.24" x2="117.138" y2="138.24" stroke="#2644BA" stroke-width="2"/>
<line x1="207.724" y1="52.7222" x2="196.574" y2="52.7222" stroke="#2644BA" stroke-width="2"/>
<line x1="211.746" y1="55.4453" x2="207.724" y2="55.4453" stroke="#2644BA" stroke-width="2"/>
<line x1="215.768" y1="58.3452" x2="211.747" y2="58.3452" stroke="#2644BA" stroke-width="2"/>
<line x1="217.726" y1="64.8081" x2="217.726" y2="60.1894" stroke="#2644BA" stroke-width="2"/>
<line x1="220.875" y1="70.0205" x2="220.875" y2="64.8082" stroke="#2644BA" stroke-width="2"/>
<line x1="223.806" y1="75.2329" x2="223.806" y2="70.0206" stroke="#2644BA" stroke-width="2"/>
<line x1="226.846" y1="80.4453" x2="226.846" y2="75.233" stroke="#2644BA" stroke-width="2"/>
<line x1="229.996" y1="126.707" x2="229.996" y2="80.4452" stroke="#2644BA" stroke-width="2"/>
<line x1="227.189" y1="133.502" x2="227.189" y2="126.707" stroke="#2644BA" stroke-width="2"/>
<line x1="225.273" y1="134.502" x2="216.197" y2="134.502" stroke="#2644BA" stroke-width="2"/>
<line x1="216.212" y1="137.293" x2="192.175" y2="137.674" stroke="#2644BA" stroke-width="2"/>
<line x1="192.16" y1="135.01" x2="174.271" y2="135.01" stroke="#2644BA" stroke-width="2"/>
<line x1="172.532" y1="138.24" x2="168.248" y2="138.24" stroke="#2644BA" stroke-width="2"/>
<line x1="168.249" y1="141.363" x2="165.491" y2="141.363" stroke="#2644BA" stroke-width="2"/>
<line x1="168.249" y1="141.363" x2="165.491" y2="141.363" stroke="#2644BA" stroke-width="2"/>
<line x1="165.49" y1="144.147" x2="146.181" y2="144.147" stroke="#2644BA" stroke-width="2"/>
<line x1="133.131" y1="143.147" x2="133.131" y2="140.363" stroke="#2644BA" stroke-width="2"/>
<line x1="145.181" y1="143.147" x2="145.181" y2="138.218" stroke="#2644BA" stroke-width="2"/>
<line x1="142.323" y1="138.218" x2="142.323" y2="133.289" stroke="#2644BA" stroke-width="2"/>
<line x1="143.323" y1="144.147" x2="134.131" y2="144.147" stroke="#2644BA" stroke-width="2"/>
<line x1="131.279" y1="138.24" x2="117.138" y2="138.24" stroke="#2644BA" stroke-width="2"/>
<line x1="141.95" y1="47.853" x2="169.262" y2="47.853" stroke="#2644BA" stroke-width="2"/>
<line x1="136.16" y1="50.7222" x2="141.951" y2="50.7222" stroke="#2644BA" stroke-width="2"/>
<line x1="128.436" y1="74.7778" x2="144.766" y2="74.7778" stroke="#2644BA" stroke-width="2"/>
<line x1="153.782" y1="81.1016" x2="153.782" y2="87.8187" stroke="#2644BA" stroke-width="2"/>
<line x1="156.783" y1="87.8188" x2="156.783" y2="93.9286" stroke="#2644BA" stroke-width="2"/>
<line x1="159.783" y1="93.9287" x2="159.783" y2="113.431" stroke="#2644BA" stroke-width="2"/>
<line x1="156.783" y1="113.431" x2="156.783" y2="117.076" stroke="#2644BA" stroke-width="2"/>
<line x1="153.782" y1="117.076" x2="153.782" y2="120.721" stroke="#2644BA" stroke-width="2"/>
<line x1="150.907" y1="120.721" x2="150.907" y2="135.395" stroke="#2644BA" stroke-width="2"/>
<line x1="180.521" y1="112.601" x2="180.521" y2="127.276" stroke="#2644BA" stroke-width="2"/>
<line x1="175.477" y1="129.23" x2="179.52" y2="129.23" stroke="#2644BA" stroke-width="2"/>
<line x1="174.477" y1="136.987" x2="174.477" y2="130.231" stroke="#2644BA" stroke-width="2"/>
<line x1="146.181" y1="137.218" x2="149.906" y2="137.218" stroke="#2644BA" stroke-width="2"/>
<line x1="117.674" y1="83.0327" x2="120.417" y2="83.0327" stroke="#2644BA" stroke-width="2"/>
<line x1="116.815" y1="87.8188" x2="116.815" y2="84.0646" stroke="#2644BA" stroke-width="2"/>
<line x1="114.133" y1="115.526" x2="114.133" y2="87.8189" stroke="#2644BA" stroke-width="2"/>
<line x1="116.815" y1="119.937" x2="116.815" y2="115.439" stroke="#2644BA" stroke-width="2"/>
<line x1="119.417" y1="122.511" x2="119.417" y2="119.938" stroke="#2644BA" stroke-width="2"/>
<line x1="122.113" y1="125.084" x2="122.113" y2="122.511" stroke="#2644BA" stroke-width="2"/>
<line x1="124.81" y1="127.658" x2="124.81" y2="125.085" stroke="#2644BA" stroke-width="2"/>
<line x1="127.75" y1="130.23" x2="127.75" y2="127.657" stroke="#2644BA" stroke-width="2"/>
<line x1="140.39" y1="131.23" x2="128.75" y2="131.23" stroke="#2644BA" stroke-width="2"/>
<line x1="169.262" y1="50.7222" x2="196.574" y2="50.7222" stroke="#2644BA" stroke-width="2"/>
<line x1="150.777" y1="53.9839" x2="164.295" y2="53.9839" stroke="#2644BA" stroke-width="2"/>
<line x1="150.777" y1="68.7385" x2="164.295" y2="68.7385" stroke="#2644BA" stroke-width="2"/>
<line x1="164.295" y1="56.824" x2="166.196" y2="56.824" stroke="#2644BA" stroke-width="2"/>
<line x1="164.295" y1="56.824" x2="166.196" y2="56.824" stroke="#2644BA" stroke-width="2"/>
<line x1="164.295" y1="56.824" x2="166.196" y2="56.824" stroke="#2644BA" stroke-width="2"/>
<line x1="164.295" y1="65.8577" x2="166.196" y2="65.8577" stroke="#2644BA" stroke-width="2"/>
<line x1="148.877" y1="56.824" x2="150.778" y2="56.824" stroke="#2644BA" stroke-width="2"/>
<line x1="148.877" y1="65.8577" x2="150.778" y2="65.8577" stroke="#2644BA" stroke-width="2"/>
<line x1="167.196" y1="57.824" x2="167.196" y2="64.0178" stroke="#2644BA" stroke-width="2"/>
<line x1="146.839" y1="57.824" x2="146.839" y2="64.0178" stroke="#2644BA" stroke-width="2"/>
<line x1="150.777" y1="53.9839" x2="164.295" y2="53.9839" stroke="#2644BA" stroke-width="2"/>
<line x1="150.777" y1="68.7385" x2="164.295" y2="68.7385" stroke="#2644BA" stroke-width="2"/>
<line x1="164.295" y1="56.824" x2="166.196" y2="56.824" stroke="#2644BA" stroke-width="2"/>
<line x1="164.295" y1="65.8577" x2="166.196" y2="65.8577" stroke="#2644BA" stroke-width="2"/>
<line x1="148.877" y1="56.824" x2="150.778" y2="56.824" stroke="#2644BA" stroke-width="2"/>
<line x1="148.877" y1="65.8577" x2="150.778" y2="65.8577" stroke="#2644BA" stroke-width="2"/>
<line x1="146.839" y1="57.824" x2="146.839" y2="64.0178" stroke="#2644BA" stroke-width="2"/>
<line x1="117.814" y1="53.938" x2="131.333" y2="53.938" stroke="#2644BA" stroke-width="2"/>
<line x1="117.814" y1="68.6931" x2="131.333" y2="68.6931" stroke="#2644BA" stroke-width="2"/>
<line x1="131.333" y1="56.7783" x2="133.234" y2="56.7783" stroke="#2644BA" stroke-width="2"/>
<line x1="131.333" y1="56.7783" x2="133.234" y2="56.7783" stroke="#2644BA" stroke-width="2"/>
<line x1="131.333" y1="56.7783" x2="133.234" y2="56.7783" stroke="#2644BA" stroke-width="2"/>
<line x1="131.333" y1="65.8118" x2="133.234" y2="65.8118" stroke="#2644BA" stroke-width="2"/>
<line x1="115.914" y1="56.7783" x2="117.815" y2="56.7783" stroke="#2644BA" stroke-width="2"/>
<line x1="115.914" y1="65.8118" x2="117.815" y2="65.8118" stroke="#2644BA" stroke-width="2"/>
<line x1="134.234" y1="57.7783" x2="134.234" y2="63.9721" stroke="#2644BA" stroke-width="2"/>
<line x1="113.876" y1="57.7783" x2="113.876" y2="63.9721" stroke="#2644BA" stroke-width="2"/>
<line x1="117.814" y1="53.938" x2="131.333" y2="53.938" stroke="#2644BA" stroke-width="2"/>
<line x1="117.814" y1="68.6931" x2="131.333" y2="68.6931" stroke="#2644BA" stroke-width="2"/>
<line x1="131.333" y1="56.7783" x2="133.234" y2="56.7783" stroke="#2644BA" stroke-width="2"/>
<line x1="131.333" y1="65.8118" x2="133.234" y2="65.8118" stroke="#2644BA" stroke-width="2"/>
<line x1="115.914" y1="56.7783" x2="117.815" y2="56.7783" stroke="#2644BA" stroke-width="2"/>
<line x1="115.914" y1="65.8118" x2="117.815" y2="65.8118" stroke="#2644BA" stroke-width="2"/>
<line x1="113.876" y1="57.7783" x2="113.876" y2="63.9721" stroke="#2644BA" stroke-width="2"/>
<line x1="124.44" y1="77.421" x2="128.45" y2="77.4735" stroke="#2644BA" stroke-width="2"/>
<line x1="144.78" y1="77.3678" x2="148.789" y2="77.4203" stroke="#2644BA" stroke-width="2"/>
<line x1="148.786" y1="80.1016" x2="152.795" y2="80.1542" stroke="#2644BA" stroke-width="2"/>
<line x1="120.431" y1="80.1549" x2="124.44" y2="80.2074" stroke="#2644BA" stroke-width="2"/>
<line x1="134.596" y1="67.9521" x2="136.601" y2="67.9521" stroke="#2644BA" stroke-width="2"/>
<line x1="139.945" y1="67.9521" x2="141.95" y2="67.9521" stroke="#2644BA" stroke-width="2"/>
<line x1="150.779" y1="61.9771" x2="161.54" y2="61.9771" stroke="#2644BA" stroke-width="2"/>
<line x1="117.674" y1="61.9771" x2="128.435" y2="61.9771" stroke="#2644BA" stroke-width="2"/>
</svg>
