<svg width="341" height="192" viewBox="0 0 341 192" fill="none" xmlns="http://www.w3.org/2000/svg">
<rect x="126.123" y="144.299" width="96.5976" height="89.4861" transform="rotate(-90 126.123 144.299)" stroke="#2644BA" stroke-width="2"/>
<rect x="115.955" y="157.524" width="13.225" height="109.822" transform="rotate(-90 115.955 157.524)" stroke="#2644BA" stroke-width="2"/>
<rect x="225.777" y="154.578" width="7.33423" height="4.67285" transform="rotate(-90 225.777 154.578)" stroke="#2644BA" stroke-width="2"/>
<rect x="111.282" y="154.578" width="7.33423" height="4.67285" transform="rotate(-90 111.282 154.578)" stroke="#2644BA" stroke-width="2"/>
<rect x="111.282" y="44.7559" width="7.33423" height="4.67285" transform="rotate(-90 111.282 44.7559)" stroke="#2644BA" stroke-width="2"/>
<rect x="225.777" y="44.7559" width="7.33423" height="4.67285" transform="rotate(-90 225.777 44.7559)" stroke="#2644BA" stroke-width="2"/>
<rect x="115.955" y="47.7013" width="13.225" height="109.822" transform="rotate(-90 115.955 47.7013)" stroke="#2644BA" stroke-width="2"/>
<rect x="134.07" y="59.3779" width="73.5916" height="7.06689" stroke="#2644BA" stroke-width="2"/>
<rect x="134.07" y="72.5078" width="73.5916" height="30.21" stroke="#2644BA" stroke-width="2"/>
<rect x="134.07" y="108.781" width="73.5916" height="6.67407" stroke="#2644BA" stroke-width="2"/>
<rect x="134.07" y="121.518" width="73.5916" height="11.1045" stroke="#2644BA" stroke-width="2"/>
</svg>
