<svg width="340" height="192" viewBox="0 0 340 192" fill="none" xmlns="http://www.w3.org/2000/svg">
<mask id="path-1-inside-1_71_717" fill="white">
<path fill-rule="evenodd" clip-rule="evenodd" d="M169.128 68.0746C169.685 66.998 170 65.7756 170 64.4796C170 60.1544 166.493 56.6482 162.168 56.6482C157.843 56.6482 154.337 60.1544 154.337 64.4796C154.337 66.1238 154.844 67.6497 155.709 68.9096L162.21 79.8003L168.711 68.785C168.854 68.5686 168.986 68.3447 169.107 68.114L169.13 68.0746L169.128 68.0746Z"/>
</mask>
<path d="M169.128 68.0746L167.352 67.1552L165.827 70.1012L169.144 70.0745L169.128 68.0746ZM155.709 68.9096L157.427 67.8845L157.394 67.8296L157.358 67.7769L155.709 68.9096ZM162.21 79.8003L160.493 80.8254L162.22 83.7188L163.933 80.8168L162.21 79.8003ZM168.711 68.785L167.041 67.6841L167.014 67.7256L166.989 67.7685L168.711 68.785ZM169.107 68.114L167.385 67.0974L167.359 67.1404L167.336 67.1845L169.107 68.114ZM169.13 68.0746L170.853 69.0911L172.65 66.0462L169.114 66.0746L169.13 68.0746ZM168 64.4796C168 65.4481 167.765 66.356 167.352 67.1552L170.904 68.994C171.605 67.6399 172 66.103 172 64.4796H168ZM162.168 58.6482C165.389 58.6482 168 61.259 168 64.4796H172C172 59.0499 167.598 54.6482 162.168 54.6482V58.6482ZM156.337 64.4796C156.337 61.259 158.948 58.6482 162.168 58.6482V54.6482C156.739 54.6482 152.337 59.0499 152.337 64.4796H156.337ZM157.358 67.7769C156.714 66.8397 156.337 65.7067 156.337 64.4796H152.337C152.337 66.541 152.974 68.4598 154.061 70.0423L157.358 67.7769ZM163.927 78.7752L157.427 67.8845L153.992 69.9347L160.493 80.8254L163.927 78.7752ZM166.989 67.7685L160.488 78.7838L163.933 80.8168L170.434 69.8015L166.989 67.7685ZM167.336 67.1845C167.246 67.3561 167.148 67.5228 167.041 67.6841L170.381 69.8859C170.56 69.6143 170.726 69.3332 170.878 69.0434L167.336 67.1845ZM167.408 67.058L167.385 67.0974L170.83 69.1305L170.853 69.0911L167.408 67.058ZM169.144 70.0745L169.146 70.0745L169.114 66.0746L169.112 66.0747L169.144 70.0745Z" fill="#2644BA" mask="url(#path-1-inside-1_71_717)"/>
<circle cx="162.169" cy="64.8717" r="3.29758" stroke="#2644BA" stroke-width="2"/>
<mask id="path-4-inside-2_71_717" fill="white">
<path fill-rule="evenodd" clip-rule="evenodd" d="M129.958 119.948C130.516 118.871 130.831 117.649 130.831 116.353C130.831 112.027 127.324 108.521 122.999 108.521C118.674 108.521 115.168 112.027 115.168 116.353C115.168 117.996 115.674 119.522 116.54 120.782L123.041 131.673L129.541 120.659C129.684 120.442 129.817 120.217 129.938 119.986L129.961 119.948L129.958 119.948Z"/>
</mask>
<path d="M129.958 119.948L128.182 119.028L126.657 121.975L129.975 121.948L129.958 119.948ZM116.54 120.782L118.257 119.757L118.224 119.702L118.188 119.649L116.54 120.782ZM123.041 131.673L121.324 132.698L123.051 135.592L124.763 132.69L123.041 131.673ZM129.541 120.659L127.872 119.558L127.844 119.599L127.819 119.642L129.541 120.659ZM129.938 119.986L128.216 118.97L128.191 119.013L128.167 119.057L129.938 119.986ZM129.961 119.948L131.684 120.964L133.481 117.919L129.945 117.948L129.961 119.948ZM128.831 116.353C128.831 117.321 128.596 118.229 128.182 119.028L131.735 120.867C132.436 119.513 132.831 117.976 132.831 116.353H128.831ZM122.999 110.521C126.22 110.521 128.831 113.132 128.831 116.353H132.831C132.831 110.923 128.429 106.521 122.999 106.521V110.521ZM117.168 116.353C117.168 113.132 119.779 110.521 122.999 110.521V106.521C117.569 106.521 113.168 110.923 113.168 116.353H117.168ZM118.188 119.649C117.544 118.712 117.168 117.579 117.168 116.353H113.168C113.168 118.414 113.804 120.332 114.891 121.914L118.188 119.649ZM124.758 130.648L118.257 119.757L114.822 121.807L121.324 132.698L124.758 130.648ZM127.819 119.642L121.318 130.657L124.763 132.69L131.264 121.675L127.819 119.642ZM128.167 119.057C128.077 119.229 127.978 119.396 127.872 119.558L131.211 121.76C131.391 121.488 131.557 121.206 131.709 120.915L128.167 119.057ZM128.239 118.931L128.216 118.97L131.661 121.003L131.684 120.964L128.239 118.931ZM129.975 121.948L129.978 121.948L129.945 117.948L129.942 117.948L129.975 121.948Z" fill="#2644BA" mask="url(#path-4-inside-2_71_717)"/>
<circle cx="123" cy="116.745" r="3.29758" stroke="#2644BA" stroke-width="2"/>
<mask id="path-7-inside-3_71_717" fill="white">
<path fill-rule="evenodd" clip-rule="evenodd" d="M234.591 107.427C235.148 106.35 235.463 105.128 235.463 103.832C235.463 99.5065 231.956 96.0002 227.631 96.0002C223.306 96.0002 219.8 99.5065 219.8 103.832C219.8 105.475 220.306 106.999 221.17 108.258L227.673 119.152L234.171 108.142C234.316 107.922 234.45 107.695 234.573 107.461L234.593 107.427L234.591 107.427Z"/>
</mask>
<path d="M234.591 107.427L232.814 106.507L231.289 109.454L234.607 109.427L234.591 107.427ZM221.17 108.258L222.887 107.233L222.855 107.179L222.819 107.127L221.17 108.258ZM227.673 119.152L225.955 120.177L227.682 123.071L229.395 120.169L227.673 119.152ZM234.171 108.142L232.502 107.04L232.474 107.082L232.449 107.125L234.171 108.142ZM234.573 107.461L232.85 106.445L232.825 106.488L232.801 106.533L234.573 107.461ZM234.593 107.427L236.315 108.443L238.113 105.397L234.576 105.427L234.593 107.427ZM233.463 103.832C233.463 104.8 233.228 105.708 232.814 106.507L236.367 108.346C237.068 106.992 237.463 105.455 237.463 103.832H233.463ZM227.631 98.0002C230.852 98.0002 233.463 100.611 233.463 103.832H237.463C237.463 98.4019 233.061 94.0002 227.631 94.0002V98.0002ZM221.8 103.832C221.8 100.611 224.411 98.0002 227.631 98.0002V94.0002C222.201 94.0002 217.8 98.4019 217.8 103.832H221.8ZM222.819 107.127C222.176 106.19 221.8 105.058 221.8 103.832H217.8C217.8 105.891 218.435 107.809 219.521 109.39L222.819 107.127ZM229.39 118.127L222.887 107.233L219.453 109.284L225.955 120.177L229.39 118.127ZM232.449 107.125L225.95 118.136L229.395 120.169L235.893 109.158L232.449 107.125ZM232.801 106.533C232.71 106.707 232.61 106.876 232.502 107.04L235.84 109.244C236.022 108.968 236.19 108.683 236.344 108.389L232.801 106.533ZM232.871 106.41L232.85 106.445L236.295 108.478L236.315 108.443L232.871 106.41ZM234.607 109.427L234.61 109.427L234.576 105.427L234.574 105.427L234.607 109.427Z" fill="#2644BA" mask="url(#path-7-inside-3_71_717)"/>
<circle cx="227.632" cy="104.224" r="3.29758" stroke="#2644BA" stroke-width="2"/>
<circle cx="151.582" cy="87.7356" r="1.75488" stroke="#2644BA" stroke-width="2"/>
<circle cx="185.143" cy="46.0859" r="1.75488" stroke="#2644BA" stroke-width="2"/>
<circle cx="201.382" cy="33.1467" r="1.75488" stroke="#2644BA" stroke-width="2"/>
<circle cx="201.382" cy="94.2759" r="1.75488" stroke="#2644BA" stroke-width="2"/>
<circle cx="219.021" cy="62.1167" r="1.75488" stroke="#2644BA" stroke-width="2"/>
<circle cx="146.67" cy="46.0859" r="1.75488" stroke="#2644BA" stroke-width="2"/>
<circle cx="149.425" cy="118.287" r="1.75488" stroke="#2644BA" stroke-width="2"/>
<circle cx="163.712" cy="110.331" r="1.75488" stroke="#2644BA" stroke-width="2"/>
<circle cx="130.83" cy="79.8003" r="1.75488" stroke="#2644BA" stroke-width="2"/>
<circle cx="190.652" cy="113.99" r="1.75488" stroke="#2644BA" stroke-width="2"/>
<mask id="path-20-inside-4_71_717" fill="white">
<path fill-rule="evenodd" clip-rule="evenodd" d="M221.689 167.047H233.093L228.394 163.688L227.055 162.987L225.716 162.774L224.175 163.021L223.663 163.757L221.689 167.047ZM241.047 163.162V24.9529H125.075L124.433 26.0568L123.47 26.2906L122.959 26.5793L122.905 27.7413L123.188 28.5526L123.531 28.9582L123.585 30.2921L123.356 30.4639L123.188 31.3302L123.073 32.334L122.818 33.2622V34.1904L122.508 34.2316L122.34 35.6823L121.997 36.3767L121.943 42.4065L121.976 43.1146L121.66 43.7403L121.546 45.0122L121.653 45.686L121.095 46.6898L120.132 46.8067L119.978 47.4736L119.453 48.2574L119.399 49.0687L118.948 49.5293L118.167 49.6531L117.454 49.8525L117.003 50.3131L116.566 50.98L116.532 52.3757L116.364 53.1595L114.419 56.8654L113.706 58.1235L113.383 59.4436L112.736 60.4337L112.312 62.2144L111.767 62.7369V63.5413L111.236 63.6376L110.495 64.0089L109.23 64.497L109.19 65.2258H108.45L107.804 65.1571L107.218 65.8858L107.09 66.7453L106.316 67.9347L105.213 70.1142L104.499 71.833L103.402 73.7444L102.561 75.2707L101.78 76.7902L101.006 78.179L99.8287 80.276L98.9875 81.1079L98.9529 81.1297V135.201L99.822 135.96L102.036 133.553L104.19 131.525L105.731 129.985L107.03 129.029L108.093 129.524L109.055 130.556L109.802 131.374L109.695 132.192L107.763 134.763L106.458 136.152L105.266 137.197L104.641 137.837L104.129 138.999L104.297 139.865L105.145 140.621L105.939 141.604L106.733 142.361H107.413L107.864 141.955L108.315 141.377L109.109 140.332L110.071 139.638L111.263 138.015L112.454 136.853L113.531 135.808L114.271 135.52L115.119 135.348L115.967 135.581L116.761 136.276L116.532 137.843L115.852 138.71L115.112 139.466L113.409 141.034L111.141 143.935L108.477 146.946L107.649 147.318L108.032 148.101L109.271 148.927L109.836 148.982L110.684 148.404L111.249 147.881H112.326L113.234 149.215L114.338 150.439L114.594 151.189L114.54 151.883L113.975 152.577L113.127 153.272L113.356 154.138L114.096 154.949L115.058 156.338L116.532 157.906L117.266 158.366L119.305 160.848L119.816 162.107L122.185 160.003L123.423 159.054L124.197 159.212L125.173 160.422L126.613 162.21L128.673 160.161L131.351 158.057L132.683 156.737L134.494 155.176V154.441L129.763 149.133L129.251 145.344L129.043 142.299L129.595 141.577L132.078 141.04L134.077 141.089L134.649 143.461L135.012 146.458L140.16 152.295L141.244 152.509L141.775 152.165L142.785 151.931L143.606 151.354L143.195 145.833L143.041 142.519L142.731 140.786V139.102L143.243 138.421L143.552 137.472L144.427 137.156L145.093 137.837L145.45 138.366L146.069 138.999L146.325 140.683L146.48 143.151L147.099 145.991L147.462 149.511L150.309 149.6L151.89 149.092L153.458 149.112L155.592 148.624L156.621 148.363L157.994 148.191L158.055 145.991L157.496 145.365L157.341 144.368L157.288 143.419L157.651 142.312L158.014 140.999L158.835 140.002L159.811 139.686L160.585 139.164L162.644 139.535L163.331 140.126L163.977 141.219L165.262 142.374L166.393 143.213L167.934 143.474L168.654 144.313L168.755 146.259H173.129L173.789 145.585L173.802 145.448L173.829 145.186L173.95 143.014L174.361 141.907L174.516 140.539L174.926 139.748L176.42 139.59L177.194 139.219L177.86 138.222L179.402 138.167L180.687 138.27L181.972 138.483L183.621 138.641L185.115 139.748L187.376 141.59L189.745 143.743L191.852 145.214L193.399 146.156L193.554 145.668L193.918 144.719L194.099 143.681L194.126 141.371L194.436 140.69L194.49 139.995L194.591 138.215L194.9 136.847L195.311 133.904L195.721 132.116L196.186 131.436L198.332 129.524L199.456 127.228L199.941 126.066L200.816 125.543L202.047 125.44L202.922 125.543L203.528 125.942L203.185 127.125L201.569 129.407L199.483 131.415L198.662 133.044L198.252 135.781L197.996 137.623L197.585 142.092L197.074 146.403V147.558L197.437 147.242L197.902 146.665H198.83L199.14 146.19L201.098 146.245L202.693 146.878L205.473 147.826L208.353 148.665L212.108 149.504L215.143 150.082L218.643 151.134L221.887 152.027L225.023 151.972L227.338 151.656L230.063 151.601L229.902 150.322L229.034 148.865L228.569 147.29L228.058 145.922L226.873 145.399L227.028 144.561L227.129 144.244L226.463 143.928L226.409 142.979L226.826 142.278L226.503 141.46L224.915 140.346L224.659 139.569L223.421 139.294L222.075 138.73L219.504 138.552L218.589 138.827L217.095 138.407L216.785 137.933L216.685 137.3L217.97 136.984L219.565 137.039L220.904 136.936H222.661L224.478 137.156L225.541 137.534L226.719 138.297L227.694 139.246L228.515 140.14L229.182 140.614L229.956 142.244L230.265 144.086L231.14 145.771L232.015 147.029L232.116 148.658L233.401 149.621L234.989 151.67L235.736 152.866L236.537 153.684L237.183 153.904L237.984 154.392L238.227 154.654L238.018 155.878L237.776 157.727L236.51 160.106L241.047 163.162ZM98.9529 150.194V167.047H107.366L106.168 164.719L103.9 160.278L99.5865 152.509L99.2971 150.831L98.9529 150.194ZM196.274 167.047L196.199 165.077L195.728 163.145L195.163 161.907L194.557 161.22L193.48 160.188L192.403 159.267L191.051 157.954L189.294 157.266L187.874 156.648L186.118 156.235L183.958 155.96L181.394 156.373L179.503 156.785L178.083 157.06L176.461 157.816L175.108 157.885L174.099 158.023L172.813 158.71L171.528 159.535L170.518 160.154L170.114 160.635V161.268L170.72 161.543L171.528 162.23L171.932 163.124L171.259 163.949L170.653 164.912H169.711L169.105 164.568L168.769 164.224L168.432 163.812L168.163 164.155L168.23 165.049L168.634 165.599L168.701 166.287L168.432 166.974L168.361 167.047H196.274ZM154.887 167.047H141.374L141.695 166.844L143.249 165.599L144.804 164.637L146.493 163.461L147.913 162.285L150.006 161.667L151.897 161.392L152.57 160.979L153.411 161.103L153.882 161.515L155.975 161.584L156.715 161.034L156.985 159.858L157.86 159.171L159.414 158.965H160.767L161.373 159.377L161.171 160.828L160.228 161.447L159.623 161.859L158.405 162.966L156.581 164.417L155.706 165.242L154.966 166.624L154.887 167.047ZM163.479 149.202H161.985L161.191 148.693L160.895 147.985V146.967L160.747 145.647L160.451 144.836L160.202 143.818L159.953 143.103L159.852 142.34L160 141.68L160.7 141.632L161.346 141.783L161.796 142.34L162.294 143.048L163.486 144.32L163.984 145.083L164.233 145.64L164.132 146.3L164.031 146.912L163.93 148.789L163.479 149.202Z"/>
</mask>
<path d="M233.093 167.047V169.047H239.328L234.256 165.42L233.093 167.047ZM221.689 167.047L219.974 166.018L218.156 169.047H221.689V167.047ZM228.394 163.688L229.558 162.061L229.445 161.98L229.322 161.916L228.394 163.688ZM227.055 162.987L227.983 161.215L227.693 161.063L227.369 161.012L227.055 162.987ZM225.716 162.774L226.03 160.798L225.714 160.748L225.399 160.799L225.716 162.774ZM224.175 163.021L223.858 161.046L223.018 161.181L222.533 161.879L224.175 163.021ZM223.663 163.757L222.021 162.615L221.983 162.67L221.948 162.728L223.663 163.757ZM241.047 24.9529H243.047V22.9529H241.047V24.9529ZM241.047 163.162L239.93 164.821L243.047 166.92V163.162H241.047ZM125.075 24.9529V22.9529H123.925L123.347 23.9468L125.075 24.9529ZM124.433 26.0568L124.905 28.0003L125.733 27.7992L126.161 27.0629L124.433 26.0568ZM123.47 26.2906L122.998 24.3471L122.729 24.4126L122.487 24.549L123.47 26.2906ZM122.959 26.5793L121.976 24.8377L121.012 25.3817L120.961 26.4868L122.959 26.5793ZM122.905 27.7413L120.907 27.6487L120.889 28.0345L121.016 28.3993L122.905 27.7413ZM123.188 28.5526L121.299 29.2106L121.421 29.5611L121.661 29.8444L123.188 28.5526ZM123.531 28.9582L125.529 28.8776L125.502 28.191L125.058 27.6664L123.531 28.9582ZM123.585 30.2921L124.786 31.8911L125.626 31.2605L125.583 30.2114L123.585 30.2921ZM123.356 30.4639L122.155 28.8649L121.539 29.3271L121.393 30.0826L123.356 30.4639ZM123.188 31.3302L121.224 30.9489L121.21 31.0259L121.201 31.1038L123.188 31.3302ZM123.073 32.334L125.002 32.8653L125.043 32.7152L125.061 32.5605L123.073 32.334ZM122.818 33.2622L120.889 32.731L120.818 32.9917V33.2622H122.818ZM122.818 34.1904L123.082 36.1729L124.818 35.9416V34.1904H122.818ZM122.508 34.2316L122.244 32.2492L120.701 32.4548L120.521 34.0012L122.508 34.2316ZM122.34 35.6823L124.133 36.5685L124.287 36.2574L124.327 35.9128L122.34 35.6823ZM121.997 36.3767L120.204 35.4906L120.001 35.901L119.997 36.3589L121.997 36.3767ZM121.943 42.4065L119.943 42.3886L119.942 42.445L119.945 42.5014L121.943 42.4065ZM121.976 43.1146L123.761 44.017L123.999 43.5464L123.974 43.0197L121.976 43.1146ZM121.66 43.7403L119.875 42.8379L119.702 43.1797L119.668 43.5611L121.66 43.7403ZM121.546 45.0122L119.554 44.8331L119.531 45.0815L119.571 45.3279L121.546 45.0122ZM121.653 45.686L123.401 46.6585L123.738 46.0538L123.628 45.3704L121.653 45.686ZM121.095 46.6898L121.336 48.6752L122.347 48.5524L122.842 47.6623L121.095 46.6898ZM120.132 46.8067L119.891 44.8213L118.501 44.9901L118.184 46.3545L120.132 46.8067ZM119.978 47.4736L121.639 48.5865L121.843 48.2824L121.926 47.9258L119.978 47.4736ZM119.453 48.2574L117.791 47.1445L117.493 47.59L117.457 48.125L119.453 48.2574ZM119.399 49.0687L120.828 50.4677L121.346 49.9391L121.395 49.2011L119.399 49.0687ZM118.948 49.5293L119.261 51.5047L119.915 51.4011L120.377 50.9283L118.948 49.5293ZM118.167 49.6531L117.854 47.6778L117.74 47.6958L117.629 47.7269L118.167 49.6531ZM117.454 49.8525L116.916 47.9263L116.4 48.0705L116.025 48.4535L117.454 49.8525ZM117.003 50.3131L115.574 48.9141L115.438 49.0533L115.331 49.2162L117.003 50.3131ZM116.566 50.98L114.893 49.8831L114.58 50.3608L114.566 50.9318L116.566 50.98ZM116.532 52.3757L118.487 52.7955L118.527 52.6118L118.531 52.4239L116.532 52.3757ZM116.364 53.1595L118.135 54.089L118.262 53.8467L118.319 53.5793L116.364 53.1595ZM114.419 56.8654L116.159 57.8518L116.175 57.8235L116.19 57.7948L114.419 56.8654ZM113.706 58.1235L111.966 57.1371L111.829 57.3786L111.763 57.6482L113.706 58.1235ZM113.383 59.4436L115.057 60.5366L115.244 60.2507L115.325 59.919L113.383 59.4436ZM112.736 60.4337L111.062 59.3407L110.871 59.632L110.791 59.9704L112.736 60.4337ZM112.312 62.2144L113.696 63.6582L114.122 63.2506L114.258 62.6776L112.312 62.2144ZM111.767 62.7369L110.383 61.2931L109.767 61.8836V62.7369H111.767ZM111.767 63.5413L112.124 65.5093L113.767 65.2118V63.5413H111.767ZM111.236 63.6376L110.879 61.6696L110.596 61.7208L110.339 61.8498L111.236 63.6376ZM110.495 64.0089L111.215 65.8748L111.306 65.84L111.392 65.7966L110.495 64.0089ZM109.23 64.497L108.51 62.6311L107.305 63.0962L107.233 64.3864L109.23 64.497ZM109.19 65.2258V67.2258H111.082L111.187 65.3364L109.19 65.2258ZM108.45 65.2258L108.238 67.2146L108.343 67.2258H108.45V65.2258ZM107.804 65.1571L108.015 63.1683L106.929 63.0527L106.244 63.9044L107.804 65.1571ZM107.218 65.8858L105.659 64.6332L105.32 65.0556L105.24 65.5915L107.218 65.8858ZM107.09 66.7453L108.767 67.836L109.004 67.4707L109.068 67.0396L107.09 66.7453ZM106.316 67.9347L104.64 66.8439L104.581 66.9346L104.532 67.0312L106.316 67.9347ZM105.213 70.1142L103.428 69.2106L103.394 69.2779L103.365 69.3475L105.213 70.1142ZM104.499 71.833L106.234 72.8285L106.297 72.7177L106.346 72.5997L104.499 71.833ZM103.402 73.7444L101.668 72.7489L101.659 72.7639L101.651 72.779L103.402 73.7444ZM102.561 75.2707L100.809 74.3053L100.795 74.3308L100.782 74.3567L102.561 75.2707ZM101.78 76.7902L103.527 77.7637L103.544 77.7342L103.559 77.7041L101.78 76.7902ZM101.006 78.179L102.75 79.1584L102.754 79.1525L101.006 78.179ZM99.8287 80.276L101.235 81.698L101.435 81.5004L101.573 81.2553L99.8287 80.276ZM98.9875 81.1079L100.054 82.7998L100.239 82.6834L100.394 82.53L98.9875 81.1079ZM98.9529 81.1297L97.8863 79.4378L96.9529 80.0263V81.1297H98.9529ZM98.9529 135.201H96.9529V136.11L97.6377 136.708L98.9529 135.201ZM99.822 135.96L98.5068 137.466L99.9746 138.748L101.294 137.314L99.822 135.96ZM102.036 133.553L100.665 132.097L100.613 132.146L100.564 132.199L102.036 133.553ZM104.19 131.525L105.561 132.981L105.582 132.961L105.603 132.94L104.19 131.525ZM105.731 129.985L104.545 128.374L104.424 128.463L104.317 128.57L105.731 129.985ZM107.03 129.029L107.874 127.216L106.799 126.716L105.844 127.418L107.03 129.029ZM108.093 129.524L109.555 128.16L109.29 127.875L108.937 127.711L108.093 129.524ZM109.055 130.556L110.532 129.207L110.525 129.199L110.518 129.191L109.055 130.556ZM109.802 131.374L111.785 131.635L111.907 130.712L111.279 130.025L109.802 131.374ZM109.695 132.192L111.294 133.393L111.609 132.973L111.677 132.453L109.695 132.192ZM107.763 134.763L109.22 136.133L109.296 136.053L109.362 135.964L107.763 134.763ZM106.458 136.152L107.777 137.656L107.849 137.592L107.915 137.522L106.458 136.152ZM105.266 137.197L103.947 135.694L103.89 135.744L103.837 135.798L105.266 137.197ZM104.641 137.837L103.211 136.438L102.957 136.698L102.81 137.031L104.641 137.837ZM104.129 138.999L102.299 138.193L102.046 138.765L102.166 139.38L104.129 138.999ZM104.297 139.865L102.334 140.246L102.463 140.908L102.966 141.357L104.297 139.865ZM105.145 140.621L106.701 139.364L106.598 139.237L106.477 139.129L105.145 140.621ZM105.939 141.604L104.384 142.861L104.466 142.963L104.56 143.053L105.939 141.604ZM106.733 142.361L105.354 143.809L105.933 144.361H106.733V142.361ZM107.413 142.361V144.361H108.18L108.751 143.847L107.413 142.361ZM107.864 141.955L109.202 143.442L109.332 143.324L109.441 143.186L107.864 141.955ZM108.315 141.377L109.891 142.608L109.899 142.598L109.907 142.587L108.315 141.377ZM109.109 140.332L107.939 138.71L107.697 138.885L107.517 139.122L109.109 140.332ZM110.071 139.638L111.242 141.26L111.497 141.075L111.684 140.821L110.071 139.638ZM111.263 138.015L109.866 136.584L109.748 136.699L109.65 136.832L111.263 138.015ZM112.454 136.853L111.061 135.418L111.057 135.422L112.454 136.853ZM113.531 135.808L112.804 133.945L112.427 134.092L112.138 134.373L113.531 135.808ZM114.271 135.52L113.873 133.559L113.705 133.594L113.544 133.656L114.271 135.52ZM115.119 135.348L115.65 133.42L115.19 133.293L114.721 133.388L115.119 135.348ZM115.967 135.581L117.283 134.076L116.939 133.775L116.498 133.653L115.967 135.581ZM116.761 136.276L118.74 136.565L118.897 135.487L118.077 134.77L116.761 136.276ZM116.532 137.843L118.106 139.078L118.434 138.659L118.511 138.132L116.532 137.843ZM115.852 138.71L117.282 140.109L117.358 140.03L117.426 139.944L115.852 138.71ZM115.112 139.466L116.467 140.937L116.505 140.902L116.541 140.865L115.112 139.466ZM113.409 141.034L112.055 139.562L111.934 139.673L111.834 139.802L113.409 141.034ZM111.141 143.935L112.639 145.26L112.68 145.215L112.717 145.167L111.141 143.935ZM108.477 146.946L109.295 148.771L109.688 148.595L109.974 148.272L108.477 146.946ZM107.649 147.318L106.83 145.493L104.943 146.339L105.852 148.197L107.649 147.318ZM108.032 148.101L106.236 148.981L106.474 149.466L106.923 149.766L108.032 148.101ZM109.271 148.927L108.162 150.591L108.578 150.869L109.077 150.917L109.271 148.927ZM109.836 148.982L109.642 150.972L110.363 151.042L110.962 150.635L109.836 148.982ZM110.684 148.404L111.81 150.057L111.932 149.973L112.041 149.873L110.684 148.404ZM111.249 147.881V145.881H110.466L109.892 146.413L111.249 147.881ZM112.326 147.881L113.979 146.756L113.384 145.881H112.326V147.881ZM113.234 149.215L111.581 150.341L111.658 150.454L111.749 150.555L113.234 149.215ZM114.338 150.439L116.231 149.793L116.098 149.405L115.823 149.1L114.338 150.439ZM114.594 151.189L116.588 151.343L116.62 150.932L116.487 150.543L114.594 151.189ZM114.54 151.883L116.091 153.146L116.486 152.661L116.534 152.038L114.54 151.883ZM113.975 152.577L115.242 154.125L115.398 153.997L115.526 153.84L113.975 152.577ZM113.127 153.272L111.86 151.724L110.865 152.539L111.193 153.783L113.127 153.272ZM113.356 154.138L111.422 154.649L111.547 155.123L111.878 155.486L113.356 154.138ZM114.096 154.949L115.74 153.81L115.664 153.7L115.573 153.601L114.096 154.949ZM115.058 156.338L113.414 157.477L113.499 157.6L113.601 157.708L115.058 156.338ZM116.532 157.906L115.075 159.276L115.251 159.463L115.468 159.599L116.532 157.906ZM117.266 158.366L118.811 157.097L118.605 156.846L118.329 156.673L117.266 158.366ZM119.305 160.848L121.157 160.095L121.043 159.814L120.85 159.579L119.305 160.848ZM119.816 162.107L117.963 162.86L119.029 165.481L121.144 163.602L119.816 162.107ZM122.185 160.003L120.969 158.415L120.911 158.459L120.857 158.507L122.185 160.003ZM123.423 159.054L123.824 157.094L122.931 156.912L122.207 157.466L123.423 159.054ZM124.197 159.212L125.754 157.957L125.302 157.397L124.598 157.253L124.197 159.212ZM125.173 160.422L126.731 159.167L126.73 159.167L125.173 160.422ZM126.613 162.21L125.056 163.464L126.449 165.194L128.024 163.628L126.613 162.21ZM128.673 160.161L127.437 158.588L127.345 158.66L127.262 158.743L128.673 160.161ZM131.351 158.057L132.586 159.63L132.677 159.559L132.759 159.478L131.351 158.057ZM132.683 156.737L131.378 155.222L131.325 155.267L131.276 155.316L132.683 156.737ZM134.494 155.176L135.8 156.691L136.494 156.093V155.176H134.494ZM134.494 154.441H136.494V153.679L135.987 153.11L134.494 154.441ZM129.763 149.133L127.781 149.4L127.863 150.007L128.27 150.464L129.763 149.133ZM129.251 145.344L127.256 145.481L127.26 145.547L127.269 145.612L129.251 145.344ZM129.043 142.299L127.454 141.084L126.996 141.683L127.047 142.435L129.043 142.299ZM129.595 141.577L129.172 139.622L128.453 139.777L128.006 140.362L129.595 141.577ZM132.078 141.04L132.126 139.041L131.888 139.035L131.656 139.086L132.078 141.04ZM134.077 141.089L136.021 140.62L135.661 139.126L134.125 139.089L134.077 141.089ZM134.649 143.461L136.634 143.22L136.62 143.105L136.593 142.992L134.649 143.461ZM135.012 146.458L133.027 146.699L133.101 147.315L133.512 147.781L135.012 146.458ZM140.16 152.295L138.66 153.618L139.109 154.127L139.774 154.258L140.16 152.295ZM141.244 152.509L140.858 154.471L141.651 154.627L142.33 154.188L141.244 152.509ZM141.775 152.165L141.324 150.216L140.983 150.295L140.689 150.485L141.775 152.165ZM142.785 151.931L143.236 153.88L143.616 153.791L143.936 153.567L142.785 151.931ZM143.606 151.354L144.757 152.989L145.685 152.337L145.6 151.205L143.606 151.354ZM143.195 145.833L141.198 145.926L141.199 145.953L141.201 145.981L143.195 145.833ZM143.041 142.519L145.038 142.425L145.032 142.295L145.009 142.167L143.041 142.519ZM142.731 140.786H140.731V140.963L140.762 141.138L142.731 140.786ZM142.731 139.102L141.132 137.9L140.731 138.434V139.102H142.731ZM143.243 138.421L144.841 139.622L145.041 139.357L145.144 139.041L143.243 138.421ZM143.552 137.472L142.872 135.591L141.954 135.923L141.651 136.852L143.552 137.472ZM144.427 137.156L145.856 135.757L144.957 134.838L143.747 135.275L144.427 137.156ZM145.093 137.837L146.752 136.719L146.65 136.568L146.522 136.438L145.093 137.837ZM145.45 138.366L143.791 139.483L143.893 139.635L144.021 139.765L145.45 138.366ZM146.069 138.999L148.046 138.698L147.95 138.061L147.498 137.6L146.069 138.999ZM146.325 140.683L148.321 140.558L148.315 140.47L148.302 140.383L146.325 140.683ZM146.48 143.151L144.483 143.276L144.493 143.428L144.525 143.577L146.48 143.151ZM147.099 145.991L149.088 145.785L149.077 145.674L149.053 145.565L147.099 145.991ZM147.462 149.511L145.473 149.716L145.652 151.455L147.399 151.51L147.462 149.511ZM150.309 149.6L150.246 151.599L150.592 151.61L150.921 151.504L150.309 149.6ZM151.89 149.092L151.917 147.092L151.589 147.087L151.278 147.188L151.89 149.092ZM153.458 149.112L153.432 151.112L153.671 151.115L153.904 151.062L153.458 149.112ZM155.592 148.624L156.038 150.574L156.061 150.568L156.084 150.563L155.592 148.624ZM156.621 148.363L156.373 146.378L156.25 146.394L156.129 146.424L156.621 148.363ZM157.994 148.191L158.243 150.175L159.946 149.962L159.993 148.246L157.994 148.191ZM158.055 145.991L160.054 146.046L160.076 145.252L159.547 144.659L158.055 145.991ZM157.496 145.365L155.52 145.672L155.611 146.256L156.004 146.697L157.496 145.365ZM157.341 144.368L155.345 144.481L155.35 144.579L155.365 144.675L157.341 144.368ZM157.288 143.419L155.387 142.796L155.269 143.155L155.291 143.533L157.288 143.419ZM157.651 142.312L159.551 142.936L159.566 142.891L159.578 142.846L157.651 142.312ZM158.014 140.999L156.471 139.728L156.2 140.056L156.087 140.466L158.014 140.999ZM158.835 140.002L158.219 138.1L157.663 138.28L157.292 138.731L158.835 140.002ZM159.811 139.686L160.428 141.589L160.696 141.502L160.93 141.344L159.811 139.686ZM160.585 139.164L160.94 137.195L160.14 137.051L159.466 137.506L160.585 139.164ZM162.644 139.535L163.95 138.019L163.536 137.663L162.999 137.567L162.644 139.535ZM163.331 140.126L165.053 139.109L164.885 138.825L164.636 138.611L163.331 140.126ZM163.977 141.219L162.255 142.237L162.412 142.501L162.64 142.707L163.977 141.219ZM165.262 142.374L163.926 143.862L163.995 143.925L164.071 143.981L165.262 142.374ZM166.393 143.213L165.201 144.819L165.586 145.105L166.059 145.185L166.393 143.213ZM167.934 143.474L169.452 142.172L168.981 141.623L168.268 141.503L167.934 143.474ZM168.654 144.313L170.651 144.21L170.616 143.528L170.172 143.01L168.654 144.313ZM168.755 146.259L166.758 146.363L166.856 148.259H168.755V146.259ZM173.129 146.259V148.259H173.97L174.559 147.658L173.129 146.259ZM173.789 145.585L175.218 146.984L175.711 146.481L175.779 145.78L173.789 145.585ZM173.802 145.448L171.813 145.243L171.812 145.253L173.802 145.448ZM173.829 145.186L175.819 145.391L175.824 145.345L175.826 145.298L173.829 145.186ZM173.95 143.014L172.075 142.318L171.97 142.601L171.954 142.902L173.95 143.014ZM174.361 141.907L176.236 142.602L176.321 142.374L176.348 142.132L174.361 141.907ZM174.516 140.539L172.741 139.617L172.57 139.946L172.528 140.314L174.516 140.539ZM174.926 139.748L174.716 137.759L173.647 137.872L173.151 138.826L174.926 139.748ZM176.42 139.59L176.631 141.579L176.974 141.542L177.285 141.393L176.42 139.59ZM177.194 139.219L178.059 141.022L178.553 140.785L178.857 140.33L177.194 139.219ZM177.86 138.222L177.789 136.223L176.766 136.259L176.198 137.11L177.86 138.222ZM179.402 138.167L179.561 136.173L179.446 136.164L179.33 136.168L179.402 138.167ZM180.687 138.27L181.014 136.297L180.931 136.283L180.847 136.276L180.687 138.27ZM181.972 138.483L181.645 140.456L181.713 140.467L181.781 140.474L181.972 138.483ZM183.621 138.641L184.812 137.034L184.365 136.703L183.812 136.65L183.621 138.641ZM185.115 139.748L186.379 138.197L186.343 138.168L186.306 138.141L185.115 139.748ZM187.376 141.59L188.721 140.11L188.681 140.074L188.64 140.04L187.376 141.59ZM189.745 143.743L188.4 145.223L188.495 145.309L188.6 145.382L189.745 143.743ZM191.852 145.214L190.706 146.853L190.758 146.89L190.812 146.922L191.852 145.214ZM193.399 146.156L192.36 147.864L194.536 149.189L195.306 146.76L193.399 146.156ZM193.554 145.668L191.687 144.952L191.666 145.007L191.648 145.063L193.554 145.668ZM193.918 144.719L195.785 145.434L195.854 145.254L195.888 145.064L193.918 144.719ZM194.099 143.681L196.069 144.025L196.097 143.866L196.099 143.704L194.099 143.681ZM194.126 141.371L192.306 140.543L192.131 140.926L192.126 141.347L194.126 141.371ZM194.436 140.69L196.256 141.518L196.403 141.196L196.43 140.844L194.436 140.69ZM194.49 139.995L196.484 140.15L196.485 140.129L196.487 140.109L194.49 139.995ZM194.591 138.215L192.64 137.773L192.603 137.936L192.594 138.102L194.591 138.215ZM194.9 136.847L196.851 137.288L196.869 137.206L196.881 137.123L194.9 136.847ZM195.311 133.904L193.361 133.456L193.342 133.541L193.33 133.628L195.311 133.904ZM195.721 132.116L194.069 130.989L193.856 131.301L193.772 131.669L195.721 132.116ZM196.186 131.436L194.856 129.942L194.672 130.105L194.533 130.308L196.186 131.436ZM198.332 129.524L199.662 131.018L199.956 130.757L200.129 130.403L198.332 129.524ZM199.456 127.228L201.253 128.107L201.279 128.053L201.302 127.998L199.456 127.228ZM199.941 126.066L198.915 124.349L198.349 124.687L198.095 125.296L199.941 126.066ZM200.816 125.543L200.649 123.55L200.188 123.589L199.79 123.826L200.816 125.543ZM202.047 125.44L202.281 123.454L202.081 123.43L201.88 123.447L202.047 125.44ZM202.922 125.543L204.022 123.873L203.626 123.613L203.156 123.557L202.922 125.543ZM203.528 125.942L205.449 126.5L205.86 125.083L204.628 124.272L203.528 125.942ZM203.185 127.125L204.817 128.28L205.012 128.005L205.105 127.682L203.185 127.125ZM201.569 129.407L202.956 130.848L203.093 130.717L203.202 130.563L201.569 129.407ZM199.483 131.415L198.096 129.974L197.851 130.21L197.697 130.515L199.483 131.415ZM198.662 133.044L196.876 132.144L196.732 132.431L196.684 132.748L198.662 133.044ZM198.252 135.781L196.274 135.484L196.272 135.495L196.271 135.506L198.252 135.781ZM197.996 137.623L196.015 137.348L196.009 137.394L196.004 137.44L197.996 137.623ZM197.585 142.092L199.571 142.328L199.575 142.302L199.577 142.275L197.585 142.092ZM197.074 146.403L195.088 146.168L195.074 146.285V146.403H197.074ZM197.074 147.558H195.074V151.951L198.387 149.067L197.074 147.558ZM197.437 147.242L198.75 148.751L198.885 148.634L198.996 148.495L197.437 147.242ZM197.902 146.665V144.665H196.943L196.343 145.411L197.902 146.665ZM198.83 146.665V148.665H199.913L200.505 147.757L198.83 146.665ZM199.14 146.19L199.196 144.191L198.077 144.159L197.465 145.097L199.14 146.19ZM201.098 146.245L201.836 144.386L201.507 144.256L201.154 144.246L201.098 146.245ZM202.693 146.878L201.956 148.737L202.001 148.755L202.047 148.77L202.693 146.878ZM205.473 147.826L204.827 149.719L204.87 149.734L204.913 149.747L205.473 147.826ZM208.353 148.665L207.794 150.585L207.855 150.603L207.917 150.617L208.353 148.665ZM212.108 149.504L211.672 151.456L211.703 151.463L211.734 151.469L212.108 149.504ZM215.143 150.082L215.719 148.166L215.619 148.136L215.517 148.117L215.143 150.082ZM218.643 151.134L218.067 153.049L218.089 153.056L218.112 153.062L218.643 151.134ZM221.887 152.027L221.355 153.955L221.633 154.032L221.922 154.027L221.887 152.027ZM225.023 151.972L225.058 153.972L225.176 153.97L225.293 153.954L225.023 151.972ZM227.338 151.656L227.297 149.656L227.182 149.659L227.067 149.674L227.338 151.656ZM230.063 151.601L230.104 153.601L232.326 153.556L232.048 151.35L230.063 151.601ZM229.902 150.322L231.886 150.072L231.834 149.657L231.62 149.299L229.902 150.322ZM229.034 148.865L227.115 149.43L227.187 149.672L227.315 149.888L229.034 148.865ZM228.569 147.29L230.488 146.724L230.467 146.656L230.443 146.59L228.569 147.29ZM228.058 145.922L229.931 145.222L229.636 144.432L228.865 144.092L228.058 145.922ZM226.873 145.399L224.907 145.037L224.62 146.591L226.066 147.229L226.873 145.399ZM227.028 144.561L225.123 143.952L225.084 144.073L225.061 144.198L227.028 144.561ZM227.129 144.244L229.034 144.853L229.566 143.187L227.987 142.438L227.129 144.244ZM226.463 143.928L224.466 144.041L224.533 145.226L225.605 145.735L226.463 143.928ZM226.409 142.979L224.69 141.957L224.378 142.482L224.412 143.093L226.409 142.979ZM226.826 142.278L228.545 143.301L229.047 142.457L228.687 141.544L226.826 142.278ZM226.503 141.46L228.363 140.725L228.143 140.167L227.652 139.822L226.503 141.46ZM224.915 140.346L223.015 140.971L223.223 141.602L223.767 141.984L224.915 140.346ZM224.659 139.569L226.559 138.944L226.203 137.863L225.093 137.617L224.659 139.569ZM223.421 139.294L222.648 141.139L222.813 141.208L222.987 141.247L223.421 139.294ZM222.075 138.73L222.848 136.886L222.543 136.758L222.214 136.735L222.075 138.73ZM219.504 138.552L219.643 136.556L219.279 136.531L218.929 136.636L219.504 138.552ZM218.589 138.827L218.049 140.752L218.608 140.909L219.165 140.742L218.589 138.827ZM217.095 138.407L215.42 139.5L215.831 140.13L216.554 140.333L217.095 138.407ZM216.785 137.933L214.81 138.248L214.878 138.669L215.111 139.026L216.785 137.933ZM216.685 137.3L216.207 135.358L214.419 135.798L214.709 137.615L216.685 137.3ZM217.97 136.984L218.039 134.985L217.761 134.976L217.492 135.042L217.97 136.984ZM219.565 137.039L219.496 139.038L219.607 139.042L219.718 139.033L219.565 137.039ZM220.904 136.936V134.936H220.827L220.751 134.942L220.904 136.936ZM222.661 136.936L222.901 134.95L222.781 134.936H222.661V136.936ZM224.478 137.156L225.148 135.272L224.938 135.197L224.718 135.17L224.478 137.156ZM225.541 137.534L226.629 135.856L226.432 135.728L226.211 135.65L225.541 137.534ZM226.719 138.297L228.113 136.863L227.972 136.726L227.806 136.619L226.719 138.297ZM227.694 139.246L229.167 137.893L229.129 137.851L229.089 137.812L227.694 139.246ZM228.515 140.14L227.043 141.493L227.184 141.647L227.355 141.769L228.515 140.14ZM229.182 140.614L230.988 139.756L230.765 139.287L230.342 138.985L229.182 140.614ZM229.956 142.244L231.928 141.912L231.882 141.637L231.762 141.386L229.956 142.244ZM230.265 144.086L228.293 144.418L228.345 144.728L228.49 145.008L230.265 144.086ZM231.14 145.771L229.365 146.693L229.424 146.807L229.498 146.913L231.14 145.771ZM232.015 147.029L234.011 146.905L233.976 146.347L233.657 145.887L232.015 147.029ZM232.116 148.658L230.12 148.782L230.177 149.705L230.917 150.259L232.116 148.658ZM233.401 149.621L234.982 148.396L234.816 148.182L234.6 148.02L233.401 149.621ZM234.989 151.67L236.686 150.611L236.632 150.525L236.57 150.444L234.989 151.67ZM235.736 152.866L234.04 153.925L234.155 154.11L234.307 154.265L235.736 152.866ZM236.537 153.684L235.108 155.083L235.441 155.424L235.893 155.578L236.537 153.684ZM237.183 153.904L238.224 152.197L238.036 152.082L237.828 152.011L237.183 153.904ZM237.984 154.392L239.451 153.032L239.262 152.829L239.025 152.685L237.984 154.392ZM238.227 154.654L240.198 154.99L240.364 154.017L239.693 153.294L238.227 154.654ZM238.018 155.878L236.046 155.541L236.04 155.579L236.035 155.618L238.018 155.878ZM237.776 157.727L239.541 158.666L239.712 158.346L239.759 157.987L237.776 157.727ZM236.51 160.106L234.745 159.167L233.898 160.758L235.393 161.765L236.51 160.106ZM98.9529 167.047H96.9529V169.047H98.9529V167.047ZM98.9529 150.194L100.712 149.243L96.9529 150.194H98.9529ZM107.366 167.047V169.047H110.645L109.145 166.132L107.366 167.047ZM106.168 164.719L104.387 165.629L104.39 165.635L106.168 164.719ZM103.9 160.278L105.681 159.368L105.666 159.337L105.649 159.307L103.9 160.278ZM99.5865 152.509L97.6156 152.849L97.6733 153.183L97.8379 153.479L99.5865 152.509ZM99.2971 150.831L101.268 150.491L101.212 150.168L101.056 149.88L99.2971 150.831ZM196.274 167.047V169.047H198.352L198.273 166.971L196.274 167.047ZM196.199 165.077L198.198 165L198.19 164.799L198.142 164.603L196.199 165.077ZM195.728 163.145L197.671 162.671L197.626 162.487L197.547 162.314L195.728 163.145ZM195.163 161.907L196.982 161.076L196.859 160.807L196.663 160.585L195.163 161.907ZM194.557 161.22L196.058 159.898L196.002 159.834L195.94 159.775L194.557 161.22ZM193.48 160.188L194.864 158.744L194.823 158.705L194.78 158.669L193.48 160.188ZM192.403 159.267L191.01 160.702L191.055 160.746L191.103 160.787L192.403 159.267ZM191.051 157.954L192.444 156.519L192.155 156.238L191.78 156.092L191.051 157.954ZM189.294 157.266L188.495 159.1L188.53 159.115L188.565 159.129L189.294 157.266ZM187.874 156.648L188.673 154.814L188.508 154.742L188.332 154.701L187.874 156.648ZM186.118 156.235L186.575 154.288L186.474 154.264L186.37 154.251L186.118 156.235ZM183.958 155.96L184.21 153.976L183.924 153.94L183.64 153.985L183.958 155.96ZM181.394 156.373L181.076 154.398L181.021 154.407L180.967 154.419L181.394 156.373ZM179.503 156.785L179.883 158.749L179.906 158.744L179.929 158.739L179.503 156.785ZM178.083 157.06L177.702 155.097L177.46 155.143L177.237 155.247L178.083 157.06ZM176.461 157.816L176.562 159.814L176.952 159.794L177.306 159.629L176.461 157.816ZM175.108 157.885L175.006 155.888L174.922 155.892L174.838 155.903L175.108 157.885ZM174.099 158.023L173.829 156.041L173.472 156.09L173.155 156.259L174.099 158.023ZM172.813 158.71L171.87 156.947L171.8 156.984L171.733 157.027L172.813 158.71ZM171.528 159.535L172.573 161.24L172.591 161.23L172.608 161.218L171.528 159.535ZM170.518 160.154L169.473 158.449L169.195 158.619L168.986 158.869L170.518 160.154ZM170.114 160.635L168.582 159.35L168.114 159.907V160.635H170.114ZM170.114 161.268H168.114V162.556L169.288 163.089L170.114 161.268ZM170.72 161.543L172.017 160.02L171.803 159.838L171.547 159.722L170.72 161.543ZM171.528 162.23L173.35 161.407L173.166 160.998L172.824 160.708L171.528 162.23ZM171.932 163.124L173.481 164.388L174.264 163.429L173.754 162.301L171.932 163.124ZM171.259 163.949L169.709 162.685L169.631 162.78L169.566 162.884L171.259 163.949ZM170.653 164.912V166.912H171.757L172.346 165.977L170.653 164.912ZM169.711 164.912L168.723 166.651L169.183 166.912H169.711V164.912ZM169.105 164.568L167.676 165.967L167.873 166.168L168.118 166.307L169.105 164.568ZM168.769 164.224L167.219 165.488L167.276 165.559L167.339 165.623L168.769 164.224ZM168.432 163.812L169.982 162.548L168.4 160.608L166.857 162.579L168.432 163.812ZM168.163 164.155L166.588 162.922L166.11 163.533L166.168 164.306L168.163 164.155ZM168.23 165.049L166.236 165.199L166.279 165.771L166.618 166.233L168.23 165.049ZM168.634 165.599L170.624 165.404L170.571 164.858L170.246 164.416L168.634 165.599ZM168.701 166.287L170.564 167.016L170.738 166.569L170.692 166.092L168.701 166.287ZM168.432 166.974L169.861 168.373L170.146 168.083L170.294 167.704L168.432 166.974ZM168.361 167.047L166.931 165.648L163.604 169.047H168.361V167.047ZM154.887 167.047V169.047H156.55L156.854 167.412L154.887 167.047ZM141.374 167.047L140.302 165.359L134.498 169.047H141.374V167.047ZM141.695 166.844L142.767 168.532L142.859 168.473L142.945 168.405L141.695 166.844ZM143.249 165.599L142.196 163.899L142.094 163.962L141.999 164.038L143.249 165.599ZM144.804 164.637L145.857 166.337L145.902 166.309L145.946 166.278L144.804 164.637ZM146.493 163.461L147.636 165.103L147.704 165.055L147.768 165.002L146.493 163.461ZM147.913 162.285L147.346 160.367L146.953 160.484L146.637 160.745L147.913 162.285ZM150.006 161.667L149.718 159.687L149.576 159.708L149.439 159.749L150.006 161.667ZM151.897 161.392L152.185 163.371L152.592 163.312L152.942 163.097L151.897 161.392ZM152.57 160.979L152.861 159L152.143 158.895L151.525 159.274L152.57 160.979ZM153.411 161.103L154.729 159.598L154.285 159.21L153.702 159.124L153.411 161.103ZM153.882 161.515L152.565 163.02L153.102 163.491L153.817 163.514L153.882 161.515ZM155.975 161.584L155.91 163.583L156.608 163.606L157.168 163.189L155.975 161.584ZM156.715 161.034L157.908 162.639L158.5 162.199L158.665 161.48L156.715 161.034ZM156.985 159.858L155.749 158.286L155.193 158.723L155.035 159.412L156.985 159.858ZM157.86 159.171L157.597 157.188L157.054 157.26L156.624 157.598L157.86 159.171ZM159.414 158.965V156.965H159.282L159.151 156.982L159.414 158.965ZM160.767 158.965L161.893 157.312L161.383 156.965H160.767V158.965ZM161.373 159.377L163.353 159.653L163.525 158.423L162.498 157.724L161.373 159.377ZM161.171 160.828L162.269 162.499L163.027 162.002L163.152 161.103L161.171 160.828ZM160.228 161.447L159.131 159.775L159.116 159.784L159.103 159.794L160.228 161.447ZM159.623 161.859L158.497 160.206L158.381 160.285L158.278 160.379L159.623 161.859ZM158.405 162.966L159.65 164.531L159.701 164.49L159.75 164.446L158.405 162.966ZM156.581 164.417L155.336 162.852L155.27 162.904L155.209 162.962L156.581 164.417ZM155.706 165.242L154.334 163.787L154.097 164.01L153.943 164.297L155.706 165.242ZM154.966 166.624L153.203 165.679L153.056 165.953L152.999 166.259L154.966 166.624ZM161.985 149.202L160.906 150.886L161.399 151.202H161.985V149.202ZM163.479 149.202V151.202H164.256L164.829 150.677L163.479 149.202ZM161.191 148.693L159.346 149.464L159.586 150.04L160.112 150.377L161.191 148.693ZM160.895 147.985H158.895V148.386L159.05 148.756L160.895 147.985ZM160.895 146.967H162.895V146.855L162.882 146.744L160.895 146.967ZM160.747 145.647L162.734 145.424L162.707 145.186L162.625 144.961L160.747 145.647ZM160.451 144.836L158.508 145.311L158.534 145.418L158.572 145.521L160.451 144.836ZM160.202 143.818L162.144 143.343L162.122 143.25L162.09 143.16L160.202 143.818ZM159.953 143.103L157.97 143.365L157.997 143.568L158.064 143.761L159.953 143.103ZM159.852 142.34L157.9 141.902L157.822 142.249L157.869 142.602L159.852 142.34ZM160 141.68L159.862 139.685L158.375 139.787L158.048 141.242L160 141.68ZM160.7 141.632L161.155 139.684L160.862 139.616L160.562 139.636L160.7 141.632ZM161.346 141.783L162.9 140.525L162.469 139.992L161.802 139.836L161.346 141.783ZM161.796 142.34L163.432 141.189L163.394 141.134L163.351 141.081L161.796 142.34ZM162.294 143.048L160.659 144.199L160.739 144.313L160.835 144.415L162.294 143.048ZM163.486 144.32L165.161 143.227L165.065 143.081L164.945 142.953L163.486 144.32ZM163.984 145.083L165.809 144.267L165.745 144.123L165.659 143.99L163.984 145.083ZM164.233 145.64L166.21 145.942L166.299 145.361L166.058 144.824L164.233 145.64ZM164.132 146.3L166.105 146.626L166.107 146.614L166.109 146.603L164.132 146.3ZM164.031 146.912L162.057 146.587L162.04 146.695L162.034 146.805L164.031 146.912ZM163.93 148.789L165.28 150.265L165.883 149.713L165.927 148.896L163.93 148.789ZM233.093 165.047H221.689V169.047H233.093V165.047ZM234.256 165.42L229.558 162.061L227.231 165.315L231.929 168.674L234.256 165.42ZM229.322 161.916L227.983 161.215L226.127 164.758L227.467 165.46L229.322 161.916ZM227.369 161.012L226.03 160.798L225.401 164.749L226.741 164.962L227.369 161.012ZM225.399 160.799L223.858 161.046L224.492 164.996L226.033 164.748L225.399 160.799ZM222.533 161.879L222.021 162.615L225.305 164.898L225.817 164.163L222.533 161.879ZM221.948 162.728L219.974 166.018L223.404 168.076L225.378 164.786L221.948 162.728ZM239.047 24.9529V163.162H243.047V24.9529H239.047ZM125.075 26.9529H241.047V22.9529H125.075V26.9529ZM123.347 23.9468L122.704 25.0508L126.161 27.0629L126.804 25.9589L123.347 23.9468ZM123.961 24.1133L122.998 24.3471L123.943 28.2341L124.905 28.0003L123.961 24.1133ZM122.487 24.549L121.976 24.8377L123.942 28.3209L124.454 28.0322L122.487 24.549ZM120.961 26.4868L120.907 27.6487L124.903 27.8339L124.957 26.6719L120.961 26.4868ZM121.016 28.3993L121.299 29.2106L125.076 27.8946L124.794 27.0833L121.016 28.3993ZM121.661 29.8444L122.004 30.2501L125.058 27.6664L124.715 27.2607L121.661 29.8444ZM121.533 29.0389L121.586 30.3727L125.583 30.2114L125.529 28.8776L121.533 29.0389ZM122.384 28.693L122.155 28.8649L124.557 32.063L124.786 31.8911L122.384 28.693ZM121.393 30.0826L121.224 30.9489L125.151 31.7115L125.319 30.8452L121.393 30.0826ZM121.201 31.1038L121.086 32.1076L125.061 32.5605L125.175 31.5567L121.201 31.1038ZM121.145 31.8028L120.889 32.731L124.746 33.7935L125.002 32.8653L121.145 31.8028ZM120.818 33.2622V34.1904H124.818V33.2622H120.818ZM122.553 32.2079L122.244 32.2492L122.772 36.2141L123.082 36.1729L122.553 32.2079ZM120.521 34.0012L120.353 35.4519L124.327 35.9128L124.495 34.462L120.521 34.0012ZM120.547 34.7962L120.204 35.4906L123.79 37.2629L124.133 36.5685L120.547 34.7962ZM119.997 36.3589L119.943 42.3886L123.943 42.4243L123.997 36.3946L119.997 36.3589ZM119.945 42.5014L119.979 43.2095L123.974 43.0197L123.941 42.3115L119.945 42.5014ZM120.192 42.2123L119.875 42.8379L123.445 44.6426L123.761 44.017L120.192 42.2123ZM119.668 43.5611L119.554 44.8331L123.538 45.1914L123.652 43.9194L119.668 43.5611ZM119.571 45.3279L119.678 46.0016L123.628 45.3704L123.521 44.6966L119.571 45.3279ZM119.906 44.7135L119.347 45.7173L122.842 47.6623L123.401 46.6585L119.906 44.7135ZM120.854 44.7044L119.891 44.8213L120.374 48.7921L121.336 48.6752L120.854 44.7044ZM118.184 46.3545L118.029 47.0214L121.926 47.9258L122.081 47.2589L118.184 46.3545ZM118.316 46.3607L117.791 47.1445L121.115 49.3703L121.639 48.5865L118.316 46.3607ZM117.457 48.125L117.403 48.9363L121.395 49.2011L121.448 48.3898L117.457 48.125ZM117.97 47.6697L117.519 48.1303L120.377 50.9283L120.828 50.4677L117.97 47.6697ZM118.635 47.554L117.854 47.6778L118.481 51.6284L119.261 51.5047L118.635 47.554ZM117.629 47.7269L116.916 47.9263L117.992 51.7787L118.706 51.5793L117.629 47.7269ZM116.025 48.4535L115.574 48.9141L118.432 51.7121L118.883 51.2515L116.025 48.4535ZM115.331 49.2162L114.893 49.8831L118.238 52.0769L118.675 51.41L115.331 49.2162ZM114.566 50.9318L114.533 52.3275L118.531 52.4239L118.565 51.0282L114.566 50.9318ZM114.577 51.956L114.408 52.7398L118.319 53.5793L118.487 52.7955L114.577 51.956ZM114.593 52.2301L112.648 55.9359L116.19 57.7948L118.135 54.089L114.593 52.2301ZM112.679 55.8789L111.966 57.1371L115.445 59.11L116.159 57.8518L112.679 55.8789ZM111.763 57.6482L111.44 58.9683L115.325 59.919L115.648 58.5989L111.763 57.6482ZM111.708 58.3506L111.062 59.3407L114.411 61.5267L115.057 60.5366L111.708 58.3506ZM110.791 59.9704L110.367 61.7512L114.258 62.6776L114.682 60.8969L110.791 59.9704ZM110.928 60.7706L110.383 61.2931L113.151 64.1807L113.696 63.6582L110.928 60.7706ZM109.767 62.7369V63.5413H113.767V62.7369H109.767ZM111.411 61.5733L110.879 61.6696L111.592 65.6056L112.124 65.5093L111.411 61.5733ZM110.339 61.8498L109.599 62.2211L111.392 65.7966L112.132 65.4253L110.339 61.8498ZM109.776 62.1429L108.51 62.6311L109.95 66.3629L111.215 65.8748L109.776 62.1429ZM107.233 64.3864L107.193 65.1152L111.187 65.3364L111.227 64.6077L107.233 64.3864ZM109.19 63.2258H108.45V67.2258H109.19V63.2258ZM108.661 63.237L108.015 63.1683L107.592 67.1458L108.238 67.2146L108.661 63.237ZM106.244 63.9044L105.659 64.6332L108.777 67.1384L109.363 66.4097L106.244 63.9044ZM105.24 65.5915L105.112 66.4509L109.068 67.0396L109.196 66.1802L105.24 65.5915ZM105.414 65.6545L104.64 66.8439L107.993 69.0255L108.767 67.836L105.414 65.6545ZM104.532 67.0312L103.428 69.2106L106.997 71.0177L108.101 68.8382L104.532 67.0312ZM103.365 69.3475L102.652 71.0664L106.346 72.5997L107.06 70.8808L103.365 69.3475ZM102.765 70.8375L101.668 72.7489L105.137 74.7399L106.234 72.8285L102.765 70.8375ZM101.651 72.779L100.809 74.3053L104.313 76.2361L105.154 74.7097L101.651 72.779ZM100.782 74.3567L100.001 75.8762L103.559 77.7041L104.34 76.1847L100.782 74.3567ZM100.033 75.8166L99.2594 77.2055L102.754 79.1525L103.527 77.7637L100.033 75.8166ZM99.2626 77.1996L98.0849 79.2966L101.573 81.2553L102.75 79.1584L99.2626 77.1996ZM98.4224 78.8539L97.5812 79.6858L100.394 82.53L101.235 81.698L98.4224 78.8539ZM97.921 79.416L97.8863 79.4378L100.019 82.8216L100.054 82.7998L97.921 79.416ZM100.953 135.201V81.1297H96.9529V135.201H100.953ZM97.6377 136.708L98.5068 137.466L101.137 134.453L100.268 133.694L97.6377 136.708ZM101.294 137.314L103.508 134.907L100.564 132.199L98.3502 134.605L101.294 137.314ZM103.407 135.009L105.561 132.981L102.818 130.069L100.665 132.097L103.407 135.009ZM105.603 132.94L107.144 131.4L104.317 128.57L102.776 130.11L105.603 132.94ZM106.916 131.596L108.215 130.64L105.844 127.418L104.545 128.374L106.916 131.596ZM106.185 130.842L107.249 131.337L108.937 127.711L107.874 127.216L106.185 130.842ZM106.631 130.889L107.593 131.92L110.518 129.191L109.555 128.16L106.631 130.889ZM107.578 131.904L108.325 132.722L111.279 130.025L110.532 129.207L107.578 131.904ZM107.819 131.113L107.712 131.931L111.677 132.453L111.785 131.635L107.819 131.113ZM108.095 130.991L106.164 133.562L109.362 135.964L111.294 133.393L108.095 130.991ZM106.306 133.393L105 134.782L107.915 137.522L109.22 136.133L106.306 133.393ZM105.139 134.649L103.947 135.694L106.585 138.701L107.777 137.656L105.139 134.649ZM103.837 135.798L103.211 136.438L106.07 139.236L106.696 138.596L103.837 135.798ZM102.81 137.031L102.299 138.193L105.96 139.804L106.471 138.642L102.81 137.031ZM102.166 139.38L102.334 140.246L106.261 139.484L106.092 138.617L102.166 139.38ZM102.966 141.357L103.814 142.114L106.477 139.129L105.629 138.372L102.966 141.357ZM103.589 141.878L104.384 142.861L107.495 140.348L106.701 139.364L103.589 141.878ZM104.56 143.053L105.354 143.809L108.113 140.912L107.319 140.156L104.56 143.053ZM106.733 144.361H107.413V140.361H106.733V144.361ZM108.751 143.847L109.202 143.442L106.526 140.468L106.075 140.874L108.751 143.847ZM109.441 143.186L109.891 142.608L106.739 140.147L106.288 140.724L109.441 143.186ZM109.907 142.587L110.702 141.542L107.517 139.122L106.723 140.167L109.907 142.587ZM110.279 141.954L111.242 141.26L108.901 138.016L107.939 138.71L110.279 141.954ZM111.684 140.821L112.875 139.199L109.65 136.832L108.459 138.454L111.684 140.821ZM112.659 139.447L113.85 138.285L111.057 135.422L109.866 136.584L112.659 139.447ZM113.847 138.289L114.923 137.244L112.138 134.373L111.061 135.418L113.847 138.289ZM114.257 137.672L114.998 137.383L113.544 133.656L112.804 133.945L114.257 137.672ZM114.668 137.48L115.516 137.308L114.721 133.388L113.873 133.559L114.668 137.48ZM114.587 137.276L115.435 137.51L116.498 133.653L115.65 133.42L114.587 137.276ZM114.65 137.087L115.444 137.781L118.077 134.77L117.283 134.076L114.65 137.087ZM114.782 135.987L114.553 137.555L118.511 138.132L118.74 136.565L114.782 135.987ZM114.959 136.609L114.279 137.475L117.426 139.944L118.106 139.078L114.959 136.609ZM114.423 137.311L113.683 138.067L116.541 140.865L117.282 140.109L114.423 137.311ZM113.757 137.995L112.055 139.562L114.764 142.505L116.467 140.937L113.757 137.995ZM111.834 139.802L109.566 142.703L112.717 145.167L114.985 142.265L111.834 139.802ZM109.644 142.61L106.979 145.621L109.974 148.272L112.639 145.26L109.644 142.61ZM107.658 145.122L106.83 145.493L108.467 149.143L109.295 148.771L107.658 145.122ZM105.852 148.197L106.236 148.981L109.829 147.222L109.445 146.439L105.852 148.197ZM106.923 149.766L108.162 150.591L110.38 147.262L109.141 146.437L106.923 149.766ZM109.077 150.917L109.642 150.972L110.03 146.991L109.464 146.936L109.077 150.917ZM110.962 150.635L111.81 150.057L109.558 146.751L108.71 147.329L110.962 150.635ZM112.041 149.873L112.607 149.35L109.892 146.413L109.326 146.935L112.041 149.873ZM111.249 149.881H112.326V145.881H111.249V149.881ZM110.673 149.007L111.581 150.341L114.887 148.089L113.979 146.756L110.673 149.007ZM111.749 150.555L112.853 151.779L115.823 149.1L114.72 147.876L111.749 150.555ZM112.445 151.085L112.701 151.834L116.487 150.543L116.231 149.793L112.445 151.085ZM112.6 151.034L112.546 151.728L116.534 152.038L116.588 151.343L112.6 151.034ZM112.989 150.62L112.424 151.315L115.526 153.84L116.091 153.146L112.989 150.62ZM112.708 151.03L111.86 151.724L114.394 154.819L115.242 154.125L112.708 151.03ZM111.193 153.783L111.422 154.649L115.289 153.627L115.06 152.761L111.193 153.783ZM111.878 155.486L112.618 156.297L115.573 153.601L114.833 152.79L111.878 155.486ZM112.452 156.088L113.414 157.477L116.702 155.199L115.74 153.81L112.452 156.088ZM113.601 157.708L115.075 159.276L117.989 156.536L116.515 154.968L113.601 157.708ZM115.468 159.599L116.202 160.06L118.329 156.673L117.596 156.212L115.468 159.599ZM115.72 159.636L117.759 162.118L120.85 159.579L118.811 157.097L115.72 159.636ZM117.452 161.602L117.963 162.86L121.669 161.353L121.157 160.095L117.452 161.602ZM121.144 163.602L123.513 161.498L120.857 158.507L118.488 160.611L121.144 163.602ZM123.401 161.59L124.64 160.642L122.207 157.466L120.969 158.415L123.401 161.59ZM123.023 161.013L123.797 161.172L124.598 157.253L123.824 157.094L123.023 161.013ZM122.64 160.468L123.616 161.678L126.73 159.167L125.754 157.957L122.64 160.468ZM123.616 161.677L125.056 163.464L128.171 160.955L126.731 159.167L123.616 161.677ZM128.024 163.628L130.083 161.579L127.262 158.743L125.203 160.792L128.024 163.628ZM129.908 161.734L132.586 159.63L130.116 156.484L127.437 158.588L129.908 161.734ZM132.759 159.478L134.091 158.158L131.276 155.316L129.943 156.636L132.759 159.478ZM133.989 158.252L135.8 156.691L133.188 153.661L131.378 155.222L133.989 158.252ZM136.494 155.176V154.441H132.494V155.176H136.494ZM135.987 153.11L131.256 147.802L128.27 150.464L133.001 155.771L135.987 153.11ZM131.745 148.865L131.233 145.077L127.269 145.612L127.781 149.4L131.745 148.865ZM131.247 145.208L131.038 142.162L127.047 142.435L127.256 145.481L131.247 145.208ZM130.632 143.513L131.183 142.791L128.006 140.362L127.454 141.084L130.632 143.513ZM130.017 143.532L132.5 142.995L131.656 139.086L129.172 139.622L130.017 143.532ZM132.03 143.04L134.028 143.088L134.125 139.089L132.126 139.041L132.03 143.04ZM132.132 141.558L132.704 143.929L136.593 142.992L136.021 140.62L132.132 141.558ZM132.663 143.701L133.027 146.699L136.997 146.218L136.634 143.22L132.663 143.701ZM133.512 147.781L138.66 153.618L141.66 150.973L136.512 145.135L133.512 147.781ZM139.774 154.258L140.858 154.471L141.63 150.546L140.546 150.333L139.774 154.258ZM142.33 154.188L142.861 153.844L140.689 150.485L140.158 150.829L142.33 154.188ZM142.227 154.113L143.236 153.88L142.334 149.983L141.324 150.216L142.227 154.113ZM143.936 153.567L144.757 152.989L142.455 149.718L141.634 150.295L143.936 153.567ZM145.6 151.205L145.19 145.684L141.201 145.981L141.611 151.502L145.6 151.205ZM145.193 145.739L145.038 142.425L141.043 142.612L141.198 145.926L145.193 145.739ZM145.009 142.167L144.7 140.434L140.762 141.138L141.072 142.87L145.009 142.167ZM144.731 140.786V139.102H140.731V140.786H144.731ZM144.33 140.303L144.841 139.622L141.644 137.219L141.132 137.9L144.33 140.303ZM145.144 139.041L145.453 138.093L141.651 136.852L141.341 137.801L145.144 139.041ZM144.232 139.353L145.107 139.037L143.747 135.275L142.872 135.591L144.232 139.353ZM142.998 138.555L143.664 139.236L146.522 136.438L145.856 135.757L142.998 138.555ZM143.435 138.954L143.791 139.483L147.109 137.248L146.752 136.719L143.435 138.954ZM144.021 139.765L144.64 140.397L147.498 137.6L146.879 136.967L144.021 139.765ZM144.092 139.299L144.347 140.983L148.302 140.383L148.046 138.698L144.092 139.299ZM144.329 140.808L144.483 143.276L148.476 143.026L148.321 140.558L144.329 140.808ZM144.525 143.577L145.145 146.417L149.053 145.565L148.434 142.725L144.525 143.577ZM145.109 146.196L145.473 149.716L149.451 149.306L149.088 145.785L145.109 146.196ZM147.399 151.51L150.246 151.599L150.372 147.601L147.525 147.512L147.399 151.51ZM150.921 151.504L152.503 150.995L151.278 147.188L149.696 147.696L150.921 151.504ZM151.864 151.091L153.432 151.112L153.485 147.112L151.917 147.092L151.864 151.091ZM153.904 151.062L156.038 150.574L155.146 146.674L153.012 147.163L153.904 151.062ZM156.084 150.563L157.113 150.301L156.129 146.424L155.1 146.685L156.084 150.563ZM156.87 150.347L158.243 150.175L157.746 146.206L156.373 146.378L156.87 150.347ZM159.993 148.246L160.054 146.046L156.055 145.936L155.995 148.136L159.993 148.246ZM159.547 144.659L158.988 144.033L156.004 146.697L156.563 147.323L159.547 144.659ZM159.472 145.058L159.318 144.061L155.365 144.675L155.52 145.672L159.472 145.058ZM159.338 144.255L159.284 143.306L155.291 143.533L155.345 144.481L159.338 144.255ZM159.188 144.043L159.551 142.936L155.751 141.689L155.387 142.796L159.188 144.043ZM159.578 142.846L159.942 141.533L156.087 140.466L155.723 141.779L159.578 142.846ZM159.558 142.271L160.379 141.274L157.292 138.731L156.471 139.728L159.558 142.271ZM159.452 141.905L160.428 141.589L159.195 137.783L158.219 138.1L159.452 141.905ZM160.93 141.344L161.704 140.821L159.466 137.506L158.692 138.028L160.93 141.344ZM160.23 141.132L162.29 141.503L162.999 137.567L160.94 137.195L160.23 141.132ZM161.339 141.05L162.026 141.641L164.636 138.611L163.95 138.019L161.339 141.05ZM161.609 141.144L162.255 142.237L165.699 140.202L165.053 139.109L161.609 141.144ZM162.64 142.707L163.926 143.862L166.599 140.887L165.314 139.732L162.64 142.707ZM164.071 143.981L165.201 144.819L167.585 141.607L166.454 140.768L164.071 143.981ZM166.059 145.185L167.6 145.446L168.268 141.503L166.727 141.241L166.059 145.185ZM166.417 144.777L167.137 145.616L170.172 143.01L169.452 142.172L166.417 144.777ZM166.657 144.417L166.758 146.363L170.752 146.155L170.651 144.21L166.657 144.417ZM168.755 148.259H173.129V144.259H168.755V148.259ZM174.559 147.658L175.218 146.984L172.36 144.186L171.7 144.86L174.559 147.658ZM175.779 145.78L175.793 145.643L171.812 145.253L171.798 145.39L175.779 145.78ZM175.792 145.652L175.819 145.391L171.84 144.981L171.813 145.243L175.792 145.652ZM175.826 145.298L175.947 143.125L171.954 142.902L171.832 145.075L175.826 145.298ZM175.826 143.709L176.236 142.602L172.486 141.211L172.075 142.318L175.826 143.709ZM176.348 142.132L176.503 140.763L172.528 140.314L172.374 141.682L176.348 142.132ZM176.291 141.46L176.701 140.67L173.151 138.826L172.741 139.617L176.291 141.46ZM175.137 141.737L176.631 141.579L176.21 137.601L174.716 137.759L175.137 141.737ZM177.285 141.393L178.059 141.022L176.329 137.415L175.555 137.787L177.285 141.393ZM178.857 140.33L179.523 139.333L176.198 137.11L175.531 138.107L178.857 140.33ZM177.932 140.22L179.473 140.165L179.33 136.168L177.789 136.223L177.932 140.22ZM179.242 140.16L180.527 140.263L180.847 136.276L179.561 136.173L179.242 140.16ZM180.36 140.243L181.645 140.456L182.299 136.51L181.014 136.297L180.36 140.243ZM181.781 140.474L183.43 140.632L183.812 136.65L182.163 136.492L181.781 140.474ZM182.431 140.248L183.925 141.355L186.306 138.141L184.812 137.034L182.431 140.248ZM183.852 141.298L186.113 143.141L188.64 140.04L186.379 138.197L183.852 141.298ZM186.032 143.071L188.4 145.223L191.09 142.262L188.721 140.11L186.032 143.071ZM188.6 145.382L190.706 146.853L192.997 143.574L190.89 142.103L188.6 145.382ZM190.812 146.922L192.36 147.864L194.439 144.447L192.891 143.505L190.812 146.922ZM195.306 146.76L195.461 146.272L191.648 145.063L191.493 145.551L195.306 146.76ZM195.422 146.383L195.785 145.434L192.05 144.003L191.687 144.952L195.422 146.383ZM195.888 145.064L196.069 144.025L192.129 143.336L191.948 144.374L195.888 145.064ZM196.099 143.704L196.126 141.394L192.126 141.347L192.1 143.657L196.099 143.704ZM195.947 142.198L196.256 141.518L192.615 139.862L192.306 140.543L195.947 142.198ZM196.43 140.844L196.484 140.15L192.496 139.841L192.442 140.535L196.43 140.844ZM196.487 140.109L196.587 138.328L192.594 138.102L192.493 139.882L196.487 140.109ZM196.541 138.656L196.851 137.288L192.95 136.405L192.64 137.773L196.541 138.656ZM196.881 137.123L197.292 134.18L193.33 133.628L192.919 136.57L196.881 137.123ZM197.26 134.352L197.671 132.564L193.772 131.669L193.361 133.456L197.26 134.352ZM197.373 133.243L197.838 132.563L194.533 130.308L194.069 130.989L197.373 133.243ZM197.516 132.929L199.662 131.018L197.003 128.03L194.856 129.942L197.516 132.929ZM200.129 130.403L201.253 128.107L197.66 126.349L196.536 128.645L200.129 130.403ZM201.302 127.998L201.787 126.836L198.095 125.296L197.61 126.458L201.302 127.998ZM200.966 127.783L201.841 127.26L199.79 123.826L198.915 124.349L200.966 127.783ZM200.983 127.536L202.214 127.433L201.88 123.447L200.649 123.55L200.983 127.536ZM201.813 127.427L202.688 127.53L203.156 123.557L202.281 123.454L201.813 127.427ZM201.822 127.214L202.428 127.613L204.628 124.272L204.022 123.873L201.822 127.214ZM201.607 125.385L201.264 126.567L205.105 127.682L205.449 126.5L201.607 125.385ZM201.552 125.97L199.937 128.252L203.202 130.563L204.817 128.28L201.552 125.97ZM200.183 127.966L198.096 129.974L200.87 132.856L202.956 130.848L200.183 127.966ZM197.697 130.515L196.876 132.144L200.448 133.944L201.269 132.315L197.697 130.515ZM196.684 132.748L196.274 135.484L200.23 136.078L200.64 133.341L196.684 132.748ZM196.271 135.506L196.015 137.348L199.977 137.898L200.233 136.056L196.271 135.506ZM196.004 137.44L195.594 141.909L199.577 142.275L199.988 137.806L196.004 137.44ZM195.599 141.857L195.088 146.168L199.06 146.639L199.571 142.328L195.599 141.857ZM195.074 146.403V147.558H199.074V146.403H195.074ZM198.387 149.067L198.75 148.751L196.124 145.733L195.761 146.05L198.387 149.067ZM198.996 148.495L199.46 147.918L196.343 145.411L195.879 145.989L198.996 148.495ZM197.902 148.665H198.83V144.665H197.902V148.665ZM200.505 147.757L200.815 147.283L197.465 145.097L197.155 145.572L200.505 147.757ZM199.084 148.189L201.042 148.244L201.154 144.246L199.196 144.191L199.084 148.189ZM200.361 148.104L201.956 148.737L203.431 145.019L201.836 144.386L200.361 148.104ZM202.047 148.77L204.827 149.719L206.119 145.934L203.339 144.985L202.047 148.77ZM204.913 149.747L207.794 150.585L208.912 146.745L206.032 145.906L204.913 149.747ZM207.917 150.617L211.672 151.456L212.544 147.552L208.789 146.713L207.917 150.617ZM211.734 151.469L214.77 152.046L215.517 148.117L212.482 147.539L211.734 151.469ZM214.568 151.997L218.067 153.049L219.219 149.218L215.719 148.166L214.568 151.997ZM218.112 153.062L221.355 153.955L222.418 150.099L219.174 149.205L218.112 153.062ZM221.922 154.027L225.058 153.972L224.988 149.973L221.852 150.028L221.922 154.027ZM225.293 153.954L227.608 153.638L227.067 149.674L224.752 149.991L225.293 153.954ZM227.378 153.656L230.104 153.601L230.023 149.601L227.297 149.656L227.378 153.656ZM232.048 151.35L231.886 150.072L227.918 150.573L228.079 151.852L232.048 151.35ZM231.62 149.299L230.752 147.841L227.315 149.888L228.183 151.346L231.62 149.299ZM230.952 148.299L230.488 146.724L226.651 147.856L227.115 149.43L230.952 148.299ZM230.443 146.59L229.931 145.222L226.184 146.622L226.696 147.991L230.443 146.59ZM228.865 144.092L227.681 143.57L226.066 147.229L227.251 147.752L228.865 144.092ZM228.84 145.762L228.995 144.924L225.061 144.198L224.907 145.037L228.84 145.762ZM228.933 145.169L229.034 144.853L225.224 143.636L225.123 143.952L228.933 145.169ZM227.987 142.438L227.321 142.121L225.605 145.735L226.271 146.051L227.987 142.438ZM228.46 143.815L228.406 142.866L224.412 143.093L224.466 144.041L228.46 143.815ZM228.128 144.002L228.545 143.301L225.107 141.255L224.69 141.957L228.128 144.002ZM228.687 141.544L228.363 140.725L224.643 142.194L224.966 143.013L228.687 141.544ZM227.652 139.822L226.063 138.709L223.767 141.984L225.355 143.097L227.652 139.822ZM226.815 139.721L226.559 138.944L222.76 140.194L223.015 140.971L226.815 139.721ZM225.093 137.617L223.855 137.342L222.987 141.247L224.226 141.522L225.093 137.617ZM224.194 137.449L222.848 136.886L221.302 140.575L222.648 141.139L224.194 137.449ZM222.214 136.735L219.643 136.556L219.366 140.547L221.936 140.726L222.214 136.735ZM218.929 136.636L218.014 136.911L219.165 140.742L220.08 140.467L218.929 136.636ZM219.13 136.901L217.636 136.482L216.554 140.333L218.049 140.752L219.13 136.901ZM218.77 137.314L218.46 136.84L215.111 139.026L215.42 139.5L218.77 137.314ZM218.76 137.618L218.66 136.985L214.709 137.615L214.81 138.248L218.76 137.618ZM217.162 139.242L218.448 138.926L217.492 135.042L216.207 135.358L217.162 139.242ZM217.901 138.983L219.496 139.038L219.634 135.04L218.039 134.985L217.901 138.983ZM219.718 139.033L221.058 138.93L220.751 134.942L219.411 135.045L219.718 139.033ZM220.904 138.936H222.661V134.936H220.904V138.936ZM222.42 138.921L224.237 139.141L224.718 135.17L222.901 134.95L222.42 138.921ZM223.807 139.04L224.871 139.418L226.211 135.65L225.148 135.272L223.807 139.04ZM224.453 139.212L225.631 139.976L227.806 136.619L226.629 135.856L224.453 139.212ZM225.324 139.731L226.3 140.68L229.089 137.812L228.113 136.863L225.324 139.731ZM226.222 140.599L227.043 141.493L229.988 138.787L229.167 137.893L226.222 140.599ZM227.355 141.769L228.022 142.243L230.342 138.985L229.676 138.511L227.355 141.769ZM227.375 141.472L228.149 143.102L231.762 141.386L230.988 139.756L227.375 141.472ZM227.983 142.575L228.293 144.418L232.238 143.755L231.928 141.912L227.983 142.575ZM228.49 145.008L229.365 146.693L232.915 144.849L232.04 143.164L228.49 145.008ZM229.498 146.913L230.373 148.171L233.657 145.887L232.782 144.629L229.498 146.913ZM230.019 147.153L230.12 148.782L234.112 148.535L234.011 146.905L230.019 147.153ZM230.917 150.259L232.202 151.222L234.6 148.02L233.315 147.058L230.917 150.259ZM231.821 150.846L233.409 152.895L236.57 150.444L234.982 148.396L231.821 150.846ZM233.293 152.729L234.04 153.925L237.433 151.807L236.686 150.611L233.293 152.729ZM234.307 154.265L235.108 155.083L237.967 152.285L237.166 151.467L234.307 154.265ZM235.893 155.578L236.539 155.798L237.828 152.011L237.182 151.791L235.893 155.578ZM236.142 155.612L236.943 156.1L239.025 152.685L238.224 152.197L236.142 155.612ZM236.518 155.752L236.76 156.014L239.693 153.294L239.451 153.032L236.518 155.752ZM236.255 154.318L236.046 155.541L239.989 156.214L240.198 154.99L236.255 154.318ZM236.035 155.618L235.793 157.467L239.759 157.987L240.001 156.137L236.035 155.618ZM236.01 156.788L234.745 159.167L238.276 161.045L239.541 158.666L236.01 156.788ZM235.393 161.765L239.93 164.821L242.165 161.503L237.628 158.447L235.393 161.765ZM100.953 167.047V150.194H96.9529V167.047H100.953ZM107.366 165.047H98.9529V169.047H107.366V165.047ZM109.145 166.132L107.946 163.804L104.39 165.635L105.588 167.963L109.145 166.132ZM107.949 163.81L105.681 159.368L102.119 161.187L104.387 165.629L107.949 163.81ZM105.649 159.307L101.335 151.538L97.8379 153.479L102.152 161.249L105.649 159.307ZM101.557 152.169L101.268 150.491L97.3262 151.171L97.6156 152.849L101.557 152.169ZM101.056 149.88L100.712 149.243L97.1935 151.145L97.5377 151.782L101.056 149.88ZM198.273 166.971L198.198 165L194.201 165.153L194.276 167.124L198.273 166.971ZM198.142 164.603L197.671 162.671L193.785 163.619L194.256 165.551L198.142 164.603ZM197.547 162.314L196.982 161.076L193.343 162.738L193.909 163.976L197.547 162.314ZM196.663 160.585L196.058 159.898L193.056 162.542L193.662 163.229L196.663 160.585ZM195.94 159.775L194.864 158.744L192.097 161.633L193.174 162.664L195.94 159.775ZM194.78 158.669L193.704 157.747L191.103 160.787L192.18 161.708L194.78 158.669ZM193.797 157.832L192.444 156.519L189.658 159.389L191.01 160.702L193.797 157.832ZM191.78 156.092L190.023 155.404L188.565 159.129L190.322 159.816L191.78 156.092ZM190.093 155.433L188.673 154.814L187.075 158.481L188.495 159.1L190.093 155.433ZM188.332 154.701L186.575 154.288L185.661 158.182L187.417 158.595L188.332 154.701ZM186.37 154.251L184.21 153.976L183.705 157.944L185.865 158.219L186.37 154.251ZM183.64 153.985L181.076 154.398L181.711 158.347L184.275 157.935L183.64 153.985ZM180.967 154.419L179.076 154.831L179.929 158.739L181.82 158.327L180.967 154.419ZM179.122 154.822L177.702 155.097L178.463 159.024L179.883 158.749L179.122 154.822ZM177.237 155.247L175.615 156.004L177.306 159.629L178.928 158.873L177.237 155.247ZM176.359 155.819L175.006 155.888L175.21 159.883L176.562 159.814L176.359 155.819ZM174.838 155.903L173.829 156.041L174.368 160.004L175.378 159.867L174.838 155.903ZM173.155 156.259L171.87 156.947L173.756 160.474L175.042 159.786L173.155 156.259ZM171.733 157.027L170.447 157.852L172.608 161.218L173.893 160.393L171.733 157.027ZM170.483 157.83L169.473 158.449L171.563 161.859L172.573 161.24L170.483 157.83ZM168.986 158.869L168.582 159.35L171.647 161.921L172.05 161.439L168.986 158.869ZM168.114 160.635V161.268H172.114V160.635H168.114ZM169.288 163.089L169.893 163.364L171.547 159.722L170.941 159.447L169.288 163.089ZM169.424 163.066L170.231 163.753L172.824 160.708L172.017 160.02L169.424 163.066ZM169.705 163.054L170.109 163.948L173.754 162.301L173.35 161.407L169.705 163.054ZM170.382 161.86L169.709 162.685L172.808 165.213L173.481 164.388L170.382 161.86ZM169.566 162.884L168.96 163.847L172.346 165.977L172.951 165.014L169.566 162.884ZM170.653 162.912H169.711V166.912H170.653V162.912ZM170.698 163.172L170.092 162.829L168.118 166.307L168.723 166.651L170.698 163.172ZM170.534 163.169L170.198 162.825L167.339 165.623L167.676 165.967L170.534 163.169ZM170.318 162.96L169.982 162.548L166.882 165.076L167.219 165.488L170.318 162.96ZM166.857 162.579L166.588 162.922L169.738 165.389L170.007 165.045L166.857 162.579ZM166.168 164.306L166.236 165.199L170.225 164.899L170.157 164.005L166.168 164.306ZM166.618 166.233L167.022 166.783L170.246 164.416L169.842 163.866L166.618 166.233ZM166.643 165.794L166.711 166.482L170.692 166.092L170.624 165.404L166.643 165.794ZM166.839 165.558L166.57 166.245L170.294 167.704L170.564 167.016L166.839 165.558ZM167.003 165.575L166.931 165.648L169.79 168.446L169.861 168.373L167.003 165.575ZM196.274 165.047H168.361V169.047H196.274V165.047ZM154.887 165.047H141.374V169.047H154.887V165.047ZM140.622 165.156L140.302 165.359L142.447 168.735L142.767 168.532L140.622 165.156ZM141.999 164.038L140.445 165.282L142.945 168.405L144.499 167.161L141.999 164.038ZM143.751 162.936L142.196 163.899L144.302 167.3L145.857 166.337L143.751 162.936ZM145.35 161.82L143.661 162.995L145.946 166.278L147.636 165.103L145.35 161.82ZM146.637 160.745L145.218 161.921L147.768 165.002L149.188 163.826L146.637 160.745ZM149.439 159.749L147.346 160.367L148.48 164.203L150.573 163.585L149.439 159.749ZM151.609 159.412L149.718 159.687L150.294 163.646L152.185 163.371L151.609 159.412ZM151.525 159.274L150.852 159.686L152.942 163.097L153.615 162.684L151.525 159.274ZM153.702 159.124L152.861 159L152.279 162.958L153.12 163.082L153.702 159.124ZM155.2 160.011L154.729 159.598L152.094 162.607L152.565 163.02L155.2 160.011ZM156.041 159.585L153.948 159.516L153.817 163.514L155.91 163.583L156.041 159.585ZM155.523 159.429L154.782 159.979L157.168 163.189L157.908 162.639L155.523 159.429ZM155.035 159.412L154.766 160.588L158.665 161.48L158.934 160.305L155.035 159.412ZM156.624 157.598L155.749 158.286L158.22 161.431L159.095 160.743L156.624 157.598ZM159.151 156.982L157.597 157.188L158.123 161.153L159.677 160.947L159.151 156.982ZM160.767 156.965H159.414V160.965H160.767V156.965ZM162.498 157.724L161.893 157.312L159.641 160.618L160.247 161.03L162.498 157.724ZM163.152 161.103L163.353 159.653L159.392 159.101L159.19 160.552L163.152 161.103ZM161.326 163.118L162.269 162.499L160.073 159.156L159.131 159.775L161.326 163.118ZM160.749 163.512L161.354 163.1L159.103 159.794L158.497 160.206L160.749 163.512ZM159.75 164.446L160.968 163.339L158.278 160.379L157.06 161.486L159.75 164.446ZM157.826 165.982L159.65 164.531L157.16 161.401L155.336 162.852L157.826 165.982ZM157.078 166.697L157.953 165.872L155.209 162.962L154.334 163.787L157.078 166.697ZM156.729 167.568L157.469 166.186L153.943 164.297L153.203 165.679L156.729 167.568ZM156.854 167.412L156.932 166.989L152.999 166.259L152.921 166.682L156.854 167.412ZM161.985 151.202H163.479V147.202H161.985V151.202ZM160.112 150.377L160.906 150.886L163.064 147.518L162.27 147.009L160.112 150.377ZM159.05 148.756L159.346 149.464L163.036 147.921L162.74 147.213L159.05 148.756ZM158.895 146.967V147.985H162.895V146.967H158.895ZM158.759 145.87L158.907 147.19L162.882 146.744L162.734 145.424L158.759 145.87ZM158.572 145.521L158.868 146.333L162.625 144.961L162.329 144.15L158.572 145.521ZM158.259 144.294L158.508 145.311L162.393 144.36L162.144 143.343L158.259 144.294ZM158.064 143.761L158.313 144.476L162.09 143.16L161.841 142.445L158.064 143.761ZM157.869 142.602L157.97 143.365L161.935 142.841L161.834 142.078L157.869 142.602ZM158.048 141.242L157.9 141.902L161.803 142.778L161.951 142.118L158.048 141.242ZM160.562 139.636L159.862 139.685L160.137 143.675L160.837 143.627L160.562 139.636ZM161.802 139.836L161.155 139.684L160.244 143.579L160.89 143.73L161.802 139.836ZM163.351 141.081L162.9 140.525L159.791 143.041L160.242 143.598L163.351 141.081ZM163.93 141.898L163.432 141.189L160.161 143.49L160.659 144.199L163.93 141.898ZM164.945 142.953L163.754 141.681L160.835 144.415L162.026 145.687L164.945 142.953ZM165.659 143.99L165.161 143.227L161.811 145.413L162.309 146.176L165.659 143.99ZM166.058 144.824L165.809 144.267L162.158 145.9L162.407 146.456L166.058 144.824ZM166.109 146.603L166.21 145.942L162.256 145.338L162.155 145.998L166.109 146.603ZM166.004 147.238L166.105 146.626L162.158 145.975L162.057 146.587L166.004 147.238ZM165.927 148.896L166.028 147.019L162.034 146.805L161.933 148.682L165.927 148.896ZM164.829 150.677L165.28 150.265L162.58 147.313L162.129 147.726L164.829 150.677Z" fill="#2644BA" mask="url(#path-20-inside-4_71_717)"/>
<rect x="99.9529" y="25.9529" width="140.094" height="140.094" stroke="#2644BA" stroke-width="2"/>
</svg>
