<svg width="340" height="192" viewBox="0 0 340 192" fill="none" xmlns="http://www.w3.org/2000/svg">
<mask id="path-1-inside-1_71_717" fill="white">
<path fill-rule="evenodd" clip-rule="evenodd" d="M169.128 72.5536C169.685 71.477 170 70.2546 170 68.9586C170 64.6334 166.493 61.1272 162.168 61.1272C157.843 61.1272 154.337 64.6334 154.337 68.9586C154.337 70.6028 154.844 72.1287 155.709 73.3886L162.21 84.2793L168.711 73.264C168.854 73.0476 168.986 72.8237 169.107 72.593L169.13 72.5536L169.128 72.5536Z"/>
</mask>
<path d="M169.128 72.5536L167.352 71.6342L165.827 74.5802L169.144 74.5535L169.128 72.5536ZM155.709 73.3886L157.427 72.3635L157.394 72.3086L157.358 72.2559L155.709 73.3886ZM162.21 84.2793L160.493 85.3044L162.22 88.1978L163.933 85.2958L162.21 84.2793ZM168.711 73.264L167.041 72.1631L167.014 72.2046L166.989 72.2475L168.711 73.264ZM169.107 72.593L167.385 71.5764L167.359 71.6194L167.336 71.6635L169.107 72.593ZM169.13 72.5536L170.853 73.5701L172.65 70.5252L169.114 70.5536L169.13 72.5536ZM168 68.9586C168 69.9271 167.765 70.8351 167.352 71.6342L170.904 73.473C171.605 72.1189 172 70.582 172 68.9586H168ZM162.168 63.1272C165.389 63.1272 168 65.738 168 68.9586H172C172 63.5289 167.598 59.1272 162.168 59.1272V63.1272ZM156.337 68.9586C156.337 65.738 158.948 63.1272 162.168 63.1272V59.1272C156.739 59.1272 152.337 63.5289 152.337 68.9586H156.337ZM157.358 72.2559C156.714 71.3187 156.337 70.1857 156.337 68.9586H152.337C152.337 71.02 152.974 72.9388 154.061 74.5213L157.358 72.2559ZM163.927 83.2542L157.427 72.3635L153.992 74.4137L160.493 85.3044L163.927 83.2542ZM166.989 72.2475L160.488 83.2628L163.933 85.2958L170.434 74.2805L166.989 72.2475ZM167.336 71.6635C167.246 71.8351 167.148 72.0018 167.041 72.1631L170.381 74.3649C170.56 74.0933 170.726 73.8122 170.878 73.5224L167.336 71.6635ZM167.408 71.537L167.385 71.5764L170.83 73.6095L170.853 73.5701L167.408 71.537ZM169.144 74.5535L169.146 74.5535L169.114 70.5536L169.112 70.5537L169.144 74.5535Z" fill="#2644BA" mask="url(#path-1-inside-1_71_717)"/>
<circle cx="162.169" cy="69.3507" r="3.29758" stroke="#2644BA" stroke-width="2"/>
<mask id="path-4-inside-2_71_717" fill="white">
<path fill-rule="evenodd" clip-rule="evenodd" d="M229.812 25.9002C230.37 24.8236 230.684 23.6011 230.684 22.3052C230.684 17.98 227.178 14.4738 222.853 14.4738C218.528 14.4738 215.021 17.98 215.021 22.3052C215.021 23.9491 215.528 25.4747 216.393 26.7345L222.895 37.6259L229.395 26.611C229.538 26.3943 229.671 26.1701 229.792 25.9391L229.815 25.9002L229.812 25.9002Z"/>
</mask>
<path d="M229.812 25.9002L228.036 24.9808L226.511 27.9271L229.829 27.9001L229.812 25.9002ZM216.393 26.7345L218.111 25.7094L218.078 25.6546L218.042 25.6019L216.393 26.7345ZM222.895 37.6259L221.177 38.651L222.904 41.5444L224.617 38.6424L222.895 37.6259ZM229.395 26.611L227.726 25.5099L227.698 25.5515L227.673 25.5944L229.395 26.611ZM229.792 25.9391L228.07 24.9226L228.044 24.9656L228.021 25.0098L229.792 25.9391ZM229.815 25.9002L231.537 26.9167L233.335 23.8715L229.799 23.9002L229.815 25.9002ZM228.684 22.3052C228.684 23.2737 228.45 24.1816 228.036 24.9808L231.588 26.8196C232.289 25.4655 232.684 23.9285 232.684 22.3052H228.684ZM222.853 16.4738C226.073 16.4738 228.684 19.0846 228.684 22.3052H232.684C232.684 16.8754 228.283 12.4738 222.853 12.4738V16.4738ZM217.021 22.3052C217.021 19.0846 219.632 16.4738 222.853 16.4738V12.4738C217.423 12.4738 213.021 16.8754 213.021 22.3052H217.021ZM218.042 25.6019C217.398 24.6648 217.021 23.532 217.021 22.3052H213.021C213.021 24.3662 213.658 26.2846 214.745 27.867L218.042 25.6019ZM224.612 36.6008L218.111 25.7094L214.676 27.7595L221.177 38.651L224.612 36.6008ZM227.673 25.5944L221.172 36.6094L224.617 38.6424L231.118 27.6275L227.673 25.5944ZM228.021 25.0098C227.931 25.1816 227.832 25.3485 227.726 25.5099L231.065 27.712C231.244 27.4401 231.411 27.1586 231.563 26.8684L228.021 25.0098ZM228.093 24.8836L228.07 24.9226L231.514 26.9556L231.537 26.9167L228.093 24.8836ZM229.829 27.9001L229.831 27.9001L229.799 23.9002L229.796 23.9003L229.829 27.9001Z" fill="#2644BA" mask="url(#path-4-inside-2_71_717)"/>
<circle cx="222.853" cy="22.6972" r="3.29758" stroke="#2644BA" stroke-width="2"/>
<mask id="path-7-inside-3_71_717" fill="white">
<path fill-rule="evenodd" clip-rule="evenodd" d="M129.959 124.427C130.516 123.35 130.831 122.128 130.831 120.832C130.831 116.506 127.325 113 122.999 113C118.674 113 115.168 116.506 115.168 120.832C115.168 122.475 115.674 124.001 116.54 125.261L123.041 136.152L129.542 125.138C129.685 124.921 129.817 124.696 129.939 124.465L129.961 124.427L129.959 124.427Z"/>
</mask>
<path d="M129.959 124.427L128.183 123.507L126.657 126.454L129.975 126.427L129.959 124.427ZM116.54 125.261L118.257 124.236L118.224 124.181L118.188 124.128L116.54 125.261ZM123.041 136.152L121.324 137.177L123.051 140.071L124.764 137.169L123.041 136.152ZM129.542 125.138L127.872 124.037L127.845 124.078L127.819 124.121L129.542 125.138ZM129.939 124.465L128.216 123.449L128.191 123.492L128.168 123.536L129.939 124.465ZM129.961 124.427L131.684 125.443L133.481 122.398L129.945 122.427L129.961 124.427ZM128.831 120.832C128.831 121.8 128.596 122.708 128.183 123.507L131.735 125.346C132.436 123.992 132.831 122.455 132.831 120.832H128.831ZM122.999 115C126.22 115 128.831 117.611 128.831 120.832H132.831C132.831 115.402 128.429 111 122.999 111V115ZM117.168 120.832C117.168 117.611 119.779 115 122.999 115V111C117.57 111 113.168 115.402 113.168 120.832H117.168ZM118.188 124.128C117.545 123.191 117.168 122.058 117.168 120.832H113.168C113.168 122.893 113.804 124.811 114.891 126.393L118.188 124.128ZM124.758 135.127L118.257 124.236L114.822 126.286L121.324 137.177L124.758 135.127ZM127.819 124.121L121.319 135.136L124.764 137.169L131.264 126.154L127.819 124.121ZM128.168 123.536C128.077 123.708 127.979 123.875 127.872 124.037L131.211 126.239C131.391 125.967 131.557 125.685 131.71 125.394L128.168 123.536ZM128.239 123.41L128.216 123.449L131.661 125.482L131.684 125.443L128.239 123.41ZM129.975 126.427L129.978 126.427L129.945 122.427L129.942 122.427L129.975 126.427Z" fill="#2644BA" mask="url(#path-7-inside-3_71_717)"/>
<circle cx="123" cy="121.224" r="3.29758" stroke="#2644BA" stroke-width="2"/>
<mask id="path-10-inside-4_71_717" fill="white">
<path fill-rule="evenodd" clip-rule="evenodd" d="M234.591 111.906C235.148 110.829 235.463 109.607 235.463 108.311C235.463 103.985 231.956 100.479 227.631 100.479C223.306 100.479 219.8 103.985 219.8 108.311C219.8 109.954 220.306 111.478 221.17 112.737L227.673 123.631L234.171 112.621C234.316 112.401 234.45 112.174 234.573 111.94L234.593 111.906L234.591 111.906Z"/>
</mask>
<path d="M234.591 111.906L232.814 110.986L231.289 113.933L234.607 113.906L234.591 111.906ZM221.17 112.737L222.887 111.712L222.855 111.658L222.819 111.606L221.17 112.737ZM227.673 123.631L225.955 124.656L227.682 127.55L229.395 124.648L227.673 123.631ZM234.171 112.621L232.502 111.519L232.474 111.561L232.449 111.604L234.171 112.621ZM234.573 111.94L232.85 110.924L232.825 110.967L232.801 111.012L234.573 111.94ZM234.593 111.906L236.315 112.922L238.113 109.876L234.576 109.906L234.593 111.906ZM233.463 108.311C233.463 109.279 233.228 110.187 232.814 110.986L236.367 112.825C237.068 111.471 237.463 109.934 237.463 108.311H233.463ZM227.631 102.479C230.852 102.479 233.463 105.09 233.463 108.311H237.463C237.463 102.881 233.061 98.4792 227.631 98.4792V102.479ZM221.8 108.311C221.8 105.09 224.411 102.479 227.631 102.479V98.4792C222.201 98.4792 217.8 102.881 217.8 108.311H221.8ZM222.819 111.606C222.176 110.669 221.8 109.537 221.8 108.311H217.8C217.8 110.37 218.435 112.288 219.521 113.869L222.819 111.606ZM229.39 122.606L222.887 111.712L219.453 113.763L225.955 124.656L229.39 122.606ZM232.449 111.604L225.95 122.615L229.395 124.648L235.893 113.637L232.449 111.604ZM232.801 111.012C232.71 111.186 232.61 111.355 232.502 111.519L235.84 113.723C236.022 113.447 236.19 113.162 236.344 112.868L232.801 111.012ZM232.871 110.889L232.85 110.924L236.295 112.957L236.315 112.922L232.871 110.889ZM234.607 113.906L234.61 113.906L234.576 109.906L234.574 109.906L234.607 113.906Z" fill="#2644BA" mask="url(#path-10-inside-4_71_717)"/>
<circle cx="227.632" cy="108.703" r="3.29758" stroke="#2644BA" stroke-width="2"/>
<circle cx="151.582" cy="92.2146" r="1.75488" stroke="#2644BA" stroke-width="2"/>
<circle cx="185.143" cy="50.5651" r="1.75488" stroke="#2644BA" stroke-width="2"/>
<circle cx="201.382" cy="37.6259" r="1.75488" stroke="#2644BA" stroke-width="2"/>
<circle cx="201.382" cy="98.7549" r="1.75488" stroke="#2644BA" stroke-width="2"/>
<circle cx="219.021" cy="66.5957" r="1.75488" stroke="#2644BA" stroke-width="2"/>
<circle cx="146.67" cy="50.5651" r="1.75488" stroke="#2644BA" stroke-width="2"/>
<circle cx="149.425" cy="122.766" r="1.75488" stroke="#2644BA" stroke-width="2"/>
<circle cx="163.712" cy="114.81" r="1.75488" stroke="#2644BA" stroke-width="2"/>
<circle cx="130.831" cy="84.2794" r="1.75488" stroke="#2644BA" stroke-width="2"/>
<circle cx="190.652" cy="118.469" r="1.75488" stroke="#2644BA" stroke-width="2"/>
<mask id="path-23-inside-5_71_717" fill="white">
<path fill-rule="evenodd" clip-rule="evenodd" d="M221.689 171.526H233.093L228.395 168.167L227.055 167.466L225.716 167.253L224.175 167.5L223.664 168.236L221.689 171.526ZM241.047 167.641V29.4319H125.076L124.433 30.5358L123.471 30.7696L122.959 31.0584L122.905 32.2203L123.188 33.0316L123.531 33.4372L123.585 34.7711L123.356 34.9429L123.188 35.8092L123.074 36.813L122.818 37.7412V38.6694L122.508 38.7106L122.34 40.1613L121.997 40.8558L121.943 46.8855L121.977 47.5936L121.66 48.2193L121.546 49.4912L121.654 50.165L121.095 51.1688L120.133 51.2857L119.978 51.9526L119.453 52.7364L119.399 53.5477L118.948 54.0083L118.168 54.1321L117.454 54.3315L117.003 54.7921L116.566 55.459L116.532 56.8547L116.364 57.6385L114.419 61.3444L113.706 62.6025L113.383 63.9226L112.737 64.9127L112.313 66.6934L111.768 67.2159V68.0203L111.236 68.1166L110.496 68.4879L109.23 68.976L109.19 69.7048H108.45L107.804 69.6361L107.218 70.3648L107.09 71.2243L106.316 72.4137L105.213 74.5932L104.499 76.312L103.402 78.2234L102.561 79.7497L101.781 81.2692L101.007 82.658L99.829 84.755L98.9878 85.5869L98.9531 85.6087V139.68L99.8223 140.439L102.036 138.032L104.19 136.004L105.731 134.464L107.03 133.508L108.093 134.003L109.056 135.035L109.803 135.853L109.695 136.671L107.763 139.242L106.458 140.631L105.267 141.676L104.641 142.316L104.129 143.478L104.298 144.344L105.146 145.1L105.94 146.083L106.734 146.84H107.413L107.864 146.434L108.315 145.856L109.109 144.811L110.072 144.117L111.263 142.494L112.454 141.332L113.531 140.287L114.271 139.999L115.119 139.827L115.967 140.06L116.761 140.755L116.532 142.322L115.853 143.189L115.112 143.945L113.41 145.513L111.142 148.414L108.477 151.425L107.649 151.797L108.033 152.58L109.271 153.406L109.836 153.461L110.684 152.883L111.249 152.36H112.326L113.235 153.694L114.338 154.918L114.594 155.668L114.54 156.362L113.975 157.056L113.127 157.751L113.356 158.617L114.096 159.428L115.058 160.817L116.532 162.385L117.266 162.845L119.305 165.327L119.816 166.586L122.185 164.482L123.424 163.533L124.197 163.691L125.173 164.901L126.613 166.689L128.673 164.64L131.351 162.536L132.684 161.216L134.494 159.655V158.92L129.763 153.612L129.252 149.823L129.043 146.778L129.595 146.056L132.078 145.52L134.077 145.568L134.649 147.94L135.012 150.937L140.161 156.774L141.244 156.988L141.776 156.644L142.785 156.41L143.606 155.833L143.196 150.312L143.041 146.998L142.731 145.265V143.581L143.243 142.9L143.552 141.951L144.427 141.635L145.093 142.316L145.45 142.845L146.069 143.478L146.325 145.162L146.48 147.63L147.099 150.47L147.462 153.99L150.309 154.079L151.891 153.571L153.459 153.591L155.592 153.103L156.622 152.842L157.994 152.67L158.055 150.47L157.496 149.844L157.342 148.847L157.288 147.898L157.651 146.791L158.015 145.478L158.836 144.481L159.811 144.165L160.585 143.643L162.645 144.014L163.331 144.605L163.977 145.698L165.263 146.853L166.393 147.692L167.934 147.953L168.654 148.792L168.755 150.738H173.13L173.789 150.064L173.803 149.927L173.83 149.665L173.951 147.493L174.361 146.386L174.516 145.018L174.927 144.227L176.421 144.069L177.194 143.698L177.861 142.701L179.402 142.646L180.687 142.749L181.973 142.962L183.621 143.12L185.115 144.227L187.377 146.07L189.745 148.222L191.852 149.693L193.4 150.635L193.555 150.147L193.918 149.198L194.1 148.16L194.127 145.85L194.436 145.169L194.49 144.474L194.591 142.694L194.9 141.326L195.311 138.383L195.722 136.595L196.186 135.915L198.333 134.003L199.457 131.707L199.941 130.545L200.816 130.022L202.047 129.919L202.922 130.022L203.528 130.421L203.185 131.604L201.57 133.886L199.483 135.894L198.662 137.523L198.252 140.26L197.996 142.102L197.586 146.571L197.074 150.882V152.037L197.438 151.721L197.902 151.144H198.831L199.14 150.669L201.099 150.724L202.694 151.357L205.473 152.305L208.353 153.144L212.108 153.983L215.144 154.561L218.643 155.613L221.887 156.506L225.023 156.451L227.338 156.135L230.064 156.08L229.902 154.801L229.034 153.344L228.57 151.769L228.058 150.401L226.874 149.878L227.028 149.04L227.129 148.723L226.463 148.407L226.409 147.458L226.827 146.757L226.503 145.939L224.915 144.825L224.66 144.048L223.421 143.773L222.075 143.209L219.505 143.031L218.589 143.306L217.095 142.886L216.786 142.412L216.685 141.779L217.97 141.463L219.565 141.518L220.904 141.415H222.661L224.478 141.635L225.541 142.013L226.719 142.776L227.695 143.725L228.516 144.619L229.182 145.093L229.956 146.723L230.265 148.565L231.14 150.25L232.015 151.508L232.116 153.137L233.401 154.1L234.99 156.149L235.737 157.345L236.538 158.163L237.184 158.383L237.984 158.871L238.227 159.133L238.018 160.357L237.776 162.206L236.511 164.585L241.047 167.641ZM98.9531 154.673V171.526H107.367L106.168 169.198L103.901 164.757L99.5867 156.988L99.2973 155.31L98.9531 154.673ZM196.275 171.526L196.199 169.556L195.728 167.624L195.163 166.386L194.557 165.699L193.48 164.667L192.404 163.746L191.051 162.433L189.295 161.745L187.875 161.127L186.118 160.714L183.958 160.439L181.394 160.852L179.503 161.264L178.083 161.539L176.461 162.295L175.108 162.364L174.099 162.502L172.813 163.189L171.528 164.014L170.519 164.633L170.115 165.114V165.747L170.72 166.022L171.528 166.709L171.932 167.603L171.259 168.428L170.653 169.391H169.711L169.105 169.047L168.769 168.703L168.432 168.291L168.163 168.634L168.23 169.528L168.634 170.078L168.701 170.766L168.432 171.453L168.361 171.526H196.275ZM154.887 171.526H141.375L141.695 171.323L143.249 170.078L144.804 169.116L146.493 167.94L147.913 166.764L150.006 166.146L151.897 165.871L152.57 165.458L153.411 165.582L153.883 165.994L155.975 166.063L156.716 165.513L156.985 164.337L157.86 163.65L159.414 163.444H160.767L161.373 163.856L161.171 165.307L160.229 165.926L159.623 166.338L158.405 167.445L156.581 168.896L155.706 169.721L154.966 171.103L154.887 171.526ZM163.479 153.681H161.985L161.191 153.172L160.895 152.464V151.446L160.747 150.126L160.451 149.315L160.202 148.297L159.953 147.582L159.852 146.819L160 146.159L160.7 146.111L161.346 146.262L161.797 146.819L162.295 147.527L163.486 148.799L163.984 149.562L164.233 150.119L164.132 150.779L164.031 151.391L163.93 153.268L163.479 153.681Z"/>
</mask>
<path d="M233.093 171.526V173.526H239.329L234.256 169.899L233.093 171.526ZM221.689 171.526L219.974 170.497L218.156 173.526H221.689V171.526ZM228.395 168.167L229.558 166.54L229.445 166.459L229.322 166.395L228.395 168.167ZM227.055 167.466L227.983 165.694L227.693 165.542L227.37 165.491L227.055 167.466ZM225.716 167.253L226.03 165.277L225.715 165.227L225.399 165.278L225.716 167.253ZM224.175 167.5L223.858 165.525L223.018 165.66L222.533 166.358L224.175 167.5ZM223.664 168.236L222.021 167.094L221.983 167.149L221.949 167.207L223.664 168.236ZM241.047 29.4319H243.047V27.4319H241.047V29.4319ZM241.047 167.641L239.93 169.3L243.047 171.399V167.641H241.047ZM125.076 29.4319V27.4319H123.925L123.347 28.4259L125.076 29.4319ZM124.433 30.5358L124.905 32.4793L125.733 32.2782L126.162 31.5419L124.433 30.5358ZM123.471 30.7696L122.999 28.8261L122.729 28.8916L122.487 29.028L123.471 30.7696ZM122.959 31.0584L121.976 29.3168L121.013 29.8607L120.961 30.9658L122.959 31.0584ZM122.905 32.2203L120.908 32.1277L120.89 32.5136L121.017 32.8783L122.905 32.2203ZM123.188 33.0316L121.299 33.6896L121.421 34.0401L121.661 34.3234L123.188 33.0316ZM123.531 33.4372L125.53 33.3566L125.502 32.67L125.058 32.1454L123.531 33.4372ZM123.585 34.7711L124.786 36.3701L125.626 35.7395L125.583 34.6904L123.585 34.7711ZM123.356 34.9429L122.155 33.3439L121.54 33.8061L121.393 34.5616L123.356 34.9429ZM123.188 35.8092L121.225 35.4279L121.21 35.5049L121.201 35.5828L123.188 35.8092ZM123.074 36.813L125.002 37.3443L125.043 37.1942L125.061 37.0395L123.074 36.813ZM122.818 37.7412L120.89 37.21L120.818 37.4707V37.7412H122.818ZM122.818 38.6694L123.082 40.6519L124.818 40.4206V38.6694H122.818ZM122.508 38.7106L122.244 36.7282L120.701 36.9338L120.522 38.4802L122.508 38.7106ZM122.34 40.1613L124.133 41.0475L124.287 40.7365L124.327 40.3918L122.34 40.1613ZM121.997 40.8558L120.204 39.9696L120.001 40.38L119.997 40.8379L121.997 40.8558ZM121.943 46.8855L119.943 46.8676L119.943 46.924L119.945 46.9804L121.943 46.8855ZM121.977 47.5936L123.762 48.496L123.999 48.0254L123.974 47.4987L121.977 47.5936ZM121.66 48.2193L119.875 47.3169L119.703 47.6587L119.668 48.0401L121.66 48.2193ZM121.546 49.4912L119.554 49.3121L119.532 49.5605L119.571 49.8069L121.546 49.4912ZM121.654 50.165L123.401 51.1375L123.738 50.5328L123.629 49.8494L121.654 50.165ZM121.095 51.1688L121.336 53.1542L122.347 53.0314L122.843 52.1413L121.095 51.1688ZM120.133 51.2857L119.892 49.3003L118.501 49.4691L118.184 50.8335L120.133 51.2857ZM119.978 51.9526L121.64 53.0655L121.843 52.7614L121.926 52.4048L119.978 51.9526ZM119.453 52.7364L117.791 51.6235L117.493 52.069L117.457 52.604L119.453 52.7364ZM119.399 53.5477L120.828 54.9467L121.346 54.4181L121.395 53.6801L119.399 53.5477ZM118.948 54.0083L119.261 55.9837L119.915 55.8801L120.378 55.4073L118.948 54.0083ZM118.168 54.1321L117.854 52.1568L117.74 52.1748L117.629 52.2059L118.168 54.1321ZM117.454 54.3315L116.916 52.4053L116.4 52.5495L116.025 52.9325L117.454 54.3315ZM117.003 54.7921L115.574 53.3931L115.438 53.5323L115.331 53.6952L117.003 54.7921ZM116.566 55.459L114.894 54.3621L114.58 54.8398L114.567 55.4108L116.566 55.459ZM116.532 56.8547L118.488 57.2745L118.527 57.0908L118.532 56.9029L116.532 56.8547ZM116.364 57.6385L118.135 58.568L118.262 58.3257L118.319 58.0583L116.364 57.6385ZM114.419 61.3444L116.159 62.3308L116.175 62.3025L116.19 62.2738L114.419 61.3444ZM113.706 62.6025L111.966 61.6161L111.829 61.8576L111.763 62.1272L113.706 62.6025ZM113.383 63.9226L115.058 65.0156L115.244 64.7297L115.325 64.398L113.383 63.9226ZM112.737 64.9127L111.062 63.8197L110.872 64.111L110.791 64.4494L112.737 64.9127ZM112.313 66.6934L113.697 68.1372L114.122 67.7296L114.258 67.1566L112.313 66.6934ZM111.768 67.2159L110.384 65.7721L109.768 66.3626V67.2159H111.768ZM111.768 68.0203L112.124 69.9883L113.768 69.6908V68.0203H111.768ZM111.236 68.1166L110.88 66.1486L110.597 66.1998L110.339 66.3288L111.236 68.1166ZM110.496 68.4879L111.216 70.3538L111.306 70.319L111.392 70.2756L110.496 68.4879ZM109.23 68.976L108.511 67.1101L107.305 67.5752L107.234 68.8654L109.23 68.976ZM109.19 69.7048V71.7048H111.082L111.187 69.8154L109.19 69.7048ZM108.45 69.7048L108.238 71.6936L108.344 71.7048H108.45V69.7048ZM107.804 69.6361L108.015 67.6473L106.929 67.5317L106.245 68.3835L107.804 69.6361ZM107.218 70.3648L105.659 69.1122L105.32 69.5346L105.24 70.0705L107.218 70.3648ZM107.09 71.2243L108.767 72.315L109.004 71.9497L109.069 71.5186L107.09 71.2243ZM106.316 72.4137L104.64 71.323L104.581 71.4136L104.532 71.5102L106.316 72.4137ZM105.213 74.5932L103.429 73.6896L103.394 73.7569L103.366 73.8266L105.213 74.5932ZM104.499 76.312L106.234 77.3076L106.298 77.1967L106.347 77.0787L104.499 76.312ZM103.402 78.2234L101.668 77.2279L101.659 77.2429L101.651 77.258L103.402 78.2234ZM102.561 79.7497L100.81 78.7843L100.796 78.8099L100.782 78.8358L102.561 79.7497ZM101.781 81.2692L103.528 82.2427L103.544 82.2132L103.56 82.1831L101.781 81.2692ZM101.007 82.658L102.751 83.6374L102.754 83.6316L101.007 82.658ZM99.829 84.755L101.235 86.1771L101.435 85.9794L101.573 85.7343L99.829 84.755ZM98.9878 85.5869L100.054 87.2788L100.239 87.1624L100.394 87.009L98.9878 85.5869ZM98.9531 85.6087L97.8866 83.9168L96.9531 84.5053V85.6087H98.9531ZM98.9531 139.68H96.9531V140.589L97.6379 141.187L98.9531 139.68ZM99.8223 140.439L98.507 141.945L99.9748 143.227L101.294 141.793L99.8223 140.439ZM102.036 138.032L100.665 136.576L100.613 136.625L100.565 136.678L102.036 138.032ZM104.19 136.004L105.561 137.46L105.583 137.44L105.604 137.419L104.19 136.004ZM105.731 134.464L104.546 132.853L104.424 132.942L104.317 133.049L105.731 134.464ZM107.03 133.508L107.874 131.695L106.799 131.195L105.845 131.897L107.03 133.508ZM108.093 134.003L109.555 132.639L109.29 132.354L108.937 132.19L108.093 134.003ZM109.056 135.035L110.532 133.686L110.525 133.678L110.518 133.67L109.056 135.035ZM109.803 135.853L111.785 136.114L111.907 135.191L111.279 134.504L109.803 135.853ZM109.695 136.671L111.294 137.872L111.609 137.452L111.678 136.932L109.695 136.671ZM107.763 139.242L109.221 140.612L109.296 140.532L109.363 140.443L107.763 139.242ZM106.458 140.631L107.777 142.135L107.849 142.071L107.915 142.001L106.458 140.631ZM105.267 141.676L103.948 140.173L103.891 140.223L103.837 140.277L105.267 141.676ZM104.641 142.316L103.212 140.917L102.957 141.177L102.81 141.51L104.641 142.316ZM104.129 143.478L102.299 142.672L102.047 143.245L102.166 143.859L104.129 143.478ZM104.298 144.344L102.334 144.725L102.463 145.387L102.966 145.836L104.298 144.344ZM105.146 145.1L106.701 143.843L106.599 143.716L106.477 143.608L105.146 145.1ZM105.94 146.083L104.384 147.34L104.466 147.442L104.56 147.532L105.94 146.083ZM106.734 146.84L105.354 148.288L105.934 148.84H106.734V146.84ZM107.413 146.84V148.84H108.181L108.751 148.326L107.413 146.84ZM107.864 146.434L109.202 147.921L109.333 147.803L109.441 147.665L107.864 146.434ZM108.315 145.856L109.892 147.087L109.9 147.077L109.908 147.066L108.315 145.856ZM109.109 144.811L107.939 143.189L107.697 143.364L107.517 143.601L109.109 144.811ZM110.072 144.117L111.242 145.739L111.497 145.554L111.684 145.3L110.072 144.117ZM111.263 142.494L109.866 141.063L109.748 141.178L109.651 141.311L111.263 142.494ZM112.454 141.332L111.061 139.897L111.058 139.901L112.454 141.332ZM113.531 140.287L112.804 138.424L112.428 138.571L112.138 138.852L113.531 140.287ZM114.271 139.999L113.874 138.038L113.705 138.073L113.544 138.135L114.271 139.999ZM115.119 139.827L115.651 137.899L115.19 137.772L114.722 137.867L115.119 139.827ZM115.967 140.06L117.284 138.555L116.939 138.254L116.499 138.132L115.967 140.06ZM116.761 140.755L118.74 141.044L118.897 139.966L118.078 139.249L116.761 140.755ZM116.532 142.322L118.106 143.557L118.434 143.138L118.511 142.611L116.532 142.322ZM115.853 143.189L117.282 144.588L117.358 144.509L117.426 144.423L115.853 143.189ZM115.112 143.945L116.467 145.416L116.505 145.381L116.542 145.344L115.112 143.945ZM113.41 145.513L112.055 144.041L111.935 144.152L111.834 144.281L113.41 145.513ZM111.142 148.414L112.639 149.739L112.68 149.694L112.717 149.646L111.142 148.414ZM108.477 151.425L109.295 153.25L109.689 153.074L109.974 152.751L108.477 151.425ZM107.649 151.797L106.83 149.972L104.943 150.818L105.853 152.676L107.649 151.797ZM108.033 152.58L106.236 153.46L106.474 153.945L106.924 154.245L108.033 152.58ZM109.271 153.406L108.162 155.07L108.579 155.348L109.077 155.396L109.271 153.406ZM109.836 153.461L109.643 155.451L110.363 155.521L110.962 155.114L109.836 153.461ZM110.684 152.883L111.81 154.536L111.933 154.452L112.042 154.352L110.684 152.883ZM111.249 152.36V150.36H110.467L109.892 150.892L111.249 152.36ZM112.326 152.36L113.979 151.235L113.384 150.36H112.326V152.36ZM113.235 153.694L111.582 154.82L111.658 154.933L111.749 155.034L113.235 153.694ZM114.338 154.918L116.231 154.272L116.099 153.884L115.824 153.579L114.338 154.918ZM114.594 155.668L116.588 155.822L116.62 155.411L116.487 155.022L114.594 155.668ZM114.54 156.362L116.091 157.625L116.486 157.14L116.534 156.517L114.54 156.362ZM113.975 157.056L115.242 158.604L115.398 158.476L115.526 158.319L113.975 157.056ZM113.127 157.751L111.86 156.203L110.865 157.018L111.193 158.262L113.127 157.751ZM113.356 158.617L111.422 159.128L111.548 159.602L111.878 159.965L113.356 158.617ZM114.096 159.428L115.74 158.289L115.664 158.179L115.574 158.08L114.096 159.428ZM115.058 160.817L113.415 161.956L113.499 162.079L113.601 162.187L115.058 160.817ZM116.532 162.385L115.075 163.755L115.251 163.942L115.469 164.078L116.532 162.385ZM117.266 162.845L118.811 161.576L118.605 161.325L118.329 161.152L117.266 162.845ZM119.305 165.327L121.158 164.574L121.043 164.293L120.85 164.058L119.305 165.327ZM119.816 166.586L117.964 167.339L119.029 169.96L121.145 168.081L119.816 166.586ZM122.185 164.482L120.969 162.894L120.911 162.938L120.857 162.986L122.185 164.482ZM123.424 163.533L123.824 161.573L122.931 161.391L122.207 161.945L123.424 163.533ZM124.197 163.691L125.754 162.436L125.303 161.876L124.598 161.732L124.197 163.691ZM125.173 164.901L126.731 163.646L126.73 163.646L125.173 164.901ZM126.613 166.689L125.056 167.943L126.45 169.673L128.024 168.107L126.613 166.689ZM128.673 164.64L127.437 163.067L127.345 163.139L127.262 163.222L128.673 164.64ZM131.351 162.536L132.587 164.109L132.677 164.038L132.759 163.957L131.351 162.536ZM132.684 161.216L131.378 159.701L131.325 159.746L131.276 159.795L132.684 161.216ZM134.494 159.655L135.8 161.17L136.494 160.572V159.655H134.494ZM134.494 158.92H136.494V158.158L135.987 157.589L134.494 158.92ZM129.763 153.612L127.781 153.879L127.863 154.486L128.27 154.943L129.763 153.612ZM129.252 149.823L127.256 149.96L127.261 150.026L127.27 150.091L129.252 149.823ZM129.043 146.778L127.454 145.563L126.996 146.162L127.048 146.914L129.043 146.778ZM129.595 146.056L129.173 144.101L128.453 144.256L128.006 144.841L129.595 146.056ZM132.078 145.52L132.126 143.52L131.888 143.514L131.656 143.565L132.078 145.52ZM134.077 145.568L136.021 145.099L135.661 143.605L134.125 143.568L134.077 145.568ZM134.649 147.94L136.634 147.699L136.62 147.584L136.593 147.471L134.649 147.94ZM135.012 150.937L133.027 151.178L133.102 151.794L133.512 152.26L135.012 150.937ZM140.161 156.774L138.661 158.097L139.109 158.606L139.774 158.737L140.161 156.774ZM141.244 156.988L140.858 158.95L141.651 159.106L142.33 158.667L141.244 156.988ZM141.776 156.644L141.324 154.695L140.984 154.774L140.69 154.964L141.776 156.644ZM142.785 156.41L143.236 158.359L143.617 158.27L143.936 158.046L142.785 156.41ZM143.606 155.833L144.757 157.468L145.685 156.816L145.601 155.684L143.606 155.833ZM143.196 150.312L141.198 150.405L141.199 150.432L141.201 150.46L143.196 150.312ZM143.041 146.998L145.039 146.904L145.033 146.774L145.01 146.646L143.041 146.998ZM142.731 145.265H140.731V145.442L140.762 145.617L142.731 145.265ZM142.731 143.581L141.132 142.379L140.731 142.913V143.581H142.731ZM143.243 142.9L144.842 144.101L145.041 143.836L145.144 143.52L143.243 142.9ZM143.552 141.951L142.872 140.07L141.954 140.402L141.651 141.331L143.552 141.951ZM144.427 141.635L145.856 140.236L144.957 139.317L143.747 139.754L144.427 141.635ZM145.093 142.316L146.752 141.198L146.65 141.047L146.523 140.917L145.093 142.316ZM145.45 142.845L143.791 143.962L143.893 144.114L144.021 144.244L145.45 142.845ZM146.069 143.478L148.047 143.177L147.95 142.54L147.499 142.079L146.069 143.478ZM146.325 145.162L148.321 145.037L148.316 144.949L148.302 144.862L146.325 145.162ZM146.48 147.63L144.484 147.755L144.493 147.907L144.526 148.056L146.48 147.63ZM147.099 150.47L149.088 150.264L149.077 150.153L149.053 150.044L147.099 150.47ZM147.462 153.99L145.473 154.195L145.652 155.934L147.4 155.989L147.462 153.99ZM150.309 154.079L150.246 156.078L150.592 156.089L150.922 155.983L150.309 154.079ZM151.891 153.571L151.917 151.571L151.59 151.566L151.278 151.667L151.891 153.571ZM153.459 153.591L153.432 155.591L153.671 155.594L153.905 155.541L153.459 153.591ZM155.592 153.103L156.038 155.053L156.061 155.047L156.084 155.042L155.592 153.103ZM156.622 152.842L156.373 150.857L156.25 150.873L156.13 150.903L156.622 152.842ZM157.994 152.67L158.243 154.654L159.946 154.441L159.994 152.725L157.994 152.67ZM158.055 150.47L160.054 150.525L160.076 149.731L159.547 149.138L158.055 150.47ZM157.496 149.844L155.52 150.151L155.611 150.735L156.004 151.176L157.496 149.844ZM157.342 148.847L155.345 148.96L155.35 149.058L155.365 149.154L157.342 148.847ZM157.288 147.898L155.388 147.275L155.27 147.634L155.291 148.012L157.288 147.898ZM157.651 146.791L159.551 147.415L159.566 147.37L159.579 147.325L157.651 146.791ZM158.015 145.478L156.471 144.207L156.2 144.535L156.087 144.945L158.015 145.478ZM158.836 144.481L158.219 142.579L157.663 142.759L157.292 143.21L158.836 144.481ZM159.811 144.165L160.428 146.068L160.697 145.981L160.931 145.823L159.811 144.165ZM160.585 143.643L160.94 141.674L160.14 141.53L159.466 141.985L160.585 143.643ZM162.645 144.014L163.95 142.498L163.537 142.142L163 142.046L162.645 144.014ZM163.331 144.605L165.053 143.588L164.886 143.304L164.636 143.09L163.331 144.605ZM163.977 145.698L162.255 146.716L162.412 146.98L162.64 147.186L163.977 145.698ZM165.263 146.853L163.926 148.341L163.996 148.404L164.071 148.46L165.263 146.853ZM166.393 147.692L165.201 149.298L165.586 149.584L166.059 149.664L166.393 147.692ZM167.934 147.953L169.452 146.651L168.981 146.102L168.269 145.982L167.934 147.953ZM168.654 148.792L170.652 148.689L170.616 148.007L170.172 147.489L168.654 148.792ZM168.755 150.738L166.758 150.842L166.856 152.738H168.755V150.738ZM173.13 150.738V152.738H173.971L174.559 152.137L173.13 150.738ZM173.789 150.064L175.218 151.463L175.711 150.96L175.78 150.259L173.789 150.064ZM173.803 149.927L171.813 149.722L171.812 149.732L173.803 149.927ZM173.83 149.665L175.819 149.87L175.824 149.824L175.826 149.777L173.83 149.665ZM173.951 147.493L172.076 146.797L171.971 147.08L171.954 147.381L173.951 147.493ZM174.361 146.386L176.236 147.081L176.321 146.853L176.349 146.611L174.361 146.386ZM174.516 145.018L172.741 144.096L172.57 144.425L172.529 144.793L174.516 145.018ZM174.927 144.227L174.716 142.238L173.647 142.351L173.152 143.305L174.927 144.227ZM176.421 144.069L176.631 146.058L176.974 146.021L177.286 145.872L176.421 144.069ZM177.194 143.698L178.06 145.501L178.553 145.264L178.857 144.809L177.194 143.698ZM177.861 142.701L177.789 140.702L176.767 140.738L176.198 141.589L177.861 142.701ZM179.402 142.646L179.562 140.652L179.446 140.643L179.33 140.647L179.402 142.646ZM180.687 142.749L181.014 140.776L180.931 140.762L180.847 140.755L180.687 142.749ZM181.973 142.962L181.645 144.935L181.713 144.946L181.782 144.953L181.973 142.962ZM183.621 143.12L184.812 141.513L184.365 141.182L183.812 141.129L183.621 143.12ZM185.115 144.227L186.379 142.676L186.343 142.647L186.306 142.62L185.115 144.227ZM187.377 146.07L188.721 144.589L188.682 144.553L188.64 144.519L187.377 146.07ZM189.745 148.222L188.401 149.702L188.495 149.788L188.6 149.861L189.745 148.222ZM191.852 149.693L190.707 151.332L190.758 151.369L190.812 151.401L191.852 149.693ZM193.4 150.635L192.36 152.343L194.536 153.668L195.306 151.239L193.4 150.635ZM193.555 150.147L191.687 149.431L191.666 149.486L191.648 149.542L193.555 150.147ZM193.918 149.198L195.786 149.913L195.855 149.733L195.888 149.543L193.918 149.198ZM194.1 148.16L196.07 148.504L196.098 148.345L196.099 148.183L194.1 148.16ZM194.127 145.85L192.306 145.022L192.132 145.405L192.127 145.826L194.127 145.85ZM194.436 145.169L196.257 145.997L196.403 145.675L196.43 145.323L194.436 145.169ZM194.49 144.474L196.484 144.629L196.486 144.608L196.487 144.588L194.49 144.474ZM194.591 142.694L192.64 142.252L192.604 142.415L192.594 142.581L194.591 142.694ZM194.9 141.326L196.851 141.767L196.87 141.685L196.881 141.602L194.9 141.326ZM195.311 138.383L193.362 137.935L193.342 138.02L193.33 138.107L195.311 138.383ZM195.722 136.595L194.069 135.468L193.857 135.78L193.772 136.148L195.722 136.595ZM196.186 135.915L194.856 134.421L194.672 134.584L194.534 134.787L196.186 135.915ZM198.333 134.003L199.663 135.497L199.956 135.236L200.129 134.882L198.333 134.003ZM199.457 131.707L201.253 132.586L201.279 132.532L201.302 132.477L199.457 131.707ZM199.941 130.545L198.916 128.828L198.349 129.166L198.095 129.775L199.941 130.545ZM200.816 130.022L200.649 128.029L200.188 128.068L199.79 128.305L200.816 130.022ZM202.047 129.919L202.282 127.933L202.081 127.909L201.881 127.926L202.047 129.919ZM202.922 130.022L204.022 128.352L203.627 128.092L203.157 128.036L202.922 130.022ZM203.528 130.421L205.449 130.979L205.86 129.562L204.628 128.751L203.528 130.421ZM203.185 131.604L204.817 132.759L205.012 132.484L205.106 132.161L203.185 131.604ZM201.57 133.886L202.956 135.327L203.093 135.196L203.202 135.042L201.57 133.886ZM199.483 135.894L198.097 134.453L197.851 134.689L197.697 134.994L199.483 135.894ZM198.662 137.523L196.876 136.623L196.732 136.91L196.685 137.227L198.662 137.523ZM198.252 140.26L196.274 139.963L196.272 139.974L196.271 139.985L198.252 140.26ZM197.996 142.102L196.015 141.827L196.009 141.873L196.005 141.919L197.996 142.102ZM197.586 146.571L199.572 146.807L199.575 146.781L199.577 146.754L197.586 146.571ZM197.074 150.882L195.088 150.647L195.074 150.764V150.882H197.074ZM197.074 152.037H195.074V156.43L198.387 153.546L197.074 152.037ZM197.438 151.721L198.751 153.23L198.885 153.113L198.996 152.974L197.438 151.721ZM197.902 151.144V149.144H196.944L196.343 149.89L197.902 151.144ZM198.831 151.144V153.144H199.914L200.506 152.237L198.831 151.144ZM199.14 150.669L199.196 148.67L198.077 148.638L197.465 149.576L199.14 150.669ZM201.099 150.724L201.836 148.865L201.508 148.735L201.155 148.725L201.099 150.724ZM202.694 151.357L201.956 153.216L202.001 153.234L202.047 153.249L202.694 151.357ZM205.473 152.305L204.827 154.198L204.87 154.213L204.914 154.226L205.473 152.305ZM208.353 153.144L207.794 155.065L207.855 155.082L207.917 155.096L208.353 153.144ZM212.108 153.983L211.673 155.935L211.703 155.942L211.735 155.948L212.108 153.983ZM215.144 154.561L215.719 152.645L215.62 152.615L215.517 152.596L215.144 154.561ZM218.643 155.613L218.067 157.528L218.09 157.535L218.112 157.541L218.643 155.613ZM221.887 156.506L221.356 158.434L221.634 158.511L221.922 158.506L221.887 156.506ZM225.023 156.451L225.058 158.451L225.176 158.449L225.294 158.433L225.023 156.451ZM227.338 156.135L227.298 154.135L227.182 154.138L227.067 154.153L227.338 156.135ZM230.064 156.08L230.104 158.08L232.326 158.035L232.048 155.829L230.064 156.08ZM229.902 154.801L231.886 154.551L231.834 154.136L231.62 153.778L229.902 154.801ZM229.034 153.344L227.116 153.909L227.187 154.151L227.316 154.367L229.034 153.344ZM228.57 151.769L230.488 151.203L230.468 151.135L230.443 151.069L228.57 151.769ZM228.058 150.401L229.931 149.701L229.636 148.911L228.865 148.571L228.058 150.401ZM226.874 149.878L224.907 149.516L224.62 151.07L226.066 151.708L226.874 149.878ZM227.028 149.04L225.123 148.431L225.085 148.552L225.062 148.677L227.028 149.04ZM227.129 148.723L229.035 149.332L229.566 147.666L227.987 146.917L227.129 148.723ZM226.463 148.407L224.466 148.52L224.534 149.705L225.605 150.214L226.463 148.407ZM226.409 147.458L224.69 146.436L224.378 146.961L224.412 147.572L226.409 147.458ZM226.827 146.757L228.545 147.78L229.047 146.936L228.687 146.023L226.827 146.757ZM226.503 145.939L228.364 145.204L228.143 144.646L227.652 144.301L226.503 145.939ZM224.915 144.825L223.016 145.45L223.223 146.081L223.767 146.463L224.915 144.825ZM224.66 144.048L226.559 143.423L226.204 142.342L225.093 142.096L224.66 144.048ZM223.421 143.773L222.649 145.618L222.813 145.687L222.988 145.726L223.421 143.773ZM222.075 143.209L222.848 141.365L222.543 141.237L222.214 141.214L222.075 143.209ZM219.505 143.031L219.643 141.035L219.279 141.01L218.929 141.115L219.505 143.031ZM218.589 143.306L218.049 145.231L218.608 145.388L219.165 145.221L218.589 143.306ZM217.095 142.886L215.42 143.979L215.831 144.609L216.555 144.812L217.095 142.886ZM216.786 142.412L214.811 142.727L214.878 143.148L215.111 143.505L216.786 142.412ZM216.685 141.779L216.207 139.837L214.42 140.277L214.71 142.094L216.685 141.779ZM217.97 141.463L218.039 139.464L217.762 139.455L217.492 139.521L217.97 141.463ZM219.565 141.518L219.496 143.517L219.608 143.521L219.719 143.512L219.565 141.518ZM220.904 141.415V139.415H220.827L220.751 139.421L220.904 141.415ZM222.661 141.415L222.901 139.429L222.781 139.415H222.661V141.415ZM224.478 141.635L225.148 139.751L224.939 139.676L224.718 139.649L224.478 141.635ZM225.541 142.013L226.629 140.335L226.432 140.207L226.211 140.129L225.541 142.013ZM226.719 142.776L228.113 141.342L227.972 141.205L227.806 141.098L226.719 142.776ZM227.695 143.725L229.168 142.372L229.129 142.33L229.089 142.291L227.695 143.725ZM228.516 144.619L227.043 145.972L227.185 146.126L227.356 146.248L228.516 144.619ZM229.182 145.093L230.989 144.235L230.765 143.766L230.342 143.464L229.182 145.093ZM229.956 146.723L231.928 146.391L231.882 146.116L231.762 145.865L229.956 146.723ZM230.265 148.565L228.293 148.897L228.345 149.207L228.491 149.487L230.265 148.565ZM231.14 150.25L229.365 151.172L229.425 151.286L229.498 151.392L231.14 150.25ZM232.015 151.508L234.011 151.384L233.977 150.826L233.657 150.366L232.015 151.508ZM232.116 153.137L230.12 153.261L230.177 154.184L230.917 154.738L232.116 153.137ZM233.401 154.1L234.982 152.875L234.817 152.661L234.6 152.499L233.401 154.1ZM234.99 156.149L236.686 155.09L236.632 155.004L236.57 154.924L234.99 156.149ZM235.737 157.345L234.04 158.404L234.155 158.589L234.307 158.744L235.737 157.345ZM236.538 158.163L235.108 159.562L235.442 159.903L235.893 160.057L236.538 158.163ZM237.184 158.383L238.225 156.676L238.037 156.561L237.828 156.49L237.184 158.383ZM237.984 158.871L239.451 157.511L239.262 157.308L239.025 157.164L237.984 158.871ZM238.227 159.133L240.198 159.469L240.364 158.496L239.693 157.773L238.227 159.133ZM238.018 160.357L236.047 160.02L236.04 160.058L236.035 160.097L238.018 160.357ZM237.776 162.206L239.542 163.145L239.712 162.825L239.759 162.466L237.776 162.206ZM236.511 164.585L234.745 163.646L233.899 165.237L235.393 166.244L236.511 164.585ZM98.9531 171.526H96.9531V173.526H98.9531V171.526ZM98.9531 154.673L100.713 153.722L96.9531 154.673H98.9531ZM107.367 171.526V173.526H110.646L109.145 170.611L107.367 171.526ZM106.168 169.198L104.387 170.108L104.39 170.114L106.168 169.198ZM103.901 164.757L105.682 163.847L105.666 163.816L105.649 163.786L103.901 164.757ZM99.5867 156.988L97.6158 157.328L97.6735 157.662L97.8382 157.958L99.5867 156.988ZM99.2973 155.31L101.268 154.97L101.213 154.647L101.057 154.359L99.2973 155.31ZM196.275 171.526V173.526H198.353L198.273 171.45L196.275 171.526ZM196.199 169.556L198.198 169.479L198.19 169.278L198.142 169.082L196.199 169.556ZM195.728 167.624L197.671 167.15L197.626 166.966L197.547 166.793L195.728 167.624ZM195.163 166.386L196.982 165.555L196.859 165.286L196.664 165.064L195.163 166.386ZM194.557 165.699L196.058 164.377L196.002 164.313L195.941 164.254L194.557 165.699ZM193.48 164.667L194.864 163.223L194.823 163.184L194.781 163.148L193.48 164.667ZM192.404 163.746L191.011 165.181L191.056 165.225L191.103 165.266L192.404 163.746ZM191.051 162.433L192.444 160.998L192.155 160.717L191.78 160.571L191.051 162.433ZM189.295 161.745L188.496 163.579L188.53 163.594L188.566 163.608L189.295 161.745ZM187.875 161.127L188.674 159.293L188.508 159.221L188.332 159.18L187.875 161.127ZM186.118 160.714L186.575 158.767L186.474 158.743L186.371 158.73L186.118 160.714ZM183.958 160.439L184.21 158.455L183.925 158.419L183.64 158.464L183.958 160.439ZM181.394 160.852L181.076 158.877L181.022 158.886L180.968 158.898L181.394 160.852ZM179.503 161.264L179.883 163.228L179.906 163.223L179.929 163.218L179.503 161.264ZM178.083 161.539L177.702 159.576L177.461 159.622L177.238 159.726L178.083 161.539ZM176.461 162.295L176.562 164.293L176.952 164.273L177.306 164.108L176.461 162.295ZM175.108 162.364L175.007 160.367L174.922 160.371L174.838 160.382L175.108 162.364ZM174.099 162.502L173.829 160.52L173.473 160.569L173.155 160.738L174.099 162.502ZM172.813 163.189L171.87 161.426L171.8 161.463L171.733 161.506L172.813 163.189ZM171.528 164.014L172.573 165.719L172.591 165.709L172.608 165.697L171.528 164.014ZM170.519 164.633L169.473 162.928L169.196 163.098L168.986 163.348L170.519 164.633ZM170.115 165.114L168.583 163.829L168.115 164.386V165.114H170.115ZM170.115 165.747H168.115V167.035L169.288 167.568L170.115 165.747ZM170.72 166.022L172.017 164.499L171.803 164.317L171.547 164.201L170.72 166.022ZM171.528 166.709L173.351 165.886L173.166 165.477L172.824 165.187L171.528 166.709ZM171.932 167.603L173.482 168.867L174.264 167.908L173.754 166.78L171.932 167.603ZM171.259 168.428L169.709 167.164L169.631 167.259L169.566 167.363L171.259 168.428ZM170.653 169.391V171.391H171.758L172.346 170.456L170.653 169.391ZM169.711 169.391L168.724 171.13L169.183 171.391H169.711V169.391ZM169.105 169.047L167.676 170.446L167.873 170.647L168.118 170.786L169.105 169.047ZM168.769 168.703L167.219 169.967L167.276 170.038L167.34 170.102L168.769 168.703ZM168.432 168.291L169.982 167.027L168.4 165.087L166.858 167.058L168.432 168.291ZM168.163 168.634L166.588 167.401L166.111 168.012L166.169 168.785L168.163 168.634ZM168.23 169.528L166.236 169.678L166.279 170.25L166.618 170.712L168.23 169.528ZM168.634 170.078L170.625 169.883L170.571 169.337L170.246 168.895L168.634 170.078ZM168.701 170.766L170.564 171.495L170.739 171.048L170.692 170.571L168.701 170.766ZM168.432 171.453L169.862 172.852L170.146 172.562L170.295 172.183L168.432 171.453ZM168.361 171.526L166.932 170.127L163.605 173.526H168.361V171.526ZM154.887 171.526V173.526H156.55L156.854 171.891L154.887 171.526ZM141.375 171.526L140.302 169.838L134.498 173.526H141.375V171.526ZM141.695 171.323L142.768 173.011L142.86 172.952L142.945 172.884L141.695 171.323ZM143.249 170.078L142.197 168.378L142.094 168.441L142 168.517L143.249 170.078ZM144.804 169.116L145.857 170.816L145.903 170.788L145.947 170.757L144.804 169.116ZM146.493 167.94L147.636 169.582L147.704 169.534L147.769 169.481L146.493 167.94ZM147.913 166.764L147.346 164.846L146.953 164.963L146.638 165.224L147.913 166.764ZM150.006 166.146L149.718 164.166L149.577 164.187L149.439 164.228L150.006 166.146ZM151.897 165.871L152.185 167.85L152.592 167.791L152.942 167.576L151.897 165.871ZM152.57 165.458L152.861 163.479L152.144 163.374L151.525 163.753L152.57 165.458ZM153.411 165.582L154.729 164.077L154.286 163.689L153.703 163.603L153.411 165.582ZM153.883 165.994L152.565 167.499L153.103 167.97L153.817 167.993L153.883 165.994ZM155.975 166.063L155.91 168.062L156.608 168.085L157.168 167.668L155.975 166.063ZM156.716 165.513L157.909 167.118L158.501 166.678L158.665 165.959L156.716 165.513ZM156.985 164.337L155.749 162.765L155.193 163.202L155.035 163.891L156.985 164.337ZM157.86 163.65L157.597 161.667L157.054 161.739L156.624 162.077L157.86 163.65ZM159.414 163.444V161.444H159.282L159.151 161.461L159.414 163.444ZM160.767 163.444L161.893 161.791L161.383 161.444H160.767V163.444ZM161.373 163.856L163.354 164.132L163.525 162.902L162.499 162.203L161.373 163.856ZM161.171 165.307L162.269 166.978L163.027 166.481L163.152 165.582L161.171 165.307ZM160.229 165.926L159.131 164.254L159.117 164.263L159.103 164.273L160.229 165.926ZM159.623 166.338L158.497 164.685L158.382 164.764L158.278 164.858L159.623 166.338ZM158.405 167.445L159.65 169.01L159.701 168.969L159.75 168.925L158.405 167.445ZM156.581 168.896L155.336 167.331L155.27 167.383L155.209 167.441L156.581 168.896ZM155.706 169.721L154.334 168.266L154.097 168.489L153.943 168.776L155.706 169.721ZM154.966 171.103L153.203 170.158L153.056 170.432L153 170.738L154.966 171.103ZM161.985 153.681L160.906 155.365L161.399 155.681H161.985V153.681ZM163.479 153.681V155.681H164.256L164.829 155.156L163.479 153.681ZM161.191 153.172L159.346 153.943L159.587 154.519L160.112 154.856L161.191 153.172ZM160.895 152.464H158.895V152.865L159.05 153.235L160.895 152.464ZM160.895 151.446H162.895V151.334L162.882 151.223L160.895 151.446ZM160.747 150.126L162.734 149.903L162.708 149.665L162.626 149.44L160.747 150.126ZM160.451 149.315L158.508 149.79L158.534 149.897L158.572 150L160.451 149.315ZM160.202 148.297L162.144 147.822L162.122 147.729L162.091 147.639L160.202 148.297ZM159.953 147.582L157.97 147.844L157.997 148.047L158.064 148.24L159.953 147.582ZM159.852 146.819L157.9 146.381L157.822 146.728L157.869 147.081L159.852 146.819ZM160 146.159L159.863 144.164L158.375 144.266L158.048 145.721L160 146.159ZM160.7 146.111L161.156 144.163L160.863 144.095L160.563 144.115L160.7 146.111ZM161.346 146.262L162.9 145.004L162.469 144.471L161.802 144.315L161.346 146.262ZM161.797 146.819L163.433 145.668L163.394 145.613L163.351 145.56L161.797 146.819ZM162.295 147.527L160.659 148.678L160.739 148.792L160.835 148.894L162.295 147.527ZM163.486 148.799L165.161 147.706L165.065 147.56L164.946 147.432L163.486 148.799ZM163.984 149.562L165.81 148.746L165.745 148.602L165.659 148.469L163.984 149.562ZM164.233 150.119L166.21 150.421L166.299 149.84L166.059 149.303L164.233 150.119ZM164.132 150.779L166.105 151.105L166.107 151.093L166.109 151.082L164.132 150.779ZM164.031 151.391L162.058 151.066L162.04 151.174L162.034 151.284L164.031 151.391ZM163.93 153.268L165.28 154.744L165.883 154.192L165.927 153.375L163.93 153.268ZM233.093 169.526H221.689V173.526H233.093V169.526ZM234.256 169.899L229.558 166.54L227.231 169.794L231.93 173.153L234.256 169.899ZM229.322 166.395L227.983 165.694L226.128 169.237L227.467 169.939L229.322 166.395ZM227.37 165.491L226.03 165.277L225.402 169.228L226.741 169.441L227.37 165.491ZM225.399 165.278L223.858 165.525L224.492 169.475L226.033 169.227L225.399 165.278ZM222.533 166.358L222.021 167.094L225.306 169.377L225.817 168.642L222.533 166.358ZM221.949 167.207L219.974 170.497L223.404 172.555L225.378 169.265L221.949 167.207ZM239.047 29.4319V167.641H243.047V29.4319H239.047ZM125.076 31.4319H241.047V27.4319H125.076V31.4319ZM123.347 28.4259L122.704 29.5298L126.162 31.5419L126.804 30.4379L123.347 28.4259ZM123.961 28.5923L122.999 28.8261L123.943 32.7131L124.905 32.4793L123.961 28.5923ZM122.487 29.028L121.976 29.3168L123.942 32.8L124.454 32.5112L122.487 29.028ZM120.961 30.9658L120.908 32.1277L124.903 32.3129L124.957 31.1509L120.961 30.9658ZM121.017 32.8783L121.299 33.6896L125.077 32.3736L124.794 31.5623L121.017 32.8783ZM121.661 34.3234L122.004 34.7291L125.058 32.1454L124.715 31.7397L121.661 34.3234ZM121.533 33.5179L121.587 34.8517L125.583 34.6904L125.53 33.3566L121.533 33.5179ZM122.384 33.172L122.155 33.3439L124.558 36.542L124.786 36.3701L122.384 33.172ZM121.393 34.5616L121.225 35.4279L125.151 36.1905L125.32 35.3242L121.393 34.5616ZM121.201 35.5828L121.086 36.5866L125.061 37.0395L125.175 36.0357L121.201 35.5828ZM121.145 36.2818L120.89 37.21L124.746 38.2725L125.002 37.3443L121.145 36.2818ZM120.818 37.7412V38.6694H124.818V37.7412H120.818ZM122.554 36.6869L122.244 36.7282L122.772 40.6931L123.082 40.6519L122.554 36.6869ZM120.522 38.4802L120.353 39.9309L124.327 40.3918L124.495 38.941L120.522 38.4802ZM120.547 39.2752L120.204 39.9696L123.79 41.7419L124.133 41.0475L120.547 39.2752ZM119.997 40.8379L119.943 46.8676L123.943 46.9033L123.997 40.8736L119.997 40.8379ZM119.945 46.9804L119.979 47.6885L123.974 47.4987L123.941 46.7905L119.945 46.9804ZM120.192 46.6913L119.875 47.3169L123.445 49.1216L123.762 48.496L120.192 46.6913ZM119.668 48.0401L119.554 49.3121L123.538 49.6704L123.652 48.3984L119.668 48.0401ZM119.571 49.8069L119.679 50.4806L123.629 49.8494L123.521 49.1756L119.571 49.8069ZM119.906 49.1925L119.347 50.1963L122.843 52.1413L123.401 51.1375L119.906 49.1925ZM120.854 49.1834L119.892 49.3003L120.374 53.2711L121.336 53.1542L120.854 49.1834ZM118.184 50.8335L118.03 51.5004L121.926 52.4048L122.081 51.7379L118.184 50.8335ZM118.316 50.8397L117.791 51.6235L121.115 53.8493L121.64 53.0655L118.316 50.8397ZM117.457 52.604L117.404 53.4153L121.395 53.6801L121.449 52.8688L117.457 52.604ZM117.97 52.1487L117.519 52.6093L120.378 55.4073L120.828 54.9467L117.97 52.1487ZM118.635 52.033L117.854 52.1568L118.481 56.1074L119.261 55.9837L118.635 52.033ZM117.629 52.2059L116.916 52.4053L117.993 56.2577L118.706 56.0583L117.629 52.2059ZM116.025 52.9325L115.574 53.3931L118.433 56.1911L118.884 55.7305L116.025 52.9325ZM115.331 53.6952L114.894 54.3621L118.238 56.556L118.676 55.889L115.331 53.6952ZM114.567 55.4108L114.533 56.8065L118.532 56.9029L118.565 55.5072L114.567 55.4108ZM114.577 56.435L114.409 57.2188L118.319 58.0583L118.488 57.2745L114.577 56.435ZM114.593 56.7091L112.648 60.4149L116.19 62.2738L118.135 58.568L114.593 56.7091ZM112.679 60.3579L111.966 61.6161L115.446 63.589L116.159 62.3308L112.679 60.3579ZM111.763 62.1272L111.44 63.4473L115.325 64.398L115.648 63.0779L111.763 62.1272ZM111.708 62.8296L111.062 63.8197L114.412 66.0057L115.058 65.0156L111.708 62.8296ZM110.791 64.4494L110.367 66.2302L114.258 67.1566L114.682 65.3759L110.791 64.4494ZM110.929 65.2496L110.384 65.7721L113.152 68.6597L113.697 68.1372L110.929 65.2496ZM109.768 67.2159V68.0203H113.768V67.2159H109.768ZM111.411 66.0523L110.88 66.1486L111.592 70.0846L112.124 69.9883L111.411 66.0523ZM110.339 66.3288L109.599 66.7001L111.392 70.2756L112.133 69.9043L110.339 66.3288ZM109.776 66.6219L108.511 67.1101L109.95 70.8419L111.216 70.3538L109.776 66.6219ZM107.234 68.8654L107.193 69.5942L111.187 69.8154L111.227 69.0867L107.234 68.8654ZM109.19 67.7048H108.45V71.7048H109.19V67.7048ZM108.661 67.716L108.015 67.6473L107.592 71.6248L108.238 71.6936L108.661 67.716ZM106.245 68.3835L105.659 69.1122L108.777 71.6174L109.363 70.8887L106.245 68.3835ZM105.24 70.0705L105.112 70.9299L109.069 71.5186L109.197 70.6592L105.24 70.0705ZM105.414 70.1335L104.64 71.323L107.993 73.5045L108.767 72.315L105.414 70.1335ZM104.532 71.5102L103.429 73.6896L106.997 75.4967L108.101 73.3173L104.532 71.5102ZM103.366 73.8266L102.652 75.5454L106.347 77.0787L107.06 75.3598L103.366 73.8266ZM102.765 75.3165L101.668 77.2279L105.137 79.2189L106.234 77.3076L102.765 75.3165ZM101.651 77.258L100.81 78.7843L104.313 80.7151L105.154 79.1888L101.651 77.258ZM100.782 78.8358L100.002 80.3552L103.56 82.1831L104.34 80.6637L100.782 78.8358ZM100.034 80.2956L99.2596 81.6845L102.754 83.6316L103.528 82.2427L100.034 80.2956ZM99.2629 81.6786L98.0852 83.7756L101.573 85.7343L102.751 83.6374L99.2629 81.6786ZM98.4227 83.3329L97.5814 84.1648L100.394 87.009L101.235 86.1771L98.4227 83.3329ZM97.9212 83.895L97.8866 83.9168L100.02 87.3006L100.054 87.2788L97.9212 83.895ZM100.953 139.68V85.6087H96.9531V139.68H100.953ZM97.6379 141.187L98.507 141.945L101.137 138.932L100.268 138.173L97.6379 141.187ZM101.294 141.793L103.508 139.386L100.565 136.678L98.3505 139.084L101.294 141.793ZM103.408 139.488L105.561 137.46L102.819 134.548L100.665 136.576L103.408 139.488ZM105.604 137.419L107.145 135.879L104.317 133.049L102.776 134.589L105.604 137.419ZM106.916 136.075L108.215 135.119L105.845 131.897L104.546 132.853L106.916 136.075ZM106.186 135.321L107.249 135.816L108.937 132.19L107.874 131.695L106.186 135.321ZM106.631 135.368L107.593 136.399L110.518 133.67L109.555 132.639L106.631 135.368ZM107.579 136.383L108.326 137.201L111.279 134.504L110.532 133.686L107.579 136.383ZM107.82 135.592L107.712 136.41L111.678 136.932L111.785 136.114L107.82 135.592ZM108.096 135.47L106.164 138.041L109.363 140.443L111.294 137.872L108.096 135.47ZM106.306 137.872L105.001 139.261L107.915 142.001L109.221 140.612L106.306 137.872ZM105.139 139.128L103.948 140.173L106.586 143.18L107.777 142.135L105.139 139.128ZM103.837 140.277L103.212 140.917L106.07 143.715L106.696 143.075L103.837 140.277ZM102.81 141.51L102.299 142.672L105.96 144.283L106.471 143.121L102.81 141.51ZM102.166 143.859L102.334 144.725L106.261 143.963L106.093 143.096L102.166 143.859ZM102.966 145.836L103.814 146.593L106.477 143.608L105.629 142.851L102.966 145.836ZM103.59 146.357L104.384 147.34L107.495 144.827L106.701 143.843L103.59 146.357ZM104.56 147.532L105.354 148.288L108.113 145.391L107.319 144.635L104.56 147.532ZM106.734 148.84H107.413V144.84H106.734V148.84ZM108.751 148.326L109.202 147.921L106.527 144.947L106.076 145.353L108.751 148.326ZM109.441 147.665L109.892 147.087L106.739 144.626L106.288 145.203L109.441 147.665ZM109.908 147.066L110.702 146.021L107.517 143.601L106.723 144.646L109.908 147.066ZM110.28 146.433L111.242 145.739L108.901 142.495L107.939 143.189L110.28 146.433ZM111.684 145.3L112.875 143.678L109.651 141.311L108.459 142.933L111.684 145.3ZM112.659 143.926L113.851 142.764L111.058 139.901L109.866 141.063L112.659 143.926ZM113.847 142.768L114.924 141.723L112.138 138.852L111.061 139.897L113.847 142.768ZM114.258 142.151L114.998 141.862L113.544 138.135L112.804 138.424L114.258 142.151ZM114.668 141.959L115.516 141.787L114.722 137.867L113.874 138.038L114.668 141.959ZM114.587 141.755L115.435 141.989L116.499 138.132L115.651 137.899L114.587 141.755ZM114.65 141.566L115.445 142.26L118.078 139.249L117.284 138.555L114.65 141.566ZM114.782 140.466L114.553 142.034L118.511 142.611L118.74 141.044L114.782 140.466ZM114.959 141.088L114.279 141.954L117.426 144.423L118.106 143.557L114.959 141.088ZM114.423 141.79L113.683 142.546L116.542 145.344L117.282 144.588L114.423 141.79ZM113.758 142.474L112.055 144.041L114.764 146.984L116.467 145.416L113.758 142.474ZM111.834 144.281L109.566 147.182L112.717 149.646L114.985 146.744L111.834 144.281ZM109.644 147.089L106.979 150.1L109.974 152.751L112.639 149.739L109.644 147.089ZM107.658 149.601L106.83 149.972L108.467 153.622L109.295 153.25L107.658 149.601ZM105.853 152.676L106.236 153.46L109.829 151.701L109.445 150.918L105.853 152.676ZM106.924 154.245L108.162 155.07L110.38 151.741L109.142 150.916L106.924 154.245ZM109.077 155.396L109.643 155.451L110.03 151.47L109.465 151.415L109.077 155.396ZM110.962 155.114L111.81 154.536L109.558 151.23L108.71 151.808L110.962 155.114ZM112.042 154.352L112.607 153.829L109.892 150.892L109.327 151.414L112.042 154.352ZM111.249 154.36H112.326V150.36H111.249V154.36ZM110.673 153.486L111.582 154.82L114.888 152.568L113.979 151.235L110.673 153.486ZM111.749 155.034L112.853 156.258L115.824 153.579L114.72 152.355L111.749 155.034ZM112.446 155.564L112.701 156.313L116.487 155.022L116.231 154.272L112.446 155.564ZM112.6 155.513L112.546 156.207L116.534 156.517L116.588 155.822L112.6 155.513ZM112.989 155.099L112.424 155.794L115.526 158.319L116.091 157.625L112.989 155.099ZM112.708 155.509L111.86 156.203L114.394 159.298L115.242 158.604L112.708 155.509ZM111.193 158.262L111.422 159.128L115.29 158.106L115.061 157.24L111.193 158.262ZM111.878 159.965L112.619 160.776L115.574 158.08L114.833 157.269L111.878 159.965ZM112.452 160.567L113.415 161.956L116.702 159.678L115.74 158.289L112.452 160.567ZM113.601 162.187L115.075 163.755L117.989 161.015L116.516 159.447L113.601 162.187ZM115.469 164.078L116.202 164.539L118.329 161.152L117.596 160.691L115.469 164.078ZM115.72 164.115L117.76 166.597L120.85 164.058L118.811 161.576L115.72 164.115ZM117.452 166.081L117.964 167.339L121.669 165.832L121.158 164.574L117.452 166.081ZM121.145 168.081L123.513 165.977L120.857 162.986L118.488 165.09L121.145 168.081ZM123.402 166.069L124.64 165.121L122.207 161.945L120.969 162.894L123.402 166.069ZM123.023 165.492L123.797 165.651L124.598 161.732L123.824 161.573L123.023 165.492ZM122.641 164.947L123.616 166.157L126.73 163.646L125.754 162.436L122.641 164.947ZM123.616 166.156L125.056 167.943L128.171 165.434L126.731 163.646L123.616 166.156ZM128.024 168.107L130.083 166.058L127.262 163.222L125.203 165.271L128.024 168.107ZM129.908 166.213L132.587 164.109L130.116 160.963L127.437 163.067L129.908 166.213ZM132.759 163.957L134.091 162.637L131.276 159.795L129.944 161.115L132.759 163.957ZM133.99 162.731L135.8 161.17L133.188 158.14L131.378 159.701L133.99 162.731ZM136.494 159.655V158.92H132.494V159.655H136.494ZM135.987 157.589L131.256 152.281L128.27 154.943L133.001 160.25L135.987 157.589ZM131.745 153.344L131.234 149.556L127.27 150.091L127.781 153.879L131.745 153.344ZM131.247 149.687L131.038 146.641L127.048 146.914L127.256 149.96L131.247 149.687ZM130.632 147.992L131.184 147.27L128.006 144.841L127.454 145.563L130.632 147.992ZM130.017 148.011L132.5 147.474L131.656 143.565L129.173 144.101L130.017 148.011ZM132.03 147.519L134.029 147.567L134.125 143.568L132.126 143.52L132.03 147.519ZM132.133 146.037L132.705 148.408L136.593 147.471L136.021 145.099L132.133 146.037ZM132.663 148.18L133.027 151.178L136.998 150.697L136.634 147.699L132.663 148.18ZM133.512 152.26L138.661 158.097L141.66 155.452L136.512 149.614L133.512 152.26ZM139.774 158.737L140.858 158.95L141.63 155.025L140.547 154.812L139.774 158.737ZM142.33 158.667L142.862 158.323L140.69 154.964L140.158 155.308L142.33 158.667ZM142.227 158.592L143.236 158.359L142.334 154.462L141.324 154.695L142.227 158.592ZM143.936 158.046L144.757 157.468L142.455 154.197L141.634 154.774L143.936 158.046ZM145.601 155.684L145.19 150.163L141.201 150.46L141.612 155.981L145.601 155.684ZM145.193 150.218L145.039 146.904L141.043 147.091L141.198 150.405L145.193 150.218ZM145.01 146.646L144.7 144.913L140.762 145.617L141.072 147.349L145.01 146.646ZM144.731 145.265V143.581H140.731V145.265H144.731ZM144.33 144.782L144.842 144.101L141.644 141.699L141.132 142.379L144.33 144.782ZM145.144 143.52L145.454 142.572L141.651 141.331L141.341 142.28L145.144 143.52ZM144.232 143.832L145.107 143.516L143.747 139.754L142.872 140.07L144.232 143.832ZM142.998 143.034L143.664 143.715L146.523 140.917L145.856 140.236L142.998 143.034ZM143.435 143.433L143.791 143.962L147.109 141.727L146.752 141.198L143.435 143.433ZM144.021 144.244L144.64 144.876L147.499 142.079L146.879 141.446L144.021 144.244ZM144.092 143.778L144.348 145.462L148.302 144.862L148.047 143.177L144.092 143.778ZM144.329 145.287L144.484 147.755L148.476 147.505L148.321 145.037L144.329 145.287ZM144.526 148.056L145.145 150.896L149.053 150.044L148.434 147.204L144.526 148.056ZM145.109 150.675L145.473 154.195L149.452 153.785L149.088 150.264L145.109 150.675ZM147.4 155.989L150.246 156.078L150.372 152.08L147.525 151.991L147.4 155.989ZM150.922 155.983L152.503 155.474L151.278 151.667L149.696 152.175L150.922 155.983ZM151.864 155.57L153.432 155.591L153.485 151.591L151.917 151.571L151.864 155.57ZM153.905 155.541L156.038 155.053L155.146 151.153L153.012 151.642L153.905 155.541ZM156.084 155.042L157.113 154.78L156.13 150.903L155.1 151.164L156.084 155.042ZM156.87 154.826L158.243 154.654L157.746 150.685L156.373 150.857L156.87 154.826ZM159.994 152.725L160.054 150.525L156.056 150.415L155.995 152.615L159.994 152.725ZM159.547 149.138L158.988 148.512L156.004 151.176L156.563 151.802L159.547 149.138ZM159.473 149.537L159.318 148.54L155.365 149.154L155.52 150.151L159.473 149.537ZM159.338 148.734L159.285 147.785L155.291 148.012L155.345 148.96L159.338 148.734ZM159.188 148.522L159.551 147.415L155.751 146.168L155.388 147.275L159.188 148.522ZM159.579 147.325L159.942 146.012L156.087 144.945L155.724 146.258L159.579 147.325ZM159.558 146.75L160.379 145.753L157.292 143.21L156.471 144.207L159.558 146.75ZM159.452 146.384L160.428 146.068L159.195 142.262L158.219 142.579L159.452 146.384ZM160.931 145.823L161.704 145.3L159.466 141.985L158.692 142.507L160.931 145.823ZM160.231 145.611L162.29 145.982L163 142.046L160.94 141.674L160.231 145.611ZM161.339 145.529L162.026 146.12L164.636 143.09L163.95 142.498L161.339 145.529ZM161.609 145.623L162.255 146.716L165.699 144.681L165.053 143.588L161.609 145.623ZM162.64 147.186L163.926 148.341L166.599 145.366L165.314 144.211L162.64 147.186ZM164.071 148.46L165.201 149.298L167.585 146.086L166.454 145.247L164.071 148.46ZM166.059 149.664L167.6 149.925L168.269 145.982L166.727 145.72L166.059 149.664ZM166.417 149.256L167.137 150.095L170.172 147.489L169.452 146.651L166.417 149.256ZM166.657 148.896L166.758 150.842L170.753 150.634L170.652 148.689L166.657 148.896ZM168.755 152.738H173.13V148.738H168.755V152.738ZM174.559 152.137L175.218 151.463L172.36 148.665L171.7 149.339L174.559 152.137ZM175.78 150.259L175.793 150.122L171.812 149.732L171.799 149.869L175.78 150.259ZM175.792 150.132L175.819 149.87L171.84 149.46L171.813 149.722L175.792 150.132ZM175.826 149.777L175.948 147.604L171.954 147.381L171.833 149.554L175.826 149.777ZM175.826 148.188L176.236 147.081L172.486 145.69L172.076 146.797L175.826 148.188ZM176.349 146.611L176.503 145.242L172.529 144.793L172.374 146.161L176.349 146.611ZM176.291 145.939L176.702 145.149L173.152 143.305L172.741 144.096L176.291 145.939ZM175.137 146.216L176.631 146.058L176.21 142.08L174.716 142.238L175.137 146.216ZM177.286 145.872L178.06 145.501L176.329 141.894L175.555 142.266L177.286 145.872ZM178.857 144.809L179.524 143.812L176.198 141.589L175.532 142.586L178.857 144.809ZM177.932 144.699L179.473 144.644L179.33 140.647L177.789 140.702L177.932 144.699ZM179.242 144.639L180.527 144.742L180.847 140.755L179.562 140.652L179.242 144.639ZM180.36 144.722L181.645 144.935L182.3 140.989L181.014 140.776L180.36 144.722ZM181.782 144.953L183.43 145.111L183.812 141.129L182.164 140.971L181.782 144.953ZM182.431 144.727L183.925 145.834L186.306 142.62L184.812 141.513L182.431 144.727ZM183.852 145.777L186.113 147.62L188.64 144.519L186.379 142.676L183.852 145.777ZM186.032 147.55L188.401 149.702L191.09 146.741L188.721 144.589L186.032 147.55ZM188.6 149.861L190.707 151.332L192.997 148.053L190.891 146.582L188.6 149.861ZM190.812 151.401L192.36 152.343L194.439 148.926L192.892 147.984L190.812 151.401ZM195.306 151.239L195.461 150.751L191.648 149.542L191.493 150.03L195.306 151.239ZM195.422 150.862L195.786 149.913L192.05 148.482L191.687 149.431L195.422 150.862ZM195.888 149.543L196.07 148.504L192.13 147.815L191.948 148.853L195.888 149.543ZM196.099 148.183L196.126 145.873L192.127 145.826L192.1 148.136L196.099 148.183ZM195.947 146.677L196.257 145.997L192.616 144.341L192.306 145.022L195.947 146.677ZM196.43 145.323L196.484 144.629L192.496 144.32L192.442 145.014L196.43 145.323ZM196.487 144.588L196.588 142.807L192.594 142.581L192.493 144.361L196.487 144.588ZM196.542 143.135L196.851 141.767L192.95 140.884L192.64 142.252L196.542 143.135ZM196.881 141.602L197.292 138.659L193.33 138.107L192.92 141.049L196.881 141.602ZM197.26 138.831L197.671 137.043L193.772 136.148L193.362 137.935L197.26 138.831ZM197.374 137.722L197.838 137.042L194.534 134.787L194.069 135.468L197.374 137.722ZM197.516 137.408L199.663 135.497L197.003 132.509L194.856 134.421L197.516 137.408ZM200.129 134.882L201.253 132.586L197.66 130.828L196.536 133.124L200.129 134.882ZM201.302 132.477L201.787 131.315L198.095 129.775L197.611 130.937L201.302 132.477ZM200.967 132.262L201.841 131.739L199.79 128.305L198.916 128.828L200.967 132.262ZM200.983 132.015L202.214 131.912L201.881 127.926L200.649 128.029L200.983 132.015ZM201.813 131.906L202.688 132.009L203.157 128.036L202.282 127.933L201.813 131.906ZM201.823 131.693L202.428 132.092L204.628 128.751L204.022 128.352L201.823 131.693ZM201.607 129.864L201.264 131.046L205.106 132.161L205.449 130.979L201.607 129.864ZM201.552 130.449L199.937 132.731L203.202 135.042L204.817 132.759L201.552 130.449ZM200.183 132.445L198.097 134.453L200.87 137.335L202.956 135.327L200.183 132.445ZM197.697 134.994L196.876 136.623L200.449 138.423L201.27 136.794L197.697 134.994ZM196.685 137.227L196.274 139.963L200.23 140.557L200.64 137.82L196.685 137.227ZM196.271 139.985L196.015 141.827L199.977 142.377L200.233 140.535L196.271 139.985ZM196.005 141.919L195.594 146.388L199.577 146.754L199.988 142.285L196.005 141.919ZM195.6 146.336L195.088 150.647L199.06 151.118L199.572 146.807L195.6 146.336ZM195.074 150.882V152.037H199.074V150.882H195.074ZM198.387 153.546L198.751 153.23L196.125 150.212L195.761 150.529L198.387 153.546ZM198.996 152.974L199.461 152.397L196.343 149.89L195.879 150.468L198.996 152.974ZM197.902 153.144H198.831V149.144H197.902V153.144ZM200.506 152.237L200.815 151.762L197.465 149.576L197.156 150.051L200.506 152.237ZM199.084 152.668L201.042 152.723L201.155 148.725L199.196 148.67L199.084 152.668ZM200.361 152.583L201.956 153.216L203.431 149.498L201.836 148.865L200.361 152.583ZM202.047 153.249L204.827 154.198L206.119 150.413L203.34 149.464L202.047 153.249ZM204.914 154.226L207.794 155.065L208.912 151.224L206.032 150.385L204.914 154.226ZM207.917 155.096L211.673 155.935L212.544 152.031L208.789 151.192L207.917 155.096ZM211.735 155.948L214.77 156.525L215.517 152.596L212.482 152.018L211.735 155.948ZM214.568 156.476L218.067 157.528L219.219 153.697L215.719 152.645L214.568 156.476ZM218.112 157.541L221.356 158.434L222.418 154.578L219.174 153.684L218.112 157.541ZM221.922 158.506L225.058 158.451L224.988 154.452L221.852 154.507L221.922 158.506ZM225.294 158.433L227.609 158.117L227.067 154.153L224.752 154.47L225.294 158.433ZM227.378 158.135L230.104 158.08L230.023 154.08L227.298 154.135L227.378 158.135ZM232.048 155.829L231.886 154.551L227.918 155.052L228.079 156.331L232.048 155.829ZM231.62 153.778L230.752 152.32L227.316 154.367L228.184 155.825L231.62 153.778ZM230.952 152.778L230.488 151.203L226.651 152.335L227.116 153.909L230.952 152.778ZM230.443 151.069L229.931 149.701L226.185 151.101L226.696 152.47L230.443 151.069ZM228.865 148.571L227.681 148.049L226.066 151.708L227.251 152.231L228.865 148.571ZM228.84 150.241L228.995 149.403L225.062 148.677L224.907 149.516L228.84 150.241ZM228.934 149.648L229.035 149.332L225.224 148.115L225.123 148.431L228.934 149.648ZM227.987 146.917L227.321 146.6L225.605 150.214L226.272 150.53L227.987 146.917ZM228.46 148.294L228.406 147.345L224.412 147.572L224.466 148.52L228.46 148.294ZM228.128 148.481L228.545 147.78L225.108 145.734L224.69 146.436L228.128 148.481ZM228.687 146.023L228.364 145.204L224.643 146.673L224.966 147.492L228.687 146.023ZM227.652 144.301L226.064 143.188L223.767 146.463L225.355 147.576L227.652 144.301ZM226.815 144.2L226.559 143.423L222.76 144.673L223.016 145.45L226.815 144.2ZM225.093 142.096L223.855 141.821L222.988 145.726L224.226 146.001L225.093 142.096ZM224.194 141.928L222.848 141.365L221.303 145.054L222.649 145.618L224.194 141.928ZM222.214 141.214L219.643 141.035L219.366 145.026L221.937 145.205L222.214 141.214ZM218.929 141.115L218.014 141.39L219.165 145.221L220.08 144.946L218.929 141.115ZM219.13 141.38L217.636 140.961L216.555 144.812L218.049 145.231L219.13 141.38ZM218.77 141.793L218.461 141.319L215.111 143.505L215.42 143.979L218.77 141.793ZM218.761 142.097L218.66 141.464L214.71 142.094L214.811 142.727L218.761 142.097ZM217.163 143.721L218.448 143.405L217.492 139.521L216.207 139.837L217.163 143.721ZM217.901 143.462L219.496 143.517L219.634 139.519L218.039 139.464L217.901 143.462ZM219.719 143.512L221.058 143.409L220.751 139.421L219.412 139.524L219.719 143.512ZM220.904 143.415H222.661V139.415H220.904V143.415ZM222.42 143.4L224.237 143.62L224.718 139.649L222.901 139.429L222.42 143.4ZM223.808 143.519L224.871 143.897L226.211 140.129L225.148 139.751L223.808 143.519ZM224.453 143.691L225.631 144.455L227.806 141.098L226.629 140.335L224.453 143.691ZM225.325 144.21L226.3 145.159L229.089 142.291L228.113 141.342L225.325 144.21ZM226.222 145.078L227.043 145.972L229.989 143.266L229.168 142.372L226.222 145.078ZM227.356 146.248L228.022 146.722L230.342 143.464L229.676 142.99L227.356 146.248ZM227.375 145.951L228.149 147.581L231.762 145.865L230.989 144.235L227.375 145.951ZM227.983 147.054L228.293 148.897L232.238 148.234L231.928 146.391L227.983 147.054ZM228.491 149.487L229.365 151.172L232.915 149.328L232.04 147.643L228.491 149.487ZM229.498 151.392L230.373 152.65L233.657 150.366L232.782 149.108L229.498 151.392ZM230.019 151.632L230.12 153.261L234.112 153.014L234.011 151.384L230.019 151.632ZM230.917 154.738L232.203 155.701L234.6 152.499L233.315 151.537L230.917 154.738ZM231.821 155.325L233.409 157.374L236.57 154.924L234.982 152.875L231.821 155.325ZM233.293 157.208L234.04 158.404L237.433 156.286L236.686 155.09L233.293 157.208ZM234.307 158.744L235.108 159.562L237.967 156.764L237.166 155.946L234.307 158.744ZM235.893 160.057L236.539 160.277L237.828 156.49L237.182 156.27L235.893 160.057ZM236.143 160.091L236.943 160.579L239.025 157.164L238.225 156.676L236.143 160.091ZM236.518 160.231L236.76 160.493L239.693 157.773L239.451 157.511L236.518 160.231ZM236.255 158.797L236.047 160.02L239.99 160.693L240.198 159.469L236.255 158.797ZM236.035 160.097L235.793 161.946L239.759 162.466L240.001 160.616L236.035 160.097ZM236.01 161.267L234.745 163.646L238.276 165.524L239.542 163.145L236.01 161.267ZM235.393 166.244L239.93 169.3L242.165 165.982L237.628 162.926L235.393 166.244ZM100.953 171.526V154.673H96.9531V171.526H100.953ZM107.367 169.526H98.9531V173.526H107.367V169.526ZM109.145 170.611L107.947 168.283L104.39 170.114L105.588 172.442L109.145 170.611ZM107.95 168.289L105.682 163.847L102.119 165.666L104.387 170.108L107.95 168.289ZM105.649 163.786L101.335 156.017L97.8382 157.958L102.152 165.728L105.649 163.786ZM101.558 156.648L101.268 154.97L97.3264 155.65L97.6158 157.328L101.558 156.648ZM101.057 154.359L100.713 153.722L97.1937 155.624L97.538 156.261L101.057 154.359ZM198.273 171.45L198.198 169.479L194.201 169.632L194.276 171.603L198.273 171.45ZM198.142 169.082L197.671 167.15L193.785 168.098L194.256 170.03L198.142 169.082ZM197.547 166.793L196.982 165.555L193.344 167.217L193.909 168.455L197.547 166.793ZM196.664 165.064L196.058 164.377L193.057 167.021L193.662 167.708L196.664 165.064ZM195.941 164.254L194.864 163.223L192.097 166.112L193.174 167.143L195.941 164.254ZM194.781 163.148L193.704 162.226L191.103 165.266L192.18 166.187L194.781 163.148ZM193.797 162.311L192.444 160.998L189.658 163.868L191.011 165.181L193.797 162.311ZM191.78 160.571L190.024 159.883L188.566 163.608L190.322 164.295L191.78 160.571ZM190.094 159.912L188.674 159.293L187.076 162.96L188.496 163.579L190.094 159.912ZM188.332 159.18L186.575 158.767L185.661 162.661L187.417 163.074L188.332 159.18ZM186.371 158.73L184.21 158.455L183.705 162.423L185.866 162.698L186.371 158.73ZM183.64 158.464L181.076 158.877L181.712 162.826L184.276 162.414L183.64 158.464ZM180.968 158.898L179.076 159.31L179.929 163.218L181.82 162.806L180.968 158.898ZM179.122 159.301L177.702 159.576L178.463 163.503L179.883 163.228L179.122 159.301ZM177.238 159.726L175.616 160.483L177.306 164.108L178.928 163.352L177.238 159.726ZM176.359 160.298L175.007 160.367L175.21 164.362L176.562 164.293L176.359 160.298ZM174.838 160.382L173.829 160.52L174.369 164.483L175.378 164.346L174.838 160.382ZM173.155 160.738L171.87 161.426L173.757 164.953L175.042 164.265L173.155 160.738ZM171.733 161.506L170.448 162.331L172.608 165.697L173.894 164.872L171.733 161.506ZM170.483 162.309L169.473 162.928L171.564 166.338L172.573 165.719L170.483 162.309ZM168.986 163.348L168.583 163.829L171.647 166.4L172.051 165.918L168.986 163.348ZM168.115 165.114V165.747H172.115V165.114H168.115ZM169.288 167.568L169.894 167.843L171.547 164.201L170.942 163.926L169.288 167.568ZM169.424 167.545L170.231 168.232L172.824 165.187L172.017 164.499L169.424 167.545ZM169.705 167.533L170.109 168.427L173.754 166.78L173.351 165.886L169.705 167.533ZM170.382 166.339L169.709 167.164L172.809 169.692L173.482 168.867L170.382 166.339ZM169.566 167.363L168.96 168.326L172.346 170.456L172.952 169.493L169.566 167.363ZM170.653 167.391H169.711V171.391H170.653V167.391ZM170.698 167.651L170.092 167.308L168.118 170.786L168.724 171.13L170.698 167.651ZM170.534 167.648L170.198 167.304L167.34 170.102L167.676 170.446L170.534 167.648ZM170.319 167.439L169.982 167.027L166.882 169.555L167.219 169.967L170.319 167.439ZM166.858 167.058L166.588 167.401L169.738 169.868L170.007 169.524L166.858 167.058ZM166.169 168.785L166.236 169.678L170.225 169.378L170.157 168.484L166.169 168.785ZM166.618 170.712L167.022 171.262L170.246 168.895L169.843 168.345L166.618 170.712ZM166.644 170.273L166.711 170.961L170.692 170.571L170.625 169.883L166.644 170.273ZM166.839 170.037L166.57 170.724L170.295 172.183L170.564 171.495L166.839 170.037ZM167.003 170.054L166.932 170.127L169.79 172.925L169.862 172.852L167.003 170.054ZM196.275 169.526H168.361V173.526H196.275V169.526ZM154.887 169.526H141.375V173.526H154.887V169.526ZM140.622 169.635L140.302 169.838L142.447 173.214L142.768 173.011L140.622 169.635ZM142 168.517L140.445 169.761L142.945 172.884L144.499 171.64L142 168.517ZM143.751 167.415L142.197 168.378L144.302 171.779L145.857 170.816L143.751 167.415ZM145.351 166.299L143.662 167.474L145.947 170.757L147.636 169.582L145.351 166.299ZM146.638 165.224L145.218 166.4L147.769 169.481L149.189 168.305L146.638 165.224ZM149.439 164.228L147.346 164.846L148.48 168.682L150.573 168.064L149.439 164.228ZM151.609 163.891L149.718 164.166L150.294 168.125L152.185 167.85L151.609 163.891ZM151.525 163.753L150.852 164.165L152.942 167.576L153.615 167.163L151.525 163.753ZM153.703 163.603L152.861 163.479L152.279 167.437L153.12 167.561L153.703 163.603ZM155.2 164.49L154.729 164.077L152.094 167.086L152.565 167.499L155.2 164.49ZM156.041 164.064L153.948 163.995L153.817 167.993L155.91 168.062L156.041 164.064ZM155.523 163.908L154.783 164.458L157.168 167.668L157.909 167.118L155.523 163.908ZM155.035 163.891L154.766 165.067L158.665 165.959L158.934 164.784L155.035 163.891ZM156.624 162.077L155.749 162.765L158.221 165.91L159.096 165.222L156.624 162.077ZM159.151 161.461L157.597 161.667L158.123 165.632L159.677 165.426L159.151 161.461ZM160.767 161.444H159.414V165.444H160.767V161.444ZM162.499 162.203L161.893 161.791L159.641 165.097L160.247 165.509L162.499 162.203ZM163.152 165.582L163.354 164.132L159.392 163.58L159.19 165.031L163.152 165.582ZM161.327 167.597L162.269 166.978L160.073 163.635L159.131 164.254L161.327 167.597ZM160.749 167.991L161.355 167.579L159.103 164.273L158.497 164.685L160.749 167.991ZM159.75 168.925L160.968 167.818L158.278 164.858L157.06 165.965L159.75 168.925ZM157.826 170.461L159.65 169.01L157.16 165.88L155.336 167.331L157.826 170.461ZM157.078 171.176L157.953 170.351L155.209 167.441L154.334 168.266L157.078 171.176ZM156.729 172.047L157.469 170.665L153.943 168.776L153.203 170.158L156.729 172.047ZM156.854 171.891L156.932 171.468L153 170.738L152.921 171.161L156.854 171.891ZM161.985 155.681H163.479V151.681H161.985V155.681ZM160.112 154.856L160.906 155.365L163.064 151.997L162.27 151.488L160.112 154.856ZM159.05 153.235L159.346 153.943L163.036 152.4L162.74 151.692L159.05 153.235ZM158.895 151.446V152.464H162.895V151.446H158.895ZM158.759 150.349L158.907 151.669L162.882 151.223L162.734 149.903L158.759 150.349ZM158.572 150L158.868 150.812L162.626 149.44L162.33 148.629L158.572 150ZM158.259 148.773L158.508 149.79L162.393 148.839L162.144 147.822L158.259 148.773ZM158.064 148.24L158.313 148.955L162.091 147.639L161.842 146.924L158.064 148.24ZM157.869 147.081L157.97 147.844L161.935 147.32L161.835 146.557L157.869 147.081ZM158.048 145.721L157.9 146.381L161.803 147.257L161.951 146.597L158.048 145.721ZM160.563 144.115L159.863 144.164L160.137 148.154L160.837 148.106L160.563 144.115ZM161.802 144.315L161.156 144.163L160.244 148.058L160.89 148.209L161.802 144.315ZM163.351 145.56L162.9 145.004L159.791 147.52L160.242 148.077L163.351 145.56ZM163.931 146.377L163.433 145.668L160.161 147.969L160.659 148.678L163.931 146.377ZM164.946 147.432L163.755 146.16L160.835 148.894L162.026 150.166L164.946 147.432ZM165.659 148.469L165.161 147.706L161.811 149.892L162.309 150.655L165.659 148.469ZM166.059 149.303L165.81 148.746L162.158 150.379L162.407 150.935L166.059 149.303ZM166.109 151.082L166.21 150.421L162.256 149.817L162.155 150.477L166.109 151.082ZM166.004 151.717L166.105 151.105L162.159 150.454L162.058 151.066L166.004 151.717ZM165.927 153.375L166.028 151.498L162.034 151.284L161.933 153.161L165.927 153.375ZM164.829 155.156L165.28 154.744L162.58 151.792L162.129 152.205L164.829 155.156Z" fill="#2644BA" mask="url(#path-23-inside-5_71_717)"/>
</svg>
