<svg width="470" height="469" viewBox="0 0 470 469" fill="none" xmlns="http://www.w3.org/2000/svg">
<path d="M117.951 31.532L194.512 154.768L139.814 20.3921L203.074 150.955L162.722 11.5986L211.988 148.059L186.424 5.24771L221.156 146.11L210.659 1.40918L230.477 145.131L235.164 0.124965L239.85 145.131L259.668 1.40917L249.171 146.11L283.903 5.24772L258.339 148.059L307.605 11.5986L267.253 150.955L330.513 20.3921L275.815 154.768L352.376 31.5321L283.932 159.454L372.955 44.8963L291.515 164.963L392.025 60.3384L298.48 171.234L409.376 77.6892L304.751 178.2L424.818 96.7587L310.26 185.782L438.182 117.338L314.947 193.899L449.322 139.201L318.759 202.461L458.116 162.109L321.655 211.375L464.466 185.811L323.604 220.543L468.305 210.046L324.583 229.864L469.589 234.551L324.583 239.237L468.305 259.055L323.604 248.558L464.466 283.29L321.655 257.726L458.116 306.992L318.759 266.64L449.322 329.9L314.947 275.202L438.182 351.763L310.26 283.319L424.818 372.343L304.751 290.902L409.376 391.412L298.48 297.867L392.025 408.763L291.515 304.138L372.955 424.205L283.932 309.647L352.376 437.569L275.815 314.334L330.513 448.709L267.253 318.146L307.605 457.503L258.339 321.042L283.903 463.854L249.171 322.991L259.668 467.692L239.85 323.971L235.164 468.976L230.477 323.971L210.659 467.692L221.156 322.991L186.424 463.854L211.988 321.042L162.722 457.503L203.074 318.146L139.814 448.709L194.512 314.334L117.951 437.569L186.395 309.647L97.3716 424.205L178.813 304.138L78.3022 408.763L171.847 297.867L60.9513 391.412L165.576 290.902L45.5092 372.343L160.067 283.319L32.145 351.763L155.38 275.202L21.005 329.9L151.568 266.64L12.2115 306.992L148.672 257.726L5.86063 283.29L146.723 248.558L2.02209 259.055L145.744 239.237L0.73788 234.551L145.744 229.864L2.02208 210.046L146.723 220.543L5.86063 185.811L148.672 211.375L12.2115 162.109L151.568 202.461L21.005 139.201L155.38 193.899L32.145 117.338L160.067 185.782L45.5092 96.7587L165.576 178.2L60.9513 77.6892L171.847 171.234L78.3021 60.3384L178.813 164.963L97.3716 44.8963L186.395 159.454L117.951 31.532Z" fill="#FDC242"/>
</svg>
