<svg width="341" height="193" viewBox="0 0 341 193" fill="none" xmlns="http://www.w3.org/2000/svg">
<path d="M158.811 70.3557L158.849 70.342L158.886 70.3254L219.403 42.6514L243.881 57.9866L242.093 81.8257L233.05 117.999L135.35 150.464L109.357 131.044L97.4724 92.659L158.811 70.3557Z" stroke="#2644BA" stroke-width="2"/>
<path d="M153.87 76.9468L153.896 76.9369L153.921 76.9255L219.701 47.7667L238.811 60.2622L225.374 83.4051L132.321 117.601L104.544 95.5829L153.87 76.9468Z" stroke="#2644BA" stroke-width="2"/>
<path d="M155.988 80.893L156.016 80.8822L156.044 80.8696L218.742 52.528L231.8 61.6441L221.399 79.5286L134.169 111.146L115.878 96.1572L155.988 80.893Z" stroke="#2644BA" stroke-width="2"/>
<mask id="path-4-inside-1_122_17" fill="white">
<path fill-rule="evenodd" clip-rule="evenodd" d="M214.892 66.9682C213.994 67.4844 212.952 67.7796 211.842 67.7797C211.842 67.9971 211.831 68.2118 211.809 68.4234C212.633 68.0115 213.563 67.7797 214.547 67.7797C214.791 67.7797 215.031 67.794 215.268 67.8216C215.122 67.5488 214.996 67.2637 214.892 66.9682ZM219.959 71.0256C220.419 71.886 220.68 72.8689 220.68 73.9127C220.68 77.2999 217.934 80.0458 214.547 80.0458C211.16 80.0458 208.414 77.2999 208.414 73.9127C208.414 73.6954 208.425 73.4806 208.447 73.2691C208.356 73.3146 208.264 73.3579 208.17 73.3989C208.329 73.9436 208.414 74.5195 208.414 75.1153C208.414 78.5025 205.668 81.2483 202.281 81.2483C201.297 81.2483 200.367 81.0166 199.543 80.6047C199.565 80.8162 199.576 81.031 199.576 81.2483C199.576 84.6355 196.83 87.3814 193.443 87.3814C190.503 87.3814 188.046 85.3122 187.448 82.5506C187.125 82.7324 186.783 82.8857 186.427 83.0071C186.987 83.9325 187.31 85.018 187.31 86.1788C187.31 89.566 184.564 92.3118 181.177 92.3118C177.79 92.3118 175.044 89.566 175.044 86.1788L175.044 86.1532C174.204 86.0765 173.412 85.8303 172.705 85.4492C172.733 85.6884 172.748 85.9319 172.748 86.1788C172.748 89.566 170.002 92.3118 166.615 92.3118C165.069 92.3118 163.657 91.74 162.578 90.7964C162.701 91.2811 162.767 91.7888 162.767 92.3118C162.767 95.699 160.021 98.4448 156.634 98.4448C154.406 98.4448 152.456 97.2571 151.382 95.4804C151.255 95.8998 151.085 96.3002 150.876 96.6764C151.364 97.5566 151.642 98.5695 151.642 99.6474C151.642 103.035 148.897 105.78 145.509 105.78C142.122 105.78 139.376 103.035 139.376 99.6474C139.376 98.5695 139.654 97.5566 140.143 96.6764C139.87 96.1848 139.663 95.6519 139.533 95.0893C138.948 95.3451 138.315 95.5122 137.651 95.5734C138.719 96.6772 139.376 98.181 139.376 99.8384C139.376 103.226 136.631 105.971 133.243 105.971C129.856 105.971 127.11 103.226 127.11 99.8384C127.11 96.6436 129.553 94.0194 132.673 93.7315C131.604 92.6278 130.947 91.124 130.947 89.4666C130.947 86.0794 133.693 83.3336 137.08 83.3336C137.309 83.3336 137.536 83.3462 137.759 83.3707C138.778 81.396 140.838 80.0458 143.213 80.0458C145.179 80.0458 146.929 80.9708 148.051 82.4094C148.107 82.369 148.164 82.3295 148.221 82.291C146.585 81.1894 145.51 79.3206 145.51 77.2005C145.51 73.8134 148.256 71.0675 151.643 71.0675C155.03 71.0675 157.776 73.8134 157.776 77.2005C157.776 77.5395 157.748 77.8721 157.695 78.1961C158.4 77.7353 159.206 77.4157 160.072 77.2774L160.072 77.2301L160.072 77.2005C160.072 73.8134 162.818 71.0675 166.205 71.0675C167.19 71.0675 168.12 71.2996 168.944 71.7119C168.922 71.5001 168.911 71.2852 168.911 71.0675C168.911 67.6803 171.657 64.9345 175.044 64.9345C178.431 64.9345 181.177 67.6803 181.177 71.0675C181.177 71.4065 181.15 71.739 181.097 72.0631C181.32 71.9172 181.553 71.7856 181.795 71.6693C181.399 70.8579 181.177 69.946 181.177 68.9823C181.177 65.5951 183.922 62.8493 187.31 62.8493C188.417 62.8493 189.455 63.1425 190.351 63.6555C190.133 63.0261 190.015 62.3503 190.015 61.6467C190.015 58.2595 192.761 55.5137 196.148 55.5137C199.535 55.5137 202.281 58.2595 202.281 61.6467C202.281 62.0281 202.246 62.4013 202.179 62.7635C203.177 62.06 204.395 61.6468 205.708 61.6467C205.708 58.2595 208.454 55.5137 211.841 55.5137C214.516 55.5137 216.79 57.2254 217.629 59.613C218.528 59.0967 219.569 58.8015 220.68 58.8015C224.067 58.8015 226.813 61.5473 226.813 64.9345C226.813 68.3217 224.067 71.0675 220.68 71.0675C220.436 71.0675 220.195 71.0533 219.959 71.0256ZM199.677 66.663C199.611 67.0251 199.576 67.3983 199.576 67.7797C199.576 68.3755 199.661 68.9515 199.819 69.4962C199.726 69.5372 199.634 69.5805 199.543 69.6259C199.565 69.4144 199.576 69.1997 199.576 68.9823C199.576 68.2698 199.454 67.5857 199.231 66.9496C199.384 66.8603 199.533 66.7647 199.677 66.663ZM193.443 75.1153C194.427 75.1153 195.357 74.8836 196.181 74.4717C196.159 74.6832 196.148 74.8979 196.148 75.1153C196.148 75.3327 196.159 75.5474 196.181 75.759C195.357 75.3471 194.427 75.1153 193.443 75.1153ZM193.443 75.1153C192.353 75.1153 191.329 75.3997 190.442 75.8983C190.337 75.4128 190.175 74.9488 189.962 74.5136C190.103 74.4458 190.241 74.3728 190.376 74.2948C191.278 74.8166 192.326 75.1153 193.443 75.1153Z"/>
</mask>
<path fill-rule="evenodd" clip-rule="evenodd" d="M214.892 66.9682C213.994 67.4844 212.952 67.7796 211.842 67.7797C211.842 67.9971 211.831 68.2118 211.809 68.4234C212.633 68.0115 213.563 67.7797 214.547 67.7797C214.791 67.7797 215.031 67.794 215.268 67.8216C215.122 67.5488 214.996 67.2637 214.892 66.9682ZM219.959 71.0256C220.419 71.886 220.68 72.8689 220.68 73.9127C220.68 77.2999 217.934 80.0458 214.547 80.0458C211.16 80.0458 208.414 77.2999 208.414 73.9127C208.414 73.6954 208.425 73.4806 208.447 73.2691C208.356 73.3146 208.264 73.3579 208.17 73.3989C208.329 73.9436 208.414 74.5195 208.414 75.1153C208.414 78.5025 205.668 81.2483 202.281 81.2483C201.297 81.2483 200.367 81.0166 199.543 80.6047C199.565 80.8162 199.576 81.031 199.576 81.2483C199.576 84.6355 196.83 87.3814 193.443 87.3814C190.503 87.3814 188.046 85.3122 187.448 82.5506C187.125 82.7324 186.783 82.8857 186.427 83.0071C186.987 83.9325 187.31 85.018 187.31 86.1788C187.31 89.566 184.564 92.3118 181.177 92.3118C177.79 92.3118 175.044 89.566 175.044 86.1788L175.044 86.1532C174.204 86.0765 173.412 85.8303 172.705 85.4492C172.733 85.6884 172.748 85.9319 172.748 86.1788C172.748 89.566 170.002 92.3118 166.615 92.3118C165.069 92.3118 163.657 91.74 162.578 90.7964C162.701 91.2811 162.767 91.7888 162.767 92.3118C162.767 95.699 160.021 98.4448 156.634 98.4448C154.406 98.4448 152.456 97.2571 151.382 95.4804C151.255 95.8998 151.085 96.3002 150.876 96.6764C151.364 97.5566 151.642 98.5695 151.642 99.6474C151.642 103.035 148.897 105.78 145.509 105.78C142.122 105.78 139.376 103.035 139.376 99.6474C139.376 98.5695 139.654 97.5566 140.143 96.6764C139.87 96.1848 139.663 95.6519 139.533 95.0893C138.948 95.3451 138.315 95.5122 137.651 95.5734C138.719 96.6772 139.376 98.181 139.376 99.8384C139.376 103.226 136.631 105.971 133.243 105.971C129.856 105.971 127.11 103.226 127.11 99.8384C127.11 96.6436 129.553 94.0194 132.673 93.7315C131.604 92.6278 130.947 91.124 130.947 89.4666C130.947 86.0794 133.693 83.3336 137.08 83.3336C137.309 83.3336 137.536 83.3462 137.759 83.3707C138.778 81.396 140.838 80.0458 143.213 80.0458C145.179 80.0458 146.929 80.9708 148.051 82.4094C148.107 82.369 148.164 82.3295 148.221 82.291C146.585 81.1894 145.51 79.3206 145.51 77.2005C145.51 73.8134 148.256 71.0675 151.643 71.0675C155.03 71.0675 157.776 73.8134 157.776 77.2005C157.776 77.5395 157.748 77.8721 157.695 78.1961C158.4 77.7353 159.206 77.4157 160.072 77.2774L160.072 77.2301L160.072 77.2005C160.072 73.8134 162.818 71.0675 166.205 71.0675C167.19 71.0675 168.12 71.2996 168.944 71.7119C168.922 71.5001 168.911 71.2852 168.911 71.0675C168.911 67.6803 171.657 64.9345 175.044 64.9345C178.431 64.9345 181.177 67.6803 181.177 71.0675C181.177 71.4065 181.15 71.739 181.097 72.0631C181.32 71.9172 181.553 71.7856 181.795 71.6693C181.399 70.8579 181.177 69.946 181.177 68.9823C181.177 65.5951 183.922 62.8493 187.31 62.8493C188.417 62.8493 189.455 63.1425 190.351 63.6555C190.133 63.0261 190.015 62.3503 190.015 61.6467C190.015 58.2595 192.761 55.5137 196.148 55.5137C199.535 55.5137 202.281 58.2595 202.281 61.6467C202.281 62.0281 202.246 62.4013 202.179 62.7635C203.177 62.06 204.395 61.6468 205.708 61.6467C205.708 58.2595 208.454 55.5137 211.841 55.5137C214.516 55.5137 216.79 57.2254 217.629 59.613C218.528 59.0967 219.569 58.8015 220.68 58.8015C224.067 58.8015 226.813 61.5473 226.813 64.9345C226.813 68.3217 224.067 71.0675 220.68 71.0675C220.436 71.0675 220.195 71.0533 219.959 71.0256ZM199.677 66.663C199.611 67.0251 199.576 67.3983 199.576 67.7797C199.576 68.3755 199.661 68.9515 199.819 69.4962C199.726 69.5372 199.634 69.5805 199.543 69.6259C199.565 69.4144 199.576 69.1997 199.576 68.9823C199.576 68.2698 199.454 67.5857 199.231 66.9496C199.384 66.8603 199.533 66.7647 199.677 66.663ZM193.443 75.1153C194.427 75.1153 195.357 74.8836 196.181 74.4717C196.159 74.6832 196.148 74.8979 196.148 75.1153C196.148 75.3327 196.159 75.5474 196.181 75.759C195.357 75.3471 194.427 75.1153 193.443 75.1153ZM193.443 75.1153C192.353 75.1153 191.329 75.3997 190.442 75.8983C190.337 75.4128 190.175 74.9488 189.962 74.5136C190.103 74.4458 190.241 74.3728 190.376 74.2948C191.278 74.8166 192.326 75.1153 193.443 75.1153Z" fill="#FDFDFD"/>
<path d="M214.892 66.9682L216.779 66.3052L215.982 64.0357L213.896 65.2341L214.892 66.9682ZM211.842 67.7797L211.842 65.7797L209.842 65.7799V67.7797H211.842ZM211.809 68.4234L209.819 68.2159L209.441 71.8424L212.703 70.2124L211.809 68.4234ZM215.268 67.8216L215.035 69.8081L218.835 70.2531L217.031 66.8788L215.268 67.8216ZM219.959 71.0256L220.192 69.0392L216.391 68.5942L218.195 71.9685L219.959 71.0256ZM208.447 73.2691L210.436 73.4766L210.815 69.8501L207.553 71.4801L208.447 73.2691ZM208.17 73.3989L207.367 71.5673L205.76 72.2724L206.25 73.9576L208.17 73.3989ZM199.543 80.6047L200.437 78.8157L197.175 77.1857L197.553 80.8122L199.543 80.6047ZM187.448 82.5506L189.403 82.1279L188.831 79.4794L186.468 80.8071L187.448 82.5506ZM186.427 83.0071L185.782 81.114L183.429 81.9161L184.716 84.0429L186.427 83.0071ZM175.044 86.1788L173.044 86.1746V86.1788H175.044ZM175.044 86.1532L177.044 86.1573L177.048 84.3277L175.226 84.1614L175.044 86.1532ZM172.705 85.4492L173.653 83.6883L170.266 81.8642L170.719 85.6846L172.705 85.4492ZM162.578 90.7964L163.895 89.2911L159.056 85.0575L160.64 91.289L162.578 90.7964ZM151.382 95.4804L153.093 94.4456L150.767 90.5974L149.467 94.9024L151.382 95.4804ZM150.876 96.6764L149.127 95.7061L148.589 96.6764L149.127 97.6467L150.876 96.6764ZM140.143 96.6764L141.892 97.6467L142.43 96.6764L141.892 95.7061L140.143 96.6764ZM139.533 95.0893L141.482 94.6398L140.94 92.2919L138.732 93.2566L139.533 95.0893ZM137.651 95.5734L137.467 93.5819L133.311 93.9654L136.214 96.9644L137.651 95.5734ZM132.673 93.7315L132.856 95.7231L137.013 95.3396L134.11 92.3406L132.673 93.7315ZM137.759 83.3707L137.54 85.3587L138.906 85.5092L139.536 84.2877L137.759 83.3707ZM148.051 82.4094L146.474 83.6397L147.661 85.1606L149.224 84.0297L148.051 82.4094ZM148.221 82.291L149.338 83.9498L151.801 82.291L149.338 80.6321L148.221 82.291ZM157.695 78.1961L155.721 77.8739L154.99 82.3534L158.79 79.8702L157.695 78.1961ZM160.072 77.2774L160.387 79.2525L162.087 78.9813L162.072 77.2604L160.072 77.2774ZM160.072 77.2301L158.072 77.2348L158.072 77.2472L160.072 77.2301ZM160.072 77.2005L158.072 77.2005L158.072 77.2052L160.072 77.2005ZM168.944 71.7119L168.05 73.5007L171.313 75.1324L170.934 71.5042L168.944 71.7119ZM181.097 72.0631L179.123 71.7409L178.392 76.2204L182.191 73.7372L181.097 72.0631ZM181.795 71.6693L182.661 73.472L184.475 72.6005L183.592 70.7919L181.795 71.6693ZM190.351 63.6555L189.358 65.3914L193.988 68.0407L192.241 63.0007L190.351 63.6555ZM202.179 62.7635L200.212 62.4016L199.326 67.2221L203.332 64.3981L202.179 62.7635ZM205.708 61.6467L205.708 63.6467L207.708 63.6465V61.6467H205.708ZM217.629 59.613L215.742 60.276L216.54 62.5455L218.625 61.3471L217.629 59.613ZM199.677 66.663L201.644 67.0248L202.531 62.2044L198.525 65.0283L199.677 66.663ZM199.819 69.4962L200.623 71.3277L202.23 70.6227L201.74 68.9375L199.819 69.4962ZM199.543 69.6259L197.553 69.4184L197.175 73.0451L200.437 71.4149L199.543 69.6259ZM199.231 66.9496L198.224 65.2215L196.797 66.0533L197.344 67.6122L199.231 66.9496ZM196.181 74.4717L198.17 74.6792L198.548 71.0526L195.287 72.6827L196.181 74.4717ZM196.181 75.759L195.287 77.548L198.548 79.178L198.17 75.5515L196.181 75.759ZM190.442 75.8983L188.487 76.321L189.06 78.9695L191.422 77.6418L190.442 75.8983ZM189.962 74.5136L189.096 72.7108L187.282 73.5824L188.165 75.3909L189.962 74.5136ZM190.376 74.2948L191.378 72.5636L190.376 71.9842L189.375 72.5636L190.376 74.2948ZM213.896 65.2341C213.292 65.5807 212.593 65.7796 211.842 65.7797L211.842 69.7797C213.311 69.7796 214.695 69.388 215.889 68.7024L213.896 65.2341ZM209.842 67.7797C209.842 67.9277 209.834 68.0732 209.819 68.2159L213.798 68.6308C213.827 68.3505 213.842 68.0665 213.842 67.7797H209.842ZM212.703 70.2124C213.256 69.9361 213.88 69.7797 214.547 69.7797V65.7797C213.245 65.7797 212.01 66.0868 210.915 66.6343L212.703 70.2124ZM214.547 69.7797C214.713 69.7797 214.876 69.7894 215.035 69.8081L215.5 65.8352C215.187 65.7985 214.869 65.7797 214.547 65.7797V69.7797ZM217.031 66.8788C216.933 66.6952 216.849 66.5036 216.779 66.3052L213.005 67.6312C213.143 68.0238 213.31 68.4025 213.504 68.7645L217.031 66.8788ZM218.195 71.9685C218.504 72.5459 218.68 73.2058 218.68 73.9127H222.68C222.68 72.532 222.334 71.2261 221.723 70.0827L218.195 71.9685ZM218.68 73.9127C218.68 76.1954 216.829 78.0458 214.547 78.0458V82.0458C219.038 82.0458 222.68 78.4045 222.68 73.9127H218.68ZM214.547 78.0458C212.264 78.0458 210.414 76.1954 210.414 73.9127H206.414C206.414 78.4045 210.055 82.0458 214.547 82.0458V78.0458ZM210.414 73.9127C210.414 73.7648 210.421 73.6193 210.436 73.4766L206.458 73.0616C206.429 73.342 206.414 73.626 206.414 73.9127H210.414ZM207.553 71.4801C207.492 71.5107 207.43 71.5398 207.367 71.5673L208.974 75.2304C209.098 75.176 209.22 75.1185 209.341 75.0581L207.553 71.4801ZM206.25 73.9576C206.356 74.3226 206.414 74.7105 206.414 75.1153H210.414C210.414 74.3285 210.301 73.5645 210.091 72.8402L206.25 73.9576ZM206.414 75.1153C206.414 77.3979 204.563 79.2483 202.281 79.2483V83.2483C206.772 83.2483 210.414 79.6071 210.414 75.1153H206.414ZM202.281 79.2483C201.614 79.2483 200.989 79.092 200.437 78.8157L198.648 82.3937C199.744 82.9412 200.979 83.2483 202.281 83.2483V79.2483ZM197.553 80.8122C197.568 80.9549 197.576 81.1004 197.576 81.2483H201.576C201.576 80.9616 201.561 80.6776 201.532 80.3972L197.553 80.8122ZM197.576 81.2483C197.576 83.5309 195.726 85.3814 193.443 85.3814V89.3814C197.935 89.3814 201.576 85.7401 201.576 81.2483H197.576ZM193.443 85.3814C191.464 85.3814 189.806 83.9884 189.403 82.1279L185.494 82.9732C186.286 86.636 189.541 89.3814 193.443 89.3814V85.3814ZM186.468 80.8071C186.251 80.9295 186.021 81.0325 185.782 81.114L187.072 84.9002C187.546 84.7388 187.999 84.5352 188.428 84.294L186.468 80.8071ZM184.716 84.0429C185.093 84.6647 185.31 85.3934 185.31 86.1788H189.31C189.31 84.6427 188.882 83.2003 188.138 81.9713L184.716 84.0429ZM185.31 86.1788C185.31 88.4614 183.459 90.3118 181.177 90.3118V94.3118C185.669 94.3118 189.31 90.6705 189.31 86.1788H185.31ZM181.177 90.3118C178.894 90.3118 177.044 88.4614 177.044 86.1788H173.044C173.044 90.6705 176.685 94.3118 181.177 94.3118V90.3118ZM177.044 86.183L177.044 86.1573L173.044 86.149L173.044 86.1746L177.044 86.183ZM175.226 84.1614C174.66 84.1098 174.129 83.9444 173.653 83.6883L171.756 87.2101C172.696 87.7162 173.748 88.0432 174.862 88.1449L175.226 84.1614ZM170.719 85.6846C170.738 85.8459 170.748 86.0108 170.748 86.1788H174.748C174.748 85.8531 174.728 85.531 174.691 85.2137L170.719 85.6846ZM170.748 86.1788C170.748 88.4614 168.897 90.3118 166.615 90.3118V94.3118C171.106 94.3118 174.748 90.6705 174.748 86.1788H170.748ZM166.615 90.3118C165.572 90.3118 164.623 89.928 163.895 89.2911L161.261 92.3016C162.69 93.552 164.566 94.3118 166.615 94.3118V90.3118ZM160.64 91.289C160.722 91.614 160.767 91.9563 160.767 92.3118H164.767C164.767 91.6213 164.68 90.9481 164.517 90.3037L160.64 91.289ZM160.767 92.3118C160.767 94.5944 158.916 96.4448 156.634 96.4448V100.445C161.126 100.445 164.767 96.8036 164.767 92.3118H160.767ZM156.634 96.4448C155.135 96.4448 153.82 95.6482 153.093 94.4456L149.67 96.5152C151.091 98.8661 153.677 100.445 156.634 100.445V96.4448ZM149.467 94.9024C149.382 95.1838 149.268 95.4529 149.127 95.7061L152.625 97.6467C152.902 97.1475 153.128 96.6157 153.296 96.0584L149.467 94.9024ZM149.127 97.6467C149.455 98.2376 149.642 98.9176 149.642 99.6474H153.642C153.642 98.2214 153.274 96.8756 152.625 95.7061L149.127 97.6467ZM149.642 99.6474C149.642 101.93 147.792 103.78 145.509 103.78V107.78C150.001 107.78 153.642 104.139 153.642 99.6474H149.642ZM145.509 103.78C143.227 103.78 141.376 101.93 141.376 99.6474H137.376C137.376 104.139 141.018 107.78 145.509 107.78V103.78ZM141.376 99.6474C141.376 98.9176 141.564 98.2376 141.892 97.6467L138.394 95.7061C137.745 96.8756 137.376 98.2214 137.376 99.6474H141.376ZM141.892 95.7061C141.708 95.3753 141.569 95.0174 141.482 94.6398L137.584 95.5388C137.757 96.2864 138.032 96.9944 138.394 97.6467L141.892 95.7061ZM138.732 93.2566C138.34 93.4283 137.914 93.5406 137.467 93.5819L137.834 97.565C138.715 97.4837 139.556 97.262 140.334 96.922L138.732 93.2566ZM136.214 96.9644C136.935 97.7101 137.376 98.7207 137.376 99.8384H141.376C141.376 97.6413 140.503 95.6442 139.088 94.1825L136.214 96.9644ZM137.376 99.8384C137.376 102.121 135.526 103.971 133.243 103.971V107.971C137.735 107.971 141.376 104.33 141.376 99.8384H137.376ZM133.243 103.971C130.961 103.971 129.11 102.121 129.11 99.8384H125.11C125.11 104.33 128.752 107.971 133.243 107.971V103.971ZM129.11 99.8384C129.11 97.6866 130.756 95.9169 132.856 95.7231L132.489 91.74C128.35 92.1219 125.11 95.6007 125.11 99.8384H129.11ZM134.11 92.3406C133.388 91.5948 132.947 90.5843 132.947 89.4666H128.947C128.947 91.6637 129.821 93.6608 131.236 95.1225L134.11 92.3406ZM132.947 89.4666C132.947 87.184 134.797 85.3336 137.08 85.3336V81.3336C132.588 81.3336 128.947 84.9749 128.947 89.4666H132.947ZM137.08 85.3336C137.236 85.3336 137.39 85.3421 137.54 85.3587L137.978 81.3827C137.682 81.3502 137.383 81.3336 137.08 81.3336V85.3336ZM139.536 84.2877C140.225 82.952 141.615 82.0458 143.213 82.0458V78.0458C140.06 78.0458 137.33 79.84 135.982 82.4537L139.536 84.2877ZM143.213 82.0458C144.537 82.0458 145.715 82.6659 146.474 83.6397L149.628 81.1792C148.143 79.2757 145.821 78.0458 143.213 78.0458V82.0458ZM149.224 84.0297C149.261 84.0024 149.299 83.9758 149.338 83.9498L147.103 80.6321C147.028 80.6833 146.953 80.7356 146.879 80.7892L149.224 84.0297ZM149.338 80.6321C148.231 79.8865 147.51 78.6274 147.51 77.2005H143.51C143.51 80.0139 144.94 82.4924 147.103 83.9498L149.338 80.6321ZM147.51 77.2005C147.51 74.9179 149.36 73.0675 151.643 73.0675V69.0675C147.151 69.0675 143.51 72.7088 143.51 77.2005H147.51ZM151.643 73.0675C153.925 73.0675 155.776 74.9179 155.776 77.2005H159.776C159.776 72.7088 156.134 69.0675 151.643 69.0675V73.0675ZM155.776 77.2005C155.776 77.4312 155.757 77.656 155.721 77.8739L159.669 78.5183C159.739 78.0882 159.776 77.6479 159.776 77.2005H155.776ZM158.79 79.8702C159.265 79.5597 159.806 79.3453 160.387 79.2525L159.757 75.3024C158.606 75.4861 157.536 75.9108 156.601 76.5219L158.79 79.8702ZM162.072 77.2604L162.072 77.213L158.072 77.2472L158.072 77.2945L162.072 77.2604ZM162.072 77.2255L162.072 77.1959L158.072 77.2052L158.072 77.2348L162.072 77.2255ZM162.072 77.2005C162.072 74.9179 163.922 73.0675 166.205 73.0675V69.0675C161.713 69.0675 158.072 72.7088 158.072 77.2005H162.072ZM166.205 73.0675C166.872 73.0675 167.497 73.2241 168.05 73.5007L169.839 69.9231C168.743 69.375 167.507 69.0675 166.205 69.0675V73.0675ZM170.934 71.5042C170.919 71.3613 170.911 71.2157 170.911 71.0675H166.911C166.911 71.3546 166.926 71.6389 166.955 71.9196L170.934 71.5042ZM170.911 71.0675C170.911 68.7849 172.761 66.9345 175.044 66.9345V62.9345C170.552 62.9345 166.911 66.5758 166.911 71.0675H170.911ZM175.044 66.9345C177.327 66.9345 179.177 68.7849 179.177 71.0675H183.177C183.177 66.5758 179.536 62.9345 175.044 62.9345V66.9345ZM179.177 71.0675C179.177 71.2981 179.158 71.5229 179.123 71.7409L183.071 72.3853C183.141 71.9551 183.177 71.5148 183.177 71.0675H179.177ZM182.191 73.7372C182.341 73.6389 182.498 73.5502 182.661 73.472L180.929 69.8665C180.608 70.0209 180.298 70.1956 180.003 70.3889L182.191 73.7372ZM183.592 70.7919C183.327 70.2477 183.177 69.6354 183.177 68.9823H179.177C179.177 70.2567 179.471 71.468 179.998 72.5466L183.592 70.7919ZM183.177 68.9823C183.177 66.6997 185.027 64.8493 187.31 64.8493V60.8493C182.818 60.8493 179.177 64.4905 179.177 68.9823H183.177ZM187.31 64.8493C188.059 64.8493 188.756 65.0469 189.358 65.3914L191.345 61.9196C190.154 61.2381 188.774 60.8493 187.31 60.8493V64.8493ZM192.241 63.0007C192.095 62.5791 192.015 62.1244 192.015 61.6467H188.015C188.015 62.5761 188.172 63.4732 188.462 64.3103L192.241 63.0007ZM192.015 61.6467C192.015 59.3641 193.865 57.5137 196.148 57.5137V53.5137C191.656 53.5137 188.015 57.155 188.015 61.6467H192.015ZM196.148 57.5137C198.43 57.5137 200.281 59.3641 200.281 61.6467H204.281C204.281 57.155 200.64 53.5137 196.148 53.5137V57.5137ZM200.281 61.6467C200.281 61.9061 200.257 62.1583 200.212 62.4016L204.146 63.1253C204.235 62.6444 204.281 62.15 204.281 61.6467H200.281ZM203.332 64.3981C204.004 63.9246 204.821 63.6468 205.708 63.6467L205.708 59.6467C203.969 59.6469 202.351 60.1954 201.027 61.1288L203.332 64.3981ZM207.708 61.6467C207.708 59.3641 209.559 57.5137 211.841 57.5137V53.5137C207.35 53.5137 203.708 57.155 203.708 61.6467H207.708ZM211.841 57.5137C213.64 57.5137 215.176 58.6643 215.742 60.276L219.516 58.95C218.404 55.7864 215.391 53.5137 211.841 53.5137V57.5137ZM218.625 61.3471C219.229 61.0004 219.928 60.8015 220.68 60.8015V56.8015C219.21 56.8015 217.826 57.193 216.633 57.8788L218.625 61.3471ZM220.68 60.8015C222.963 60.8015 224.813 62.6519 224.813 64.9345H228.813C228.813 60.4428 225.172 56.8015 220.68 56.8015V60.8015ZM224.813 64.9345C224.813 67.2171 222.963 69.0675 220.68 69.0675V73.0675C225.172 73.0675 228.813 69.4262 228.813 64.9345H224.813ZM220.68 69.0675C220.514 69.0675 220.351 69.0578 220.192 69.0392L219.726 73.012C220.04 73.0487 220.358 73.0675 220.68 73.0675V69.0675ZM201.576 67.7797C201.576 67.5203 201.6 67.2681 201.644 67.0248L197.71 66.3011C197.622 66.782 197.576 67.2764 197.576 67.7797H201.576ZM201.74 68.9375C201.634 68.5725 201.576 68.1845 201.576 67.7797H197.576C197.576 68.5665 197.688 69.3305 197.899 70.0549L201.74 68.9375ZM200.437 71.4149C200.498 71.3844 200.56 71.3553 200.623 71.3277L199.016 67.6646C198.892 67.7191 198.769 67.7765 198.648 67.8369L200.437 71.4149ZM197.576 68.9823C197.576 69.1303 197.568 69.2757 197.553 69.4184L201.532 69.8334C201.561 69.5531 201.576 69.2691 201.576 68.9823H197.576ZM197.344 67.6122C197.494 68.0384 197.576 68.4986 197.576 68.9823H201.576C201.576 68.041 201.415 67.133 201.118 66.2869L197.344 67.6122ZM198.525 65.0283C198.428 65.0969 198.327 65.1614 198.224 65.2215L200.238 68.6776C200.441 68.5593 200.638 68.4325 200.83 68.2977L198.525 65.0283ZM195.287 72.6827C194.734 72.9589 194.11 73.1153 193.443 73.1153V77.1153C194.744 77.1153 195.98 76.8082 197.075 76.2607L195.287 72.6827ZM198.148 75.1153C198.148 74.9673 198.155 74.8219 198.17 74.6792L194.192 74.2642C194.163 74.5446 194.148 74.8285 194.148 75.1153H198.148ZM198.17 75.5515C198.155 75.4088 198.148 75.2633 198.148 75.1153H194.148C194.148 75.4021 194.163 75.6861 194.192 75.9664L198.17 75.5515ZM193.443 77.1153C194.11 77.1153 194.734 77.2717 195.287 77.548L197.075 73.9699C195.98 73.4224 194.744 73.1153 193.443 73.1153V77.1153ZM191.422 77.6418C192.018 77.307 192.705 77.1153 193.443 77.1153V73.1153C192.001 73.1153 190.641 73.4924 189.462 74.1549L191.422 77.6418ZM188.165 75.3909C188.308 75.6835 188.417 75.995 188.487 76.321L192.397 75.4757C192.258 74.8306 192.042 74.214 191.76 73.6362L188.165 75.3909ZM189.375 72.5636C189.284 72.6161 189.191 72.6653 189.096 72.7108L190.828 76.3163C191.016 76.2263 191.199 76.1294 191.378 76.026L189.375 72.5636ZM193.443 73.1153C192.687 73.1153 191.984 72.9141 191.378 72.5636L189.375 76.0259C190.573 76.7192 191.965 77.1153 193.443 77.1153V73.1153Z" fill="#2644BA" mask="url(#path-4-inside-1_122_17)"/>
</svg>
